<?xml version="1.0" encoding="UTF-8"?>
<svg xmlns="http://www.w3.org/2000/svg" xmlns:xlink="http://www.w3.org/1999/xlink" width="500pt" height="120pt" viewBox="0 0 500 120" version="1.1">
<g id="surface1">
<path style=" stroke:none;fill-rule:nonzero;fill:rgb(100%,100%,100%);fill-opacity:1;" d="M 24.980469 8.328125 L 26.574219 8.328125 L 29.027344 18.1875 L 31.480469 8.328125 L 33.246094 8.328125 L 35.699219 18.1875 L 38.152344 8.328125 L 39.746094 8.328125 L 36.824219 20 L 34.839844 20 L 32.371094 9.875 L 29.886719 20 L 27.902344 20 Z M 48.332031 15.265625 L 48.332031 15.96875 L 41.722656 15.96875 C 41.785156 16.960938 42.082031 17.714844 42.613281 18.234375 C 43.144531 18.746094 43.886719 19 44.847656 19 C 45.398438 19 45.929688 18.933594 46.441406 18.796875 C 46.960938 18.664062 47.476562 18.460938 47.988281 18.1875 L 47.988281 19.546875 C 47.476562 19.765625 46.949219 19.933594 46.410156 20.046875 C 45.867188 20.171875 45.316406 20.234375 44.753906 20.234375 C 43.355469 20.234375 42.253906 19.828125 41.441406 19.015625 C 40.628906 18.195312 40.222656 17.089844 40.222656 15.703125 C 40.222656 14.277344 40.605469 13.140625 41.378906 12.296875 C 42.148438 11.453125 43.191406 11.03125 44.503906 11.03125 C 45.679688 11.03125 46.613281 11.414062 47.300781 12.171875 C 47.988281 12.933594 48.332031 13.964844 48.332031 15.265625 Z M 46.894531 14.84375 C 46.882812 14.054688 46.660156 13.421875 46.222656 12.953125 C 45.792969 12.484375 45.226562 12.25 44.519531 12.25 C 43.714844 12.25 43.074219 12.480469 42.597656 12.9375 C 42.117188 13.386719 41.839844 14.023438 41.769531 14.84375 Z M 56.972656 15.625 C 56.972656 14.574219 56.753906 13.746094 56.316406 13.140625 C 55.878906 12.539062 55.277344 12.234375 54.519531 12.234375 C 53.757812 12.234375 53.160156 12.539062 52.722656 13.140625 C 52.292969 13.746094 52.082031 14.574219 52.082031 15.625 C 52.082031 16.6875 52.292969 17.523438 52.722656 18.125 C 53.160156 18.71875 53.757812 19.015625 54.519531 19.015625 C 55.277344 19.015625 55.878906 18.71875 56.316406 18.125 C 56.753906 17.523438 56.972656 16.6875 56.972656 15.625 Z M 52.082031 12.578125 C 52.382812 12.058594 52.761719 11.671875 53.222656 11.421875 C 53.679688 11.164062 54.230469 11.03125 54.878906 11.03125 C 55.941406 11.03125 56.800781 11.453125 57.457031 12.296875 C 58.121094 13.140625 58.457031 14.25 58.457031 15.625 C 58.457031 17 58.121094 18.117188 57.457031 18.96875 C 56.800781 19.8125 55.941406 20.234375 54.878906 20.234375 C 54.230469 20.234375 53.679688 20.109375 53.222656 19.859375 C 52.761719 19.601562 52.382812 19.210938 52.082031 18.6875 L 52.082031 20 L 50.628906 20 L 50.628906 7.84375 L 52.082031 7.84375 Z M 66.425781 11.5 L 66.425781 12.859375 C 66.019531 12.652344 65.597656 12.496094 65.160156 12.390625 C 64.722656 12.289062 64.269531 12.234375 63.800781 12.234375 C 63.082031 12.234375 62.542969 12.34375 62.191406 12.5625 C 61.835938 12.78125 61.660156 13.109375 61.660156 13.546875 C 61.660156 13.882812 61.785156 14.148438 62.035156 14.34375 C 62.292969 14.53125 62.808594 14.710938 63.582031 14.875 L 64.066406 14.984375 C 65.085938 15.203125 65.808594 15.515625 66.238281 15.921875 C 66.675781 16.320312 66.894531 16.871094 66.894531 17.578125 C 66.894531 18.390625 66.570312 19.039062 65.925781 19.515625 C 65.277344 19.996094 64.394531 20.234375 63.269531 20.234375 C 62.800781 20.234375 62.308594 20.1875 61.800781 20.09375 C 61.300781 20 60.769531 19.859375 60.207031 19.671875 L 60.207031 18.1875 C 60.738281 18.46875 61.257812 18.679688 61.769531 18.8125 C 62.289062 18.949219 62.800781 19.015625 63.300781 19.015625 C 63.976562 19.015625 64.496094 18.902344 64.863281 18.671875 C 65.226562 18.445312 65.410156 18.117188 65.410156 17.6875 C 65.410156 17.304688 65.277344 17.007812 65.019531 16.796875 C 64.757812 16.589844 64.179688 16.386719 63.285156 16.1875 L 62.785156 16.078125 C 61.898438 15.890625 61.257812 15.605469 60.863281 15.21875 C 60.464844 14.824219 60.269531 14.289062 60.269531 13.609375 C 60.269531 12.789062 60.558594 12.152344 61.144531 11.703125 C 61.726562 11.257812 62.554688 11.03125 63.628906 11.03125 C 64.160156 11.03125 64.660156 11.074219 65.128906 11.15625 C 65.597656 11.230469 66.027344 11.34375 66.425781 11.5 Z M 69.183594 11.25 L 70.621094 11.25 L 70.621094 20 L 69.183594 20 Z M 69.183594 7.84375 L 70.621094 7.84375 L 70.621094 9.65625 L 69.183594 9.65625 Z M 75.050781 8.765625 L 75.050781 11.25 L 78.003906 11.25 L 78.003906 12.359375 L 75.050781 12.359375 L 75.050781 17.109375 C 75.050781 17.828125 75.144531 18.292969 75.332031 18.5 C 75.527344 18.699219 75.929688 18.796875 76.535156 18.796875 L 78.003906 18.796875 L 78.003906 20 L 76.535156 20 C 75.417969 20 74.648438 19.792969 74.222656 19.375 C 73.804688 18.960938 73.597656 18.203125 73.597656 17.109375 L 73.597656 12.359375 L 72.550781 12.359375 L 72.550781 11.25 L 73.597656 11.25 L 73.597656 8.765625 Z M 87.386719 15.265625 L 87.386719 15.96875 L 80.777344 15.96875 C 80.839844 16.960938 81.136719 17.714844 81.667969 18.234375 C 82.199219 18.746094 82.941406 19 83.902344 19 C 84.453125 19 84.984375 18.933594 85.496094 18.796875 C 86.015625 18.664062 86.53125 18.460938 87.042969 18.1875 L 87.042969 19.546875 C 86.53125 19.765625 86.003906 19.933594 85.464844 20.046875 C 84.921875 20.171875 84.371094 20.234375 83.808594 20.234375 C 82.410156 20.234375 81.308594 19.828125 80.496094 19.015625 C 79.683594 18.195312 79.277344 17.089844 79.277344 15.703125 C 79.277344 14.277344 79.660156 13.140625 80.433594 12.296875 C 81.203125 11.453125 82.246094 11.03125 83.558594 11.03125 C 84.734375 11.03125 85.667969 11.414062 86.355469 12.171875 C 87.042969 12.933594 87.386719 13.964844 87.386719 15.265625 Z M 85.949219 14.84375 C 85.9375 14.054688 85.714844 13.421875 85.277344 12.953125 C 84.847656 12.484375 84.28125 12.25 83.574219 12.25 C 82.769531 12.25 82.128906 12.480469 81.652344 12.9375 C 81.171875 13.386719 80.894531 14.023438 80.824219 14.84375 Z M 96.472656 9.625 L 96.472656 14.015625 L 98.457031 14.015625 C 99.183594 14.015625 99.746094 13.828125 100.144531 13.453125 C 100.550781 13.070312 100.753906 12.523438 100.753906 11.8125 C 100.753906 11.117188 100.550781 10.578125 100.144531 10.203125 C 99.746094 9.820312 99.183594 9.625 98.457031 9.625 Z M 94.894531 8.328125 L 98.457031 8.328125 C 99.757812 8.328125 100.742188 8.625 101.410156 9.21875 C 102.085938 9.8125 102.425781 10.679688 102.425781 11.8125 C 102.425781 12.96875 102.085938 13.84375 101.410156 14.4375 C 100.742188 15.023438 99.757812 15.3125 98.457031 15.3125 L 96.472656 15.3125 L 96.472656 20 L 94.894531 20 Z M 111.394531 15.265625 L 111.394531 15.96875 L 104.785156 15.96875 C 104.847656 16.960938 105.144531 17.714844 105.675781 18.234375 C 106.207031 18.746094 106.949219 19 107.910156 19 C 108.460938 19 108.992188 18.933594 109.503906 18.796875 C 110.023438 18.664062 110.539062 18.460938 111.050781 18.1875 L 111.050781 19.546875 C 110.539062 19.765625 110.011719 19.933594 109.472656 20.046875 C 108.929688 20.171875 108.378906 20.234375 107.816406 20.234375 C 106.417969 20.234375 105.316406 19.828125 104.503906 19.015625 C 103.691406 18.195312 103.285156 17.089844 103.285156 15.703125 C 103.285156 14.277344 103.667969 13.140625 104.441406 12.296875 C 105.210938 11.453125 106.253906 11.03125 107.566406 11.03125 C 108.742188 11.03125 109.675781 11.414062 110.363281 12.171875 C 111.050781 12.933594 111.394531 13.964844 111.394531 15.265625 Z M 109.957031 14.84375 C 109.945312 14.054688 109.722656 13.421875 109.285156 12.953125 C 108.855469 12.484375 108.289062 12.25 107.582031 12.25 C 106.777344 12.25 106.136719 12.480469 105.660156 12.9375 C 105.179688 13.386719 104.902344 14.023438 104.832031 14.84375 Z M 118.816406 12.59375 C 118.660156 12.5 118.480469 12.433594 118.285156 12.390625 C 118.097656 12.339844 117.886719 12.3125 117.660156 12.3125 C 116.847656 12.3125 116.222656 12.578125 115.785156 13.109375 C 115.355469 13.640625 115.144531 14.402344 115.144531 15.390625 L 115.144531 20 L 113.691406 20 L 113.691406 11.25 L 115.144531 11.25 L 115.144531 12.609375 C 115.445312 12.078125 115.835938 11.683594 116.316406 11.421875 C 116.804688 11.164062 117.394531 11.03125 118.082031 11.03125 C 118.183594 11.03125 118.292969 11.042969 118.410156 11.0625 C 118.535156 11.074219 118.667969 11.089844 118.816406 11.109375 Z M 124.753906 7.84375 L 124.753906 9.03125 L 123.378906 9.03125 C 122.867188 9.03125 122.507812 9.136719 122.300781 9.34375 C 122.101562 9.554688 122.003906 9.929688 122.003906 10.46875 L 122.003906 11.25 L 124.378906 11.25 L 124.378906 12.359375 L 122.003906 12.359375 L 122.003906 20 L 120.566406 20 L 120.566406 12.359375 L 119.191406 12.359375 L 119.191406 11.25 L 120.566406 11.25 L 120.566406 10.640625 C 120.566406 9.664062 120.789062 8.953125 121.238281 8.515625 C 121.695312 8.070312 122.414062 7.84375 123.394531 7.84375 Z M 129.355469 12.25 C 128.582031 12.25 127.972656 12.554688 127.527344 13.15625 C 127.078125 13.761719 126.855469 14.585938 126.855469 15.625 C 126.855469 16.679688 127.074219 17.507812 127.511719 18.109375 C 127.957031 18.703125 128.574219 19 129.355469 19 C 130.113281 19 130.71875 18.699219 131.167969 18.09375 C 131.613281 17.492188 131.839844 16.667969 131.839844 15.625 C 131.839844 14.59375 131.613281 13.777344 131.167969 13.171875 C 130.71875 12.558594 130.113281 12.25 129.355469 12.25 Z M 129.355469 11.03125 C 130.605469 11.03125 131.582031 11.4375 132.292969 12.25 C 133.011719 13.0625 133.371094 14.1875 133.371094 15.625 C 133.371094 17.0625 133.011719 18.195312 132.292969 19.015625 C 131.582031 19.828125 130.605469 20.234375 129.355469 20.234375 C 128.09375 20.234375 127.109375 19.828125 126.402344 19.015625 C 125.691406 18.195312 125.339844 17.0625 125.339844 15.625 C 125.339844 14.1875 125.691406 13.0625 126.402344 12.25 C 127.109375 11.4375 128.09375 11.03125 129.355469 11.03125 Z M 140.816406 12.59375 C 140.660156 12.5 140.480469 12.433594 140.285156 12.390625 C 140.097656 12.339844 139.886719 12.3125 139.660156 12.3125 C 138.847656 12.3125 138.222656 12.578125 137.785156 13.109375 C 137.355469 13.640625 137.144531 14.402344 137.144531 15.390625 L 137.144531 20 L 135.691406 20 L 135.691406 11.25 L 137.144531 11.25 L 137.144531 12.609375 C 137.445312 12.078125 137.835938 11.683594 138.316406 11.421875 C 138.804688 11.164062 139.394531 11.03125 140.082031 11.03125 C 140.183594 11.03125 140.292969 11.042969 140.410156 11.0625 C 140.535156 11.074219 140.667969 11.089844 140.816406 11.109375 Z M 148.863281 12.921875 C 149.214844 12.277344 149.644531 11.804688 150.144531 11.5 C 150.644531 11.1875 151.230469 11.03125 151.910156 11.03125 C 152.824219 11.03125 153.527344 11.355469 154.019531 12 C 154.519531 12.636719 154.769531 13.542969 154.769531 14.71875 L 154.769531 20 L 153.316406 20 L 153.316406 14.765625 C 153.316406 13.921875 153.164062 13.296875 152.863281 12.890625 C 152.570312 12.484375 152.121094 12.28125 151.519531 12.28125 C 150.769531 12.28125 150.175781 12.53125 149.738281 13.03125 C 149.308594 13.523438 149.097656 14.195312 149.097656 15.046875 L 149.097656 20 L 147.660156 20 L 147.660156 14.765625 C 147.660156 13.921875 147.507812 13.296875 147.207031 12.890625 C 146.914062 12.484375 146.457031 12.28125 145.832031 12.28125 C 145.101562 12.28125 144.519531 12.53125 144.082031 13.03125 C 143.652344 13.53125 143.441406 14.203125 143.441406 15.046875 L 143.441406 20 L 141.988281 20 L 141.988281 11.25 L 143.441406 11.25 L 143.441406 12.609375 C 143.761719 12.070312 144.152344 11.671875 144.613281 11.421875 C 145.070312 11.164062 145.617188 11.03125 146.253906 11.03125 C 146.886719 11.03125 147.425781 11.195312 147.863281 11.515625 C 148.308594 11.839844 148.644531 12.308594 148.863281 12.921875 Z M 161.605469 15.59375 C 160.449219 15.59375 159.644531 15.730469 159.199219 16 C 158.75 16.261719 158.527344 16.714844 158.527344 17.359375 C 158.527344 17.871094 158.691406 18.277344 159.027344 18.578125 C 159.359375 18.871094 159.816406 19.015625 160.402344 19.015625 C 161.191406 19.015625 161.828125 18.734375 162.308594 18.171875 C 162.796875 17.609375 163.042969 16.859375 163.042969 15.921875 L 163.042969 15.59375 Z M 164.480469 15 L 164.480469 20 L 163.042969 20 L 163.042969 18.671875 C 162.707031 19.203125 162.296875 19.601562 161.808594 19.859375 C 161.316406 20.109375 160.71875 20.234375 160.011719 20.234375 C 159.113281 20.234375 158.402344 19.984375 157.871094 19.484375 C 157.347656 18.976562 157.089844 18.296875 157.089844 17.453125 C 157.089844 16.464844 157.417969 15.71875 158.074219 15.21875 C 158.730469 14.71875 159.714844 14.46875 161.027344 14.46875 L 163.042969 14.46875 L 163.042969 14.328125 C 163.042969 13.671875 162.824219 13.164062 162.386719 12.796875 C 161.949219 12.433594 161.339844 12.25 160.558594 12.25 C 160.058594 12.25 159.566406 12.3125 159.089844 12.4375 C 158.621094 12.554688 158.167969 12.730469 157.730469 12.96875 L 157.730469 11.640625 C 158.25 11.445312 158.753906 11.292969 159.246094 11.1875 C 159.746094 11.085938 160.230469 11.03125 160.699219 11.03125 C 161.96875 11.03125 162.917969 11.359375 163.542969 12.015625 C 164.167969 12.671875 164.480469 13.667969 164.480469 15 Z M 174.707031 14.71875 L 174.707031 20 L 173.269531 20 L 173.269531 14.765625 C 173.269531 13.933594 173.105469 13.3125 172.785156 12.90625 C 172.460938 12.492188 171.976562 12.28125 171.332031 12.28125 C 170.558594 12.28125 169.949219 12.53125 169.503906 13.03125 C 169.054688 13.523438 168.832031 14.195312 168.832031 15.046875 L 168.832031 20 L 167.378906 20 L 167.378906 11.25 L 168.832031 11.25 L 168.832031 12.609375 C 169.175781 12.078125 169.574219 11.683594 170.035156 11.421875 C 170.503906 11.164062 171.042969 11.03125 171.660156 11.03125 C 172.660156 11.03125 173.414062 11.34375 173.925781 11.96875 C 174.445312 12.59375 174.707031 13.511719 174.707031 14.71875 Z M 183.878906 11.578125 L 183.878906 12.921875 C 183.472656 12.703125 183.058594 12.539062 182.644531 12.421875 C 182.238281 12.308594 181.824219 12.25 181.410156 12.25 C 180.480469 12.25 179.757812 12.546875 179.238281 13.140625 C 178.726562 13.734375 178.472656 14.5625 178.472656 15.625 C 178.472656 16.699219 178.726562 17.53125 179.238281 18.125 C 179.757812 18.710938 180.480469 19 181.410156 19 C 181.824219 19 182.238281 18.949219 182.644531 18.84375 C 183.058594 18.730469 183.472656 18.558594 183.878906 18.328125 L 183.878906 19.65625 C 183.472656 19.84375 183.054688 19.984375 182.628906 20.078125 C 182.199219 20.179688 181.742188 20.234375 181.253906 20.234375 C 179.941406 20.234375 178.894531 19.820312 178.113281 18.984375 C 177.339844 18.152344 176.957031 17.03125 176.957031 15.625 C 176.957031 14.199219 177.347656 13.078125 178.128906 12.265625 C 178.910156 11.445312 179.980469 11.03125 181.347656 11.03125 C 181.792969 11.03125 182.226562 11.078125 182.644531 11.171875 C 183.070312 11.265625 183.480469 11.402344 183.878906 11.578125 Z M 193.863281 15.265625 L 193.863281 15.96875 L 187.253906 15.96875 C 187.316406 16.960938 187.613281 17.714844 188.144531 18.234375 C 188.675781 18.746094 189.417969 19 190.378906 19 C 190.929688 19 191.460938 18.933594 191.972656 18.796875 C 192.492188 18.664062 193.007812 18.460938 193.519531 18.1875 L 193.519531 19.546875 C 193.007812 19.765625 192.480469 19.933594 191.941406 20.046875 C 191.398438 20.171875 190.847656 20.234375 190.285156 20.234375 C 188.886719 20.234375 187.785156 19.828125 186.972656 19.015625 C 186.160156 18.195312 185.753906 17.089844 185.753906 15.703125 C 185.753906 14.277344 186.136719 13.140625 186.910156 12.296875 C 187.679688 11.453125 188.722656 11.03125 190.035156 11.03125 C 191.210938 11.03125 192.144531 11.414062 192.832031 12.171875 C 193.519531 12.933594 193.863281 13.964844 193.863281 15.265625 Z M 192.425781 14.84375 C 192.414062 14.054688 192.191406 13.421875 191.753906 12.953125 C 191.324219 12.484375 190.757812 12.25 190.050781 12.25 C 189.246094 12.25 188.605469 12.480469 188.128906 12.9375 C 187.648438 13.386719 187.371094 14.023438 187.300781 14.84375 Z M 201.371094 8.328125 L 203.714844 8.328125 L 206.699219 16.265625 L 209.683594 8.328125 L 212.042969 8.328125 L 212.042969 20 L 210.496094 20 L 210.496094 9.75 L 207.496094 17.75 L 205.902344 17.75 L 202.902344 9.75 L 202.902344 20 L 201.371094 20 Z M 222.597656 15.265625 L 222.597656 15.96875 L 215.988281 15.96875 C 216.050781 16.960938 216.347656 17.714844 216.878906 18.234375 C 217.410156 18.746094 218.152344 19 219.113281 19 C 219.664062 19 220.195312 18.933594 220.707031 18.796875 C 221.226562 18.664062 221.742188 18.460938 222.253906 18.1875 L 222.253906 19.546875 C 221.742188 19.765625 221.214844 19.933594 220.675781 20.046875 C 220.132812 20.171875 219.582031 20.234375 219.019531 20.234375 C 217.621094 20.234375 216.519531 19.828125 215.707031 19.015625 C 214.894531 18.195312 214.488281 17.089844 214.488281 15.703125 C 214.488281 14.277344 214.871094 13.140625 215.644531 12.296875 C 216.414062 11.453125 217.457031 11.03125 218.769531 11.03125 C 219.945312 11.03125 220.878906 11.414062 221.566406 12.171875 C 222.253906 12.933594 222.597656 13.964844 222.597656 15.265625 Z M 221.160156 14.84375 C 221.148438 14.054688 220.925781 13.421875 220.488281 12.953125 C 220.058594 12.484375 219.492188 12.25 218.785156 12.25 C 217.980469 12.25 217.339844 12.480469 216.863281 12.9375 C 216.382812 13.386719 216.105469 14.023438 216.035156 14.84375 Z M 226.378906 8.765625 L 226.378906 11.25 L 229.332031 11.25 L 229.332031 12.359375 L 226.378906 12.359375 L 226.378906 17.109375 C 226.378906 17.828125 226.472656 18.292969 226.660156 18.5 C 226.855469 18.699219 227.257812 18.796875 227.863281 18.796875 L 229.332031 18.796875 L 229.332031 20 L 227.863281 20 C 226.746094 20 225.976562 19.792969 225.550781 19.375 C 225.132812 18.960938 224.925781 18.203125 224.925781 17.109375 L 224.925781 12.359375 L 223.878906 12.359375 L 223.878906 11.25 L 224.925781 11.25 L 224.925781 8.765625 Z M 236.292969 12.59375 C 236.136719 12.5 235.957031 12.433594 235.761719 12.390625 C 235.574219 12.339844 235.363281 12.3125 235.136719 12.3125 C 234.324219 12.3125 233.699219 12.578125 233.261719 13.109375 C 232.832031 13.640625 232.621094 14.402344 232.621094 15.390625 L 232.621094 20 L 231.167969 20 L 231.167969 11.25 L 232.621094 11.25 L 232.621094 12.609375 C 232.921875 12.078125 233.3125 11.683594 233.792969 11.421875 C 234.28125 11.164062 234.871094 11.03125 235.558594 11.03125 C 235.660156 11.03125 235.769531 11.042969 235.886719 11.0625 C 236.011719 11.074219 236.144531 11.089844 236.292969 11.109375 Z M 237.808594 11.25 L 239.246094 11.25 L 239.246094 20 L 237.808594 20 Z M 237.808594 7.84375 L 239.246094 7.84375 L 239.246094 9.65625 L 237.808594 9.65625 Z M 248.550781 11.578125 L 248.550781 12.921875 C 248.144531 12.703125 247.730469 12.539062 247.316406 12.421875 C 246.910156 12.308594 246.496094 12.25 246.082031 12.25 C 245.152344 12.25 244.429688 12.546875 243.910156 13.140625 C 243.398438 13.734375 243.144531 14.5625 243.144531 15.625 C 243.144531 16.699219 243.398438 17.53125 243.910156 18.125 C 244.429688 18.710938 245.152344 19 246.082031 19 C 246.496094 19 246.910156 18.949219 247.316406 18.84375 C 247.730469 18.730469 248.144531 18.558594 248.550781 18.328125 L 248.550781 19.65625 C 248.144531 19.84375 247.726562 19.984375 247.300781 20.078125 C 246.871094 20.179688 246.414062 20.234375 245.925781 20.234375 C 244.613281 20.234375 243.566406 19.820312 242.785156 18.984375 C 242.011719 18.152344 241.628906 17.03125 241.628906 15.625 C 241.628906 14.199219 242.019531 13.078125 242.800781 12.265625 C 243.582031 11.445312 244.652344 11.03125 246.019531 11.03125 C 246.464844 11.03125 246.898438 11.078125 247.316406 11.171875 C 247.742188 11.265625 248.152344 11.402344 248.550781 11.578125 Z M 256.628906 11.5 L 256.628906 12.859375 C 256.222656 12.652344 255.800781 12.496094 255.363281 12.390625 C 254.925781 12.289062 254.472656 12.234375 254.003906 12.234375 C 253.285156 12.234375 252.746094 12.34375 252.394531 12.5625 C 252.039062 12.78125 251.863281 13.109375 251.863281 13.546875 C 251.863281 13.882812 251.988281 14.148438 252.238281 14.34375 C 252.496094 14.53125 253.011719 14.710938 253.785156 14.875 L 254.269531 14.984375 C 255.289062 15.203125 256.011719 15.515625 256.441406 15.921875 C 256.878906 16.320312 257.097656 16.871094 257.097656 17.578125 C 257.097656 18.390625 256.773438 19.039062 256.128906 19.515625 C 255.480469 19.996094 254.597656 20.234375 253.472656 20.234375 C 253.003906 20.234375 252.511719 20.1875 252.003906 20.09375 C 251.503906 20 250.972656 19.859375 250.410156 19.671875 L 250.410156 18.1875 C 250.941406 18.46875 251.460938 18.679688 251.972656 18.8125 C 252.492188 18.949219 253.003906 19.015625 253.503906 19.015625 C 254.179688 19.015625 254.699219 18.902344 255.066406 18.671875 C 255.429688 18.445312 255.613281 18.117188 255.613281 17.6875 C 255.613281 17.304688 255.480469 17.007812 255.222656 16.796875 C 254.960938 16.589844 254.382812 16.386719 253.488281 16.1875 L 252.988281 16.078125 C 252.101562 15.890625 251.460938 15.605469 251.066406 15.21875 C 250.667969 14.824219 250.472656 14.289062 250.472656 13.609375 C 250.472656 12.789062 250.761719 12.152344 251.347656 11.703125 C 251.929688 11.257812 252.757812 11.03125 253.832031 11.03125 C 254.363281 11.03125 254.863281 11.074219 255.332031 11.15625 C 255.800781 11.230469 256.230469 11.34375 256.628906 11.5 Z M 259.746094 18.015625 L 261.402344 18.015625 L 261.402344 20 L 259.746094 20 Z M 259.746094 11.71875 L 261.402344 11.71875 L 261.402344 13.703125 L 259.746094 13.703125 Z M 277.128906 14.71875 L 277.128906 20 L 275.691406 20 L 275.691406 14.765625 C 275.691406 13.933594 275.527344 13.3125 275.207031 12.90625 C 274.882812 12.492188 274.398438 12.28125 273.753906 12.28125 C 272.980469 12.28125 272.371094 12.53125 271.925781 13.03125 C 271.476562 13.523438 271.253906 14.195312 271.253906 15.046875 L 271.253906 20 L 269.800781 20 L 269.800781 7.84375 L 271.253906 7.84375 L 271.253906 12.609375 C 271.597656 12.078125 271.996094 11.683594 272.457031 11.421875 C 272.925781 11.164062 273.464844 11.03125 274.082031 11.03125 C 275.082031 11.03125 275.835938 11.34375 276.347656 11.96875 C 276.867188 12.59375 277.128906 13.511719 277.128906 14.71875 Z M 281.425781 8.765625 L 281.425781 11.25 L 284.378906 11.25 L 284.378906 12.359375 L 281.425781 12.359375 L 281.425781 17.109375 C 281.425781 17.828125 281.519531 18.292969 281.707031 18.5 C 281.902344 18.699219 282.304688 18.796875 282.910156 18.796875 L 284.378906 18.796875 L 284.378906 20 L 282.910156 20 C 281.792969 20 281.023438 19.792969 280.597656 19.375 C 280.179688 18.960938 279.972656 18.203125 279.972656 17.109375 L 279.972656 12.359375 L 278.925781 12.359375 L 278.925781 11.25 L 279.972656 11.25 L 279.972656 8.765625 Z M 287.699219 8.765625 L 287.699219 11.25 L 290.652344 11.25 L 290.652344 12.359375 L 287.699219 12.359375 L 287.699219 17.109375 C 287.699219 17.828125 287.792969 18.292969 287.980469 18.5 C 288.175781 18.699219 288.578125 18.796875 289.183594 18.796875 L 290.652344 18.796875 L 290.652344 20 L 289.183594 20 C 288.066406 20 287.296875 19.792969 286.871094 19.375 C 286.453125 18.960938 286.246094 18.203125 286.246094 17.109375 L 286.246094 12.359375 L 285.199219 12.359375 L 285.199219 11.25 L 286.246094 11.25 L 286.246094 8.765625 Z M 293.941406 18.6875 L 293.941406 23.328125 L 292.488281 23.328125 L 292.488281 11.25 L 293.941406 11.25 L 293.941406 12.578125 C 294.242188 12.058594 294.621094 11.671875 295.082031 11.421875 C 295.539062 11.164062 296.089844 11.03125 296.738281 11.03125 C 297.800781 11.03125 298.660156 11.453125 299.316406 12.296875 C 299.980469 13.140625 300.316406 14.25 300.316406 15.625 C 300.316406 17 299.980469 18.117188 299.316406 18.96875 C 298.660156 19.8125 297.800781 20.234375 296.738281 20.234375 C 296.089844 20.234375 295.539062 20.109375 295.082031 19.859375 C 294.621094 19.601562 294.242188 19.210938 293.941406 18.6875 Z M 298.832031 15.625 C 298.832031 14.574219 298.613281 13.746094 298.175781 13.140625 C 297.738281 12.539062 297.136719 12.234375 296.378906 12.234375 C 295.617188 12.234375 295.019531 12.539062 294.582031 13.140625 C 294.152344 13.746094 293.941406 14.574219 293.941406 15.625 C 293.941406 16.6875 294.152344 17.523438 294.582031 18.125 C 295.019531 18.71875 295.617188 19.015625 296.378906 19.015625 C 297.136719 19.015625 297.738281 18.71875 298.175781 18.125 C 298.613281 17.523438 298.832031 16.6875 298.832031 15.625 Z M 308.285156 11.5 L 308.285156 12.859375 C 307.878906 12.652344 307.457031 12.496094 307.019531 12.390625 C 306.582031 12.289062 306.128906 12.234375 305.660156 12.234375 C 304.941406 12.234375 304.402344 12.34375 304.050781 12.5625 C 303.695312 12.78125 303.519531 13.109375 303.519531 13.546875 C 303.519531 13.882812 303.644531 14.148438 303.894531 14.34375 C 304.152344 14.53125 304.667969 14.710938 305.441406 14.875 L 305.925781 14.984375 C 306.945312 15.203125 307.667969 15.515625 308.097656 15.921875 C 308.535156 16.320312 308.753906 16.871094 308.753906 17.578125 C 308.753906 18.390625 308.429688 19.039062 307.785156 19.515625 C 307.136719 19.996094 306.253906 20.234375 305.128906 20.234375 C 304.660156 20.234375 304.167969 20.1875 303.660156 20.09375 C 303.160156 20 302.628906 19.859375 302.066406 19.671875 L 302.066406 18.1875 C 302.597656 18.46875 303.117188 18.679688 303.628906 18.8125 C 304.148438 18.949219 304.660156 19.015625 305.160156 19.015625 C 305.835938 19.015625 306.355469 18.902344 306.722656 18.671875 C 307.085938 18.445312 307.269531 18.117188 307.269531 17.6875 C 307.269531 17.304688 307.136719 17.007812 306.878906 16.796875 C 306.617188 16.589844 306.039062 16.386719 305.144531 16.1875 L 304.644531 16.078125 C 303.757812 15.890625 303.117188 15.605469 302.722656 15.21875 C 302.324219 14.824219 302.128906 14.289062 302.128906 13.609375 C 302.128906 12.789062 302.417969 12.152344 303.003906 11.703125 C 303.585938 11.257812 304.414062 11.03125 305.488281 11.03125 C 306.019531 11.03125 306.519531 11.074219 306.988281 11.15625 C 307.457031 11.230469 307.886719 11.34375 308.285156 11.5 Z M 311.402344 18.015625 L 313.058594 18.015625 L 313.058594 20 L 311.402344 20 Z M 311.402344 11.71875 L 313.058594 11.71875 L 313.058594 13.703125 L 311.402344 13.703125 Z M 318.980469 8.328125 L 320.308594 8.328125 L 316.246094 21.484375 L 314.917969 21.484375 Z M 324.371094 8.328125 L 325.699219 8.328125 L 321.636719 21.484375 L 320.308594 21.484375 Z M 326.371094 11.25 L 327.808594 11.25 L 329.605469 18.078125 L 331.402344 11.25 L 333.089844 11.25 L 334.886719 18.078125 L 336.683594 11.25 L 338.121094 11.25 L 335.824219 20 L 334.136719 20 L 332.246094 12.828125 L 330.355469 20 L 328.667969 20 Z M 339.457031 11.25 L 340.894531 11.25 L 342.691406 18.078125 L 344.488281 11.25 L 346.175781 11.25 L 347.972656 18.078125 L 349.769531 11.25 L 351.207031 11.25 L 348.910156 20 L 347.222656 20 L 345.332031 12.828125 L 343.441406 20 L 341.753906 20 Z M 352.542969 11.25 L 353.980469 11.25 L 355.777344 18.078125 L 357.574219 11.25 L 359.261719 11.25 L 361.058594 18.078125 L 362.855469 11.25 L 364.292969 11.25 L 361.996094 20 L 360.308594 20 L 358.417969 12.828125 L 356.527344 20 L 354.839844 20 Z M 365.207031 18.015625 L 366.847656 18.015625 L 366.847656 20 L 365.207031 20 Z M 369.246094 11.25 L 370.683594 11.25 L 372.480469 18.078125 L 374.277344 11.25 L 375.964844 11.25 L 377.761719 18.078125 L 379.558594 11.25 L 380.996094 11.25 L 378.699219 20 L 377.011719 20 L 375.121094 12.828125 L 373.230469 20 L 371.542969 20 Z M 383.175781 11.25 L 384.613281 11.25 L 384.613281 20 L 383.175781 20 Z M 383.175781 7.84375 L 384.613281 7.84375 L 384.613281 9.65625 L 383.175781 9.65625 Z M 387.558594 7.84375 L 389.011719 7.84375 L 389.011719 15.015625 L 393.292969 11.25 L 395.136719 11.25 L 390.496094 15.34375 L 395.324219 20 L 393.449219 20 L 389.011719 15.71875 L 389.011719 20 L 387.558594 20 Z M 396.886719 11.25 L 398.324219 11.25 L 398.324219 20 L 396.886719 20 Z M 396.886719 7.84375 L 398.324219 7.84375 L 398.324219 9.65625 L 396.886719 9.65625 Z M 402.722656 18.6875 L 402.722656 23.328125 L 401.269531 23.328125 L 401.269531 11.25 L 402.722656 11.25 L 402.722656 12.578125 C 403.023438 12.058594 403.402344 11.671875 403.863281 11.421875 C 404.320312 11.164062 404.871094 11.03125 405.519531 11.03125 C 406.582031 11.03125 407.441406 11.453125 408.097656 12.296875 C 408.761719 13.140625 409.097656 14.25 409.097656 15.625 C 409.097656 17 408.761719 18.117188 408.097656 18.96875 C 407.441406 19.8125 406.582031 20.234375 405.519531 20.234375 C 404.871094 20.234375 404.320312 20.109375 403.863281 19.859375 C 403.402344 19.601562 403.023438 19.210938 402.722656 18.6875 Z M 407.613281 15.625 C 407.613281 14.574219 407.394531 13.746094 406.957031 13.140625 C 406.519531 12.539062 405.917969 12.234375 405.160156 12.234375 C 404.398438 12.234375 403.800781 12.539062 403.363281 13.140625 C 402.933594 13.746094 402.722656 14.574219 402.722656 15.625 C 402.722656 16.6875 402.933594 17.523438 403.363281 18.125 C 403.800781 18.71875 404.398438 19.015625 405.160156 19.015625 C 405.917969 19.015625 406.519531 18.71875 406.957031 18.125 C 407.394531 17.523438 407.613281 16.6875 407.613281 15.625 Z M 418.972656 15.265625 L 418.972656 15.96875 L 412.363281 15.96875 C 412.425781 16.960938 412.722656 17.714844 413.253906 18.234375 C 413.785156 18.746094 414.527344 19 415.488281 19 C 416.039062 19 416.570312 18.933594 417.082031 18.796875 C 417.601562 18.664062 418.117188 18.460938 418.628906 18.1875 L 418.628906 19.546875 C 418.117188 19.765625 417.589844 19.933594 417.050781 20.046875 C 416.507812 20.171875 415.957031 20.234375 415.394531 20.234375 C 413.996094 20.234375 412.894531 19.828125 412.082031 19.015625 C 411.269531 18.195312 410.863281 17.089844 410.863281 15.703125 C 410.863281 14.277344 411.246094 13.140625 412.019531 12.296875 C 412.789062 11.453125 413.832031 11.03125 415.144531 11.03125 C 416.320312 11.03125 417.253906 11.414062 417.941406 12.171875 C 418.628906 12.933594 418.972656 13.964844 418.972656 15.265625 Z M 417.535156 14.84375 C 417.523438 14.054688 417.300781 13.421875 416.863281 12.953125 C 416.433594 12.484375 415.867188 12.25 415.160156 12.25 C 414.355469 12.25 413.714844 12.480469 413.238281 12.9375 C 412.757812 13.386719 412.480469 14.023438 412.410156 14.84375 Z M 427.082031 12.578125 L 427.082031 7.84375 L 428.519531 7.84375 L 428.519531 20 L 427.082031 20 L 427.082031 18.6875 C 426.777344 19.210938 426.398438 19.601562 425.941406 19.859375 C 425.480469 20.109375 424.929688 20.234375 424.285156 20.234375 C 423.222656 20.234375 422.355469 19.8125 421.691406 18.96875 C 421.035156 18.117188 420.707031 17 420.707031 15.625 C 420.707031 14.25 421.035156 13.140625 421.691406 12.296875 C 422.355469 11.453125 423.222656 11.03125 424.285156 11.03125 C 424.929688 11.03125 425.480469 11.164062 425.941406 11.421875 C 426.398438 11.671875 426.777344 12.058594 427.082031 12.578125 Z M 422.191406 15.625 C 422.191406 16.6875 422.402344 17.523438 422.832031 18.125 C 423.269531 18.71875 423.867188 19.015625 424.628906 19.015625 C 425.386719 19.015625 425.988281 18.71875 426.425781 18.125 C 426.863281 17.523438 427.082031 16.6875 427.082031 15.625 C 427.082031 14.574219 426.863281 13.746094 426.425781 13.140625 C 425.988281 12.539062 425.386719 12.234375 424.628906 12.234375 C 423.867188 12.234375 423.269531 12.539062 422.832031 13.140625 C 422.402344 13.746094 422.191406 14.574219 422.191406 15.625 Z M 431.488281 11.25 L 432.925781 11.25 L 432.925781 20 L 431.488281 20 Z M 431.488281 7.84375 L 432.925781 7.84375 L 432.925781 9.65625 L 431.488281 9.65625 Z M 439.902344 15.59375 C 438.746094 15.59375 437.941406 15.730469 437.496094 16 C 437.046875 16.261719 436.824219 16.714844 436.824219 17.359375 C 436.824219 17.871094 436.988281 18.277344 437.324219 18.578125 C 437.65625 18.871094 438.113281 19.015625 438.699219 19.015625 C 439.488281 19.015625 440.125 18.734375 440.605469 18.171875 C 441.09375 17.609375 441.339844 16.859375 441.339844 15.921875 L 441.339844 15.59375 Z M 442.777344 15 L 442.777344 20 L 441.339844 20 L 441.339844 18.671875 C 441.003906 19.203125 440.59375 19.601562 440.105469 19.859375 C 439.613281 20.109375 439.015625 20.234375 438.308594 20.234375 C 437.410156 20.234375 436.699219 19.984375 436.167969 19.484375 C 435.644531 18.976562 435.386719 18.296875 435.386719 17.453125 C 435.386719 16.464844 435.714844 15.71875 436.371094 15.21875 C 437.027344 14.71875 438.011719 14.46875 439.324219 14.46875 L 441.339844 14.46875 L 441.339844 14.328125 C 441.339844 13.671875 441.121094 13.164062 440.683594 12.796875 C 440.246094 12.433594 439.636719 12.25 438.855469 12.25 C 438.355469 12.25 437.863281 12.3125 437.386719 12.4375 C 436.917969 12.554688 436.464844 12.730469 436.027344 12.96875 L 436.027344 11.640625 C 436.546875 11.445312 437.050781 11.292969 437.542969 11.1875 C 438.042969 11.085938 438.527344 11.03125 438.996094 11.03125 C 440.265625 11.03125 441.214844 11.359375 441.839844 12.015625 C 442.464844 12.671875 442.777344 13.667969 442.777344 15 Z M 445.941406 18.015625 L 447.582031 18.015625 L 447.582031 20 L 445.941406 20 Z M 454.214844 12.25 C 453.441406 12.25 452.832031 12.554688 452.386719 13.15625 C 451.9375 13.761719 451.714844 14.585938 451.714844 15.625 C 451.714844 16.679688 451.933594 17.507812 452.371094 18.109375 C 452.816406 18.703125 453.433594 19 454.214844 19 C 454.972656 19 455.578125 18.699219 456.027344 18.09375 C 456.472656 17.492188 456.699219 16.667969 456.699219 15.625 C 456.699219 14.59375 456.472656 13.777344 456.027344 13.171875 C 455.578125 12.558594 454.972656 12.25 454.214844 12.25 Z M 454.214844 11.03125 C 455.464844 11.03125 456.441406 11.4375 457.152344 12.25 C 457.871094 13.0625 458.230469 14.1875 458.230469 15.625 C 458.230469 17.0625 457.871094 18.195312 457.152344 19.015625 C 456.441406 19.828125 455.464844 20.234375 454.214844 20.234375 C 452.953125 20.234375 451.96875 19.828125 451.261719 19.015625 C 450.550781 18.195312 450.199219 17.0625 450.199219 15.625 C 450.199219 14.1875 450.550781 13.0625 451.261719 12.25 C 451.96875 11.4375 452.953125 11.03125 454.214844 11.03125 Z M 465.675781 12.59375 C 465.519531 12.5 465.339844 12.433594 465.144531 12.390625 C 464.957031 12.339844 464.746094 12.3125 464.519531 12.3125 C 463.707031 12.3125 463.082031 12.578125 462.644531 13.109375 C 462.214844 13.640625 462.003906 14.402344 462.003906 15.390625 L 462.003906 20 L 460.550781 20 L 460.550781 11.25 L 462.003906 11.25 L 462.003906 12.609375 C 462.304688 12.078125 462.695312 11.683594 463.175781 11.421875 C 463.664062 11.164062 464.253906 11.03125 464.941406 11.03125 C 465.042969 11.03125 465.152344 11.042969 465.269531 11.0625 C 465.394531 11.074219 465.527344 11.089844 465.675781 11.109375 Z M 472.660156 15.515625 C 472.660156 14.476562 472.445312 13.667969 472.019531 13.09375 C 471.589844 12.523438 470.988281 12.234375 470.207031 12.234375 C 469.433594 12.234375 468.835938 12.523438 468.410156 13.09375 C 467.980469 13.667969 467.769531 14.476562 467.769531 15.515625 C 467.769531 16.558594 467.980469 17.367188 468.410156 17.9375 C 468.835938 18.511719 469.433594 18.796875 470.207031 18.796875 C 470.988281 18.796875 471.589844 18.511719 472.019531 17.9375 C 472.445312 17.367188 472.660156 16.558594 472.660156 15.515625 Z M 474.097656 18.90625 C 474.097656 20.40625 473.761719 21.515625 473.097656 22.234375 C 472.441406 22.960938 471.429688 23.328125 470.066406 23.328125 C 469.566406 23.328125 469.089844 23.289062 468.644531 23.21875 C 468.195312 23.144531 467.757812 23.03125 467.332031 22.875 L 467.332031 21.46875 C 467.757812 21.695312 468.175781 21.863281 468.582031 21.96875 C 468.996094 22.082031 469.417969 22.140625 469.847656 22.140625 C 470.785156 22.140625 471.488281 21.894531 471.957031 21.40625 C 472.425781 20.914062 472.660156 20.171875 472.660156 19.171875 L 472.660156 18.453125 C 472.367188 18.976562 471.988281 19.367188 471.519531 19.625 C 471.058594 19.875 470.507812 20 469.863281 20 C 468.789062 20 467.925781 19.59375 467.269531 18.78125 C 466.613281 17.960938 466.285156 16.871094 466.285156 15.515625 C 466.285156 14.164062 466.613281 13.078125 467.269531 12.265625 C 467.925781 11.445312 468.789062 11.03125 469.863281 11.03125 C 470.507812 11.03125 471.058594 11.164062 471.519531 11.421875 C 471.988281 11.671875 472.367188 12.058594 472.660156 12.578125 L 472.660156 11.25 L 474.097656 11.25 Z M 24.449219 5.148438 "/>
<path style="fill-rule:nonzero;fill:rgb(20.392157%,65.882353%,32.54902%);fill-opacity:1;stroke-width:2;stroke-linecap:butt;stroke-linejoin:miter;stroke:rgb(100%,100%,100%);stroke-opacity:1;stroke-miterlimit:10;" d="M 110 60 C 110 76.570312 96.570312 90 80 90 C 63.429688 90 50 76.570312 50 60 C 50 43.429688 63.429688 30 80 30 C 96.570312 30 110 43.429688 110 60 "/>
<path style=" stroke:none;fill-rule:nonzero;fill:rgb(100%,100%,100%);fill-opacity:1;" d="M 70.476562 65.734375 L 70.476562 63.578125 C 70.953125 63.808594 71.414062 63.980469 71.851562 64.09375 C 72.289062 64.199219 72.71875 64.25 73.148438 64.25 C 74.042969 64.25 74.742188 64.007812 75.242188 63.515625 C 75.742188 63.015625 76.03125 62.277344 76.117188 61.296875 C 75.761719 61.558594 75.382812 61.757812 74.976562 61.890625 C 74.578125 62.015625 74.148438 62.078125 73.679688 62.078125 C 72.492188 62.078125 71.527344 61.730469 70.789062 61.03125 C 70.058594 60.335938 69.695312 59.417969 69.695312 58.28125 C 69.695312 57.03125 70.101562 56.03125 70.914062 55.28125 C 71.734375 54.523438 72.828125 54.140625 74.195312 54.140625 C 75.714844 54.140625 76.890625 54.65625 77.726562 55.6875 C 78.558594 56.710938 78.976562 58.15625 78.976562 60.03125 C 78.976562 61.960938 78.484375 63.476562 77.507812 64.578125 C 76.539062 65.683594 75.203125 66.234375 73.507812 66.234375 C 72.964844 66.234375 72.445312 66.191406 71.945312 66.109375 C 71.445312 66.023438 70.953125 65.902344 70.476562 65.734375 Z M 74.179688 60.125 C 74.710938 60.125 75.105469 59.953125 75.367188 59.609375 C 75.636719 59.265625 75.773438 58.757812 75.773438 58.078125 C 75.773438 57.402344 75.636719 56.890625 75.367188 56.546875 C 75.105469 56.203125 74.710938 56.03125 74.179688 56.03125 C 73.65625 56.03125 73.261719 56.203125 72.992188 56.546875 C 72.730469 56.890625 72.601562 57.402344 72.601562 58.078125 C 72.601562 58.757812 72.730469 59.265625 72.992188 59.609375 C 73.261719 59.953125 73.65625 60.125 74.179688 60.125 Z M 85.578125 60.78125 C 85.015625 60.78125 84.582031 60.9375 84.28125 61.25 C 83.976562 61.554688 83.828125 61.992188 83.828125 62.5625 C 83.828125 63.136719 83.976562 63.574219 84.28125 63.875 C 84.582031 64.179688 85.015625 64.328125 85.578125 64.328125 C 86.128906 64.328125 86.550781 64.179688 86.84375 63.875 C 87.144531 63.574219 87.296875 63.136719 87.296875 62.5625 C 87.296875 61.980469 87.144531 61.539062 86.84375 61.234375 C 86.550781 60.933594 86.128906 60.78125 85.578125 60.78125 Z M 83.375 59.78125 C 82.664062 59.574219 82.128906 59.25 81.765625 58.8125 C 81.410156 58.367188 81.234375 57.808594 81.234375 57.140625 C 81.234375 56.164062 81.597656 55.417969 82.328125 54.90625 C 83.066406 54.386719 84.148438 54.125 85.578125 54.125 C 86.984375 54.125 88.050781 54.382812 88.78125 54.890625 C 89.519531 55.402344 89.890625 56.152344 89.890625 57.140625 C 89.890625 57.808594 89.707031 58.367188 89.34375 58.8125 C 88.988281 59.25 88.457031 59.574219 87.75 59.78125 C 88.539062 60 89.132812 60.359375 89.53125 60.859375 C 89.9375 61.351562 90.140625 61.96875 90.140625 62.71875 C 90.140625 63.875 89.753906 64.75 88.984375 65.34375 C 88.222656 65.9375 87.085938 66.234375 85.578125 66.234375 C 84.054688 66.234375 82.910156 65.9375 82.140625 65.34375 C 81.367188 64.75 80.984375 63.875 80.984375 62.71875 C 80.984375 61.96875 81.179688 61.351562 81.578125 60.859375 C 81.984375 60.359375 82.582031 60 83.375 59.78125 Z M 84.078125 57.453125 C 84.078125 57.914062 84.207031 58.265625 84.46875 58.515625 C 84.726562 58.765625 85.097656 58.890625 85.578125 58.890625 C 86.046875 58.890625 86.40625 58.765625 86.65625 58.515625 C 86.914062 58.265625 87.046875 57.914062 87.046875 57.453125 C 87.046875 56.984375 86.914062 56.632812 86.65625 56.390625 C 86.40625 56.140625 86.046875 56.015625 85.578125 56.015625 C 85.097656 56.015625 84.726562 56.140625 84.46875 56.390625 C 84.207031 56.640625 84.078125 56.996094 84.078125 57.453125 Z M 68.867188 51.148438 "/>
<path style=" stroke:none;fill-rule:nonzero;fill:rgb(100%,100%,100%);fill-opacity:1;" d="M 38.390625 95.921875 L 38.390625 99.765625 L 40.125 99.765625 C 40.769531 99.765625 41.269531 99.601562 41.625 99.265625 C 41.976562 98.933594 42.15625 98.460938 42.15625 97.84375 C 42.15625 97.230469 41.976562 96.757812 41.625 96.421875 C 41.269531 96.089844 40.769531 95.921875 40.125 95.921875 Z M 37.015625 94.796875 L 40.125 94.796875 C 41.269531 94.796875 42.132812 95.058594 42.71875 95.578125 C 43.3125 96.089844 43.609375 96.84375 43.609375 97.84375 C 43.609375 98.855469 43.3125 99.617188 42.71875 100.125 C 42.132812 100.636719 41.269531 100.890625 40.125 100.890625 L 38.390625 100.890625 L 38.390625 105 L 37.015625 105 Z M 51.460938 100.859375 L 51.460938 101.46875 L 45.664062 101.46875 C 45.726562 102.335938 45.984375 102.996094 46.445312 103.453125 C 46.914062 103.902344 47.5625 104.125 48.398438 104.125 C 48.886719 104.125 49.355469 104.070312 49.804688 103.953125 C 50.261719 103.839844 50.714844 103.664062 51.164062 103.421875 L 51.164062 104.609375 C 50.703125 104.796875 50.234375 104.945312 49.757812 105.046875 C 49.289062 105.148438 48.8125 105.203125 48.335938 105.203125 C 47.105469 105.203125 46.132812 104.851562 45.414062 104.140625 C 44.703125 103.421875 44.351562 102.460938 44.351562 101.25 C 44.351562 99.992188 44.6875 98.996094 45.367188 98.265625 C 46.042969 97.527344 46.960938 97.15625 48.117188 97.15625 C 49.148438 97.15625 49.960938 97.492188 50.554688 98.15625 C 51.15625 98.8125 51.460938 99.714844 51.460938 100.859375 Z M 50.195312 100.484375 C 50.183594 99.796875 49.992188 99.25 49.617188 98.84375 C 49.242188 98.429688 48.746094 98.21875 48.132812 98.21875 C 47.421875 98.21875 46.855469 98.421875 46.429688 98.828125 C 46.011719 99.226562 45.773438 99.78125 45.710938 100.5 Z M 57.945312 98.515625 C 57.808594 98.433594 57.65625 98.375 57.492188 98.34375 C 57.324219 98.304688 57.140625 98.28125 56.945312 98.28125 C 56.226562 98.28125 55.671875 98.515625 55.289062 98.984375 C 54.914062 99.445312 54.726562 100.105469 54.726562 100.96875 L 54.726562 105 L 53.460938 105 L 53.460938 97.34375 L 54.726562 97.34375 L 54.726562 98.53125 C 54.996094 98.0625 55.339844 97.71875 55.757812 97.5 C 56.183594 97.273438 56.699219 97.15625 57.304688 97.15625 C 57.398438 97.15625 57.496094 97.164062 57.601562 97.171875 C 57.703125 97.183594 57.820312 97.203125 57.945312 97.234375 Z M 63.15625 94.359375 L 63.15625 95.40625 L 61.953125 95.40625 C 61.492188 95.40625 61.175781 95.5 61 95.6875 C 60.832031 95.867188 60.75 96.195312 60.75 96.671875 L 60.75 97.34375 L 62.8125 97.34375 L 62.8125 98.328125 L 60.75 98.328125 L 60.75 105 L 59.484375 105 L 59.484375 98.328125 L 58.28125 98.328125 L 58.28125 97.34375 L 59.484375 97.34375 L 59.484375 96.8125 C 59.484375 95.960938 59.679688 95.339844 60.078125 94.953125 C 60.472656 94.558594 61.097656 94.359375 61.953125 94.359375 Z M 67.164062 98.21875 C 66.496094 98.21875 65.964844 98.484375 65.570312 99.015625 C 65.171875 99.539062 64.976562 100.257812 64.976562 101.171875 C 64.976562 102.089844 65.167969 102.8125 65.554688 103.34375 C 65.949219 103.867188 66.484375 104.125 67.164062 104.125 C 67.839844 104.125 68.371094 103.867188 68.757812 103.34375 C 69.152344 102.8125 69.351562 102.089844 69.351562 101.171875 C 69.351562 100.265625 69.152344 99.546875 68.757812 99.015625 C 68.371094 98.484375 67.839844 98.21875 67.164062 98.21875 Z M 67.164062 97.15625 C 68.257812 97.15625 69.117188 97.515625 69.742188 98.234375 C 70.367188 98.945312 70.679688 99.921875 70.679688 101.171875 C 70.679688 102.433594 70.367188 103.421875 69.742188 104.140625 C 69.117188 104.851562 68.257812 105.203125 67.164062 105.203125 C 66.070312 105.203125 65.210938 104.851562 64.585938 104.140625 C 63.960938 103.421875 63.648438 102.433594 63.648438 101.171875 C 63.648438 99.921875 63.960938 98.945312 64.585938 98.234375 C 65.210938 97.515625 66.070312 97.15625 67.164062 97.15625 Z M 77.195312 98.515625 C 77.058594 98.433594 76.90625 98.375 76.742188 98.34375 C 76.574219 98.304688 76.390625 98.28125 76.195312 98.28125 C 75.476562 98.28125 74.921875 98.515625 74.539062 98.984375 C 74.164062 99.445312 73.976562 100.105469 73.976562 100.96875 L 73.976562 105 L 72.710938 105 L 72.710938 97.34375 L 73.976562 97.34375 L 73.976562 98.53125 C 74.246094 98.0625 74.589844 97.71875 75.007812 97.5 C 75.433594 97.273438 75.949219 97.15625 76.554688 97.15625 C 76.648438 97.15625 76.746094 97.164062 76.851562 97.171875 C 76.953125 97.183594 77.070312 97.203125 77.195312 97.234375 Z M 84.238281 98.8125 C 84.550781 98.25 84.925781 97.835938 85.363281 97.5625 C 85.800781 97.292969 86.316406 97.15625 86.910156 97.15625 C 87.710938 97.15625 88.324219 97.4375 88.753906 98 C 89.191406 98.554688 89.410156 99.34375 89.410156 100.375 L 89.410156 105 L 88.144531 105 L 88.144531 100.421875 C 88.144531 99.683594 88.011719 99.136719 87.753906 98.78125 C 87.492188 98.429688 87.097656 98.25 86.566406 98.25 C 85.910156 98.25 85.394531 98.46875 85.019531 98.90625 C 84.644531 99.335938 84.457031 99.921875 84.457031 100.671875 L 84.457031 105 L 83.191406 105 L 83.191406 100.421875 C 83.191406 99.683594 83.058594 99.136719 82.800781 98.78125 C 82.539062 98.429688 82.136719 98.25 81.597656 98.25 C 80.949219 98.25 80.433594 98.46875 80.050781 98.90625 C 79.675781 99.34375 79.488281 99.933594 79.488281 100.671875 L 79.488281 105 L 78.222656 105 L 78.222656 97.34375 L 79.488281 97.34375 L 79.488281 98.53125 C 79.777344 98.0625 80.121094 97.71875 80.519531 97.5 C 80.925781 97.273438 81.402344 97.15625 81.957031 97.15625 C 82.507812 97.15625 82.976562 97.296875 83.363281 97.578125 C 83.757812 97.859375 84.050781 98.273438 84.238281 98.8125 Z M 95.390625 101.15625 C 94.378906 101.15625 93.675781 101.273438 93.28125 101.5 C 92.882812 101.730469 92.6875 102.125 92.6875 102.6875 C 92.6875 103.136719 92.832031 103.492188 93.125 103.75 C 93.425781 104.011719 93.828125 104.140625 94.328125 104.140625 C 95.023438 104.140625 95.582031 103.898438 96 103.40625 C 96.425781 102.90625 96.640625 102.25 96.640625 101.4375 L 96.640625 101.15625 Z M 97.90625 100.625 L 97.90625 105 L 96.640625 105 L 96.640625 103.84375 C 96.359375 104.304688 96 104.648438 95.5625 104.875 C 95.132812 105.09375 94.613281 105.203125 94 105.203125 C 93.21875 105.203125 92.59375 104.984375 92.125 104.546875 C 91.664062 104.101562 91.4375 103.507812 91.4375 102.765625 C 91.4375 101.914062 91.722656 101.265625 92.296875 100.828125 C 92.878906 100.390625 93.738281 100.171875 94.875 100.171875 L 96.640625 100.171875 L 96.640625 100.046875 C 96.640625 99.464844 96.445312 99.015625 96.0625 98.703125 C 95.6875 98.382812 95.15625 98.21875 94.46875 98.21875 C 94.03125 98.21875 93.601562 98.277344 93.1875 98.390625 C 92.769531 98.496094 92.375 98.652344 92 98.859375 L 92 97.6875 C 92.457031 97.511719 92.898438 97.382812 93.328125 97.296875 C 93.765625 97.203125 94.1875 97.15625 94.59375 97.15625 C 95.707031 97.15625 96.535156 97.445312 97.078125 98.015625 C 97.628906 98.589844 97.90625 99.460938 97.90625 100.625 Z M 106.859375 100.375 L 106.859375 105 L 105.59375 105 L 105.59375 100.421875 C 105.59375 99.695312 105.453125 99.152344 105.171875 98.796875 C 104.890625 98.433594 104.46875 98.25 103.90625 98.25 C 103.226562 98.25 102.691406 98.46875 102.296875 98.90625 C 101.898438 99.335938 101.703125 99.921875 101.703125 100.671875 L 101.703125 105 L 100.4375 105 L 100.4375 97.34375 L 101.703125 97.34375 L 101.703125 98.53125 C 102.003906 98.074219 102.359375 97.730469 102.765625 97.5 C 103.179688 97.273438 103.65625 97.15625 104.1875 97.15625 C 105.0625 97.15625 105.722656 97.433594 106.171875 97.984375 C 106.628906 98.527344 106.859375 99.324219 106.859375 100.375 Z M 114.875 97.640625 L 114.875 98.8125 C 114.519531 98.617188 114.160156 98.46875 113.796875 98.375 C 113.441406 98.273438 113.082031 98.21875 112.71875 98.21875 C 111.90625 98.21875 111.269531 98.480469 110.8125 99 C 110.363281 99.523438 110.140625 100.246094 110.140625 101.171875 C 110.140625 102.109375 110.363281 102.839844 110.8125 103.359375 C 111.269531 103.871094 111.90625 104.125 112.71875 104.125 C 113.082031 104.125 113.441406 104.078125 113.796875 103.984375 C 114.160156 103.890625 114.519531 103.746094 114.875 103.546875 L 114.875 104.703125 C 114.519531 104.871094 114.15625 104.996094 113.78125 105.078125 C 113.40625 105.160156 113.007812 105.203125 112.59375 105.203125 C 111.4375 105.203125 110.515625 104.84375 109.828125 104.125 C 109.148438 103.398438 108.8125 102.414062 108.8125 101.171875 C 108.8125 99.933594 109.15625 98.953125 109.84375 98.234375 C 110.53125 97.515625 111.472656 97.15625 112.671875 97.15625 C 113.054688 97.15625 113.429688 97.199219 113.796875 97.28125 C 114.171875 97.355469 114.53125 97.476562 114.875 97.640625 Z M 123.617188 100.859375 L 123.617188 101.46875 L 117.820312 101.46875 C 117.882812 102.335938 118.140625 102.996094 118.601562 103.453125 C 119.070312 103.902344 119.71875 104.125 120.554688 104.125 C 121.042969 104.125 121.511719 104.070312 121.960938 103.953125 C 122.417969 103.839844 122.871094 103.664062 123.320312 103.421875 L 123.320312 104.609375 C 122.859375 104.796875 122.390625 104.945312 121.914062 105.046875 C 121.445312 105.148438 120.96875 105.203125 120.492188 105.203125 C 119.261719 105.203125 118.289062 104.851562 117.570312 104.140625 C 116.859375 103.421875 116.507812 102.460938 116.507812 101.25 C 116.507812 99.992188 116.84375 98.996094 117.523438 98.265625 C 118.199219 97.527344 119.117188 97.15625 120.273438 97.15625 C 121.304688 97.15625 122.117188 97.492188 122.710938 98.15625 C 123.3125 98.8125 123.617188 99.714844 123.617188 100.859375 Z M 122.351562 100.484375 C 122.339844 99.796875 122.148438 99.25 121.773438 98.84375 C 121.398438 98.429688 120.902344 98.21875 120.289062 98.21875 C 119.578125 98.21875 119.011719 98.421875 118.585938 98.828125 C 118.167969 99.226562 117.929688 99.78125 117.867188 100.5 Z M 35.640625 92.003906 "/>
<path style="fill-rule:nonzero;fill:rgb(20.392157%,65.882353%,32.54902%);fill-opacity:1;stroke-width:2;stroke-linecap:butt;stroke-linejoin:miter;stroke:rgb(100%,100%,100%);stroke-opacity:1;stroke-miterlimit:10;" d="M 230 60 C 230 76.570312 216.570312 90 200 90 C 183.429688 90 170 76.570312 170 60 C 170 43.429688 183.429688 30 200 30 C 216.570312 30 230 43.429688 230 60 "/>
<path style=" stroke:none;fill-rule:nonzero;fill:rgb(100%,100%,100%);fill-opacity:1;" d="M 190.476562 65.734375 L 190.476562 63.578125 C 190.953125 63.808594 191.414062 63.980469 191.851562 64.09375 C 192.289062 64.199219 192.71875 64.25 193.148438 64.25 C 194.042969 64.25 194.742188 64.007812 195.242188 63.515625 C 195.742188 63.015625 196.03125 62.277344 196.117188 61.296875 C 195.761719 61.558594 195.382812 61.757812 194.976562 61.890625 C 194.578125 62.015625 194.148438 62.078125 193.679688 62.078125 C 192.492188 62.078125 191.527344 61.730469 190.789062 61.03125 C 190.058594 60.335938 189.695312 59.417969 189.695312 58.28125 C 189.695312 57.03125 190.101562 56.03125 190.914062 55.28125 C 191.734375 54.523438 192.828125 54.140625 194.195312 54.140625 C 195.714844 54.140625 196.890625 54.65625 197.726562 55.6875 C 198.558594 56.710938 198.976562 58.15625 198.976562 60.03125 C 198.976562 61.960938 198.484375 63.476562 197.507812 64.578125 C 196.539062 65.683594 195.203125 66.234375 193.507812 66.234375 C 192.964844 66.234375 192.445312 66.191406 191.945312 66.109375 C 191.445312 66.023438 190.953125 65.902344 190.476562 65.734375 Z M 194.179688 60.125 C 194.710938 60.125 195.105469 59.953125 195.367188 59.609375 C 195.636719 59.265625 195.773438 58.757812 195.773438 58.078125 C 195.773438 57.402344 195.636719 56.890625 195.367188 56.546875 C 195.105469 56.203125 194.710938 56.03125 194.179688 56.03125 C 193.65625 56.03125 193.261719 56.203125 192.992188 56.546875 C 192.730469 56.890625 192.601562 57.402344 192.601562 58.078125 C 192.601562 58.757812 192.730469 59.265625 192.992188 59.609375 C 193.261719 59.953125 193.65625 60.125 194.179688 60.125 Z M 205.796875 60.234375 C 205.265625 60.234375 204.867188 60.40625 204.609375 60.75 C 204.347656 61.09375 204.21875 61.605469 204.21875 62.28125 C 204.21875 62.96875 204.347656 63.484375 204.609375 63.828125 C 204.867188 64.164062 205.265625 64.328125 205.796875 64.328125 C 206.328125 64.328125 206.722656 64.164062 206.984375 63.828125 C 207.242188 63.484375 207.375 62.96875 207.375 62.28125 C 207.375 61.605469 207.242188 61.09375 206.984375 60.75 C 206.722656 60.40625 206.328125 60.234375 205.796875 60.234375 Z M 209.515625 54.640625 L 209.515625 56.796875 C 209.015625 56.558594 208.546875 56.386719 208.109375 56.28125 C 207.671875 56.167969 207.242188 56.109375 206.828125 56.109375 C 205.929688 56.109375 205.234375 56.359375 204.734375 56.859375 C 204.234375 57.351562 203.941406 58.085938 203.859375 59.0625 C 204.203125 58.8125 204.570312 58.625 204.96875 58.5 C 205.375 58.367188 205.816406 58.296875 206.296875 58.296875 C 207.484375 58.296875 208.441406 58.648438 209.171875 59.34375 C 209.910156 60.042969 210.28125 60.960938 210.28125 62.09375 C 210.28125 63.34375 209.867188 64.351562 209.046875 65.109375 C 208.234375 65.859375 207.140625 66.234375 205.765625 66.234375 C 204.242188 66.234375 203.066406 65.726562 202.234375 64.703125 C 201.410156 63.671875 201 62.214844 201 60.328125 C 201 58.402344 201.484375 56.890625 202.453125 55.796875 C 203.421875 54.695312 204.753906 54.140625 206.453125 54.140625 C 206.984375 54.140625 207.5 54.183594 208 54.265625 C 208.507812 54.351562 209.015625 54.476562 209.515625 54.640625 Z M 188.867188 51.148438 "/>
<path style=" stroke:none;fill-rule:nonzero;fill:rgb(100%,100%,100%);fill-opacity:1;" d="M 161.707031 96.15625 L 159.832031 101.234375 L 163.597656 101.234375 Z M 160.925781 94.796875 L 162.503906 94.796875 L 166.394531 105 L 164.957031 105 L 164.019531 102.375 L 159.425781 102.375 L 158.488281 105 L 157.035156 105 Z M 173.085938 97.640625 L 173.085938 98.8125 C 172.730469 98.617188 172.371094 98.46875 172.007812 98.375 C 171.652344 98.273438 171.292969 98.21875 170.929688 98.21875 C 170.117188 98.21875 169.480469 98.480469 169.023438 99 C 168.574219 99.523438 168.351562 100.246094 168.351562 101.171875 C 168.351562 102.109375 168.574219 102.839844 169.023438 103.359375 C 169.480469 103.871094 170.117188 104.125 170.929688 104.125 C 171.292969 104.125 171.652344 104.078125 172.007812 103.984375 C 172.371094 103.890625 172.730469 103.746094 173.085938 103.546875 L 173.085938 104.703125 C 172.730469 104.871094 172.367188 104.996094 171.992188 105.078125 C 171.617188 105.160156 171.21875 105.203125 170.804688 105.203125 C 169.648438 105.203125 168.726562 104.84375 168.039062 104.125 C 167.359375 103.398438 167.023438 102.414062 167.023438 101.171875 C 167.023438 99.933594 167.367188 98.953125 168.054688 98.234375 C 168.742188 97.515625 169.683594 97.15625 170.882812 97.15625 C 171.265625 97.15625 171.640625 97.199219 172.007812 97.28125 C 172.382812 97.355469 172.742188 97.476562 173.085938 97.640625 Z M 180.78125 97.640625 L 180.78125 98.8125 C 180.425781 98.617188 180.066406 98.46875 179.703125 98.375 C 179.347656 98.273438 178.988281 98.21875 178.625 98.21875 C 177.8125 98.21875 177.175781 98.480469 176.71875 99 C 176.269531 99.523438 176.046875 100.246094 176.046875 101.171875 C 176.046875 102.109375 176.269531 102.839844 176.71875 103.359375 C 177.175781 103.871094 177.8125 104.125 178.625 104.125 C 178.988281 104.125 179.347656 104.078125 179.703125 103.984375 C 180.066406 103.890625 180.425781 103.746094 180.78125 103.546875 L 180.78125 104.703125 C 180.425781 104.871094 180.0625 104.996094 179.6875 105.078125 C 179.3125 105.160156 178.914062 105.203125 178.5 105.203125 C 177.34375 105.203125 176.421875 104.84375 175.734375 104.125 C 175.054688 103.398438 174.71875 102.414062 174.71875 101.171875 C 174.71875 99.933594 175.0625 98.953125 175.75 98.234375 C 176.4375 97.515625 177.378906 97.15625 178.578125 97.15625 C 178.960938 97.15625 179.335938 97.199219 179.703125 97.28125 C 180.078125 97.355469 180.4375 97.476562 180.78125 97.640625 Z M 189.527344 100.859375 L 189.527344 101.46875 L 183.730469 101.46875 C 183.792969 102.335938 184.050781 102.996094 184.511719 103.453125 C 184.980469 103.902344 185.628906 104.125 186.464844 104.125 C 186.953125 104.125 187.421875 104.070312 187.871094 103.953125 C 188.328125 103.839844 188.78125 103.664062 189.230469 103.421875 L 189.230469 104.609375 C 188.769531 104.796875 188.300781 104.945312 187.824219 105.046875 C 187.355469 105.148438 186.878906 105.203125 186.402344 105.203125 C 185.171875 105.203125 184.199219 104.851562 183.480469 104.140625 C 182.769531 103.421875 182.417969 102.460938 182.417969 101.25 C 182.417969 99.992188 182.753906 98.996094 183.433594 98.265625 C 184.109375 97.527344 185.027344 97.15625 186.183594 97.15625 C 187.214844 97.15625 188.027344 97.492188 188.621094 98.15625 C 189.222656 98.8125 189.527344 99.714844 189.527344 100.859375 Z M 188.261719 100.484375 C 188.25 99.796875 188.058594 99.25 187.683594 98.84375 C 187.308594 98.429688 186.8125 98.21875 186.199219 98.21875 C 185.488281 98.21875 184.921875 98.421875 184.496094 98.828125 C 184.078125 99.226562 183.839844 99.78125 183.777344 100.5 Z M 196.46875 97.5625 L 196.46875 98.765625 C 196.113281 98.578125 195.742188 98.445312 195.359375 98.359375 C 194.972656 98.265625 194.578125 98.21875 194.171875 98.21875 C 193.546875 98.21875 193.078125 98.3125 192.765625 98.5 C 192.453125 98.6875 192.296875 98.976562 192.296875 99.359375 C 192.296875 99.652344 192.40625 99.882812 192.625 100.046875 C 192.851562 100.214844 193.304688 100.371094 193.984375 100.515625 L 194.40625 100.625 C 195.300781 100.8125 195.9375 101.085938 196.3125 101.4375 C 196.6875 101.78125 196.875 102.265625 196.875 102.890625 C 196.875 103.601562 196.59375 104.164062 196.03125 104.578125 C 195.46875 104.996094 194.695312 105.203125 193.71875 105.203125 C 193.300781 105.203125 192.867188 105.160156 192.421875 105.078125 C 191.984375 104.996094 191.519531 104.875 191.03125 104.71875 L 191.03125 103.421875 C 191.488281 103.664062 191.941406 103.84375 192.390625 103.96875 C 192.847656 104.085938 193.296875 104.140625 193.734375 104.140625 C 194.328125 104.140625 194.78125 104.042969 195.09375 103.84375 C 195.414062 103.636719 195.578125 103.351562 195.578125 102.984375 C 195.578125 102.640625 195.460938 102.382812 195.234375 102.203125 C 195.003906 102.015625 194.5 101.839844 193.71875 101.671875 L 193.28125 101.5625 C 192.507812 101.40625 191.945312 101.15625 191.59375 100.8125 C 191.25 100.46875 191.078125 100.007812 191.078125 99.421875 C 191.078125 98.695312 191.332031 98.136719 191.84375 97.75 C 192.351562 97.355469 193.078125 97.15625 194.015625 97.15625 C 194.484375 97.15625 194.921875 97.195312 195.328125 97.265625 C 195.742188 97.328125 196.125 97.429688 196.46875 97.5625 Z M 203.761719 97.5625 L 203.761719 98.765625 C 203.40625 98.578125 203.035156 98.445312 202.652344 98.359375 C 202.265625 98.265625 201.871094 98.21875 201.464844 98.21875 C 200.839844 98.21875 200.371094 98.3125 200.058594 98.5 C 199.746094 98.6875 199.589844 98.976562 199.589844 99.359375 C 199.589844 99.652344 199.699219 99.882812 199.917969 100.046875 C 200.144531 100.214844 200.597656 100.371094 201.277344 100.515625 L 201.699219 100.625 C 202.59375 100.8125 203.230469 101.085938 203.605469 101.4375 C 203.980469 101.78125 204.167969 102.265625 204.167969 102.890625 C 204.167969 103.601562 203.886719 104.164062 203.324219 104.578125 C 202.761719 104.996094 201.988281 105.203125 201.011719 105.203125 C 200.59375 105.203125 200.160156 105.160156 199.714844 105.078125 C 199.277344 104.996094 198.8125 104.875 198.324219 104.71875 L 198.324219 103.421875 C 198.78125 103.664062 199.234375 103.84375 199.683594 103.96875 C 200.140625 104.085938 200.589844 104.140625 201.027344 104.140625 C 201.621094 104.140625 202.074219 104.042969 202.386719 103.84375 C 202.707031 103.636719 202.871094 103.351562 202.871094 102.984375 C 202.871094 102.640625 202.753906 102.382812 202.527344 102.203125 C 202.296875 102.015625 201.792969 101.839844 201.011719 101.671875 L 200.574219 101.5625 C 199.800781 101.40625 199.238281 101.15625 198.886719 100.8125 C 198.542969 100.46875 198.371094 100.007812 198.371094 99.421875 C 198.371094 98.695312 198.625 98.136719 199.136719 97.75 C 199.644531 97.355469 200.371094 97.15625 201.308594 97.15625 C 201.777344 97.15625 202.214844 97.195312 202.621094 97.265625 C 203.035156 97.328125 203.417969 97.429688 203.761719 97.5625 Z M 206.164062 97.34375 L 207.429688 97.34375 L 207.429688 105 L 206.164062 105 Z M 206.164062 94.359375 L 207.429688 94.359375 L 207.429688 95.953125 L 206.164062 95.953125 Z M 215.554688 101.171875 C 215.554688 100.257812 215.359375 99.539062 214.976562 99.015625 C 214.601562 98.484375 214.078125 98.21875 213.414062 98.21875 C 212.746094 98.21875 212.21875 98.484375 211.835938 99.015625 C 211.460938 99.539062 211.273438 100.257812 211.273438 101.171875 C 211.273438 102.101562 211.460938 102.828125 211.835938 103.359375 C 212.21875 103.882812 212.746094 104.140625 213.414062 104.140625 C 214.078125 104.140625 214.601562 103.882812 214.976562 103.359375 C 215.359375 102.828125 215.554688 102.101562 215.554688 101.171875 Z M 211.273438 98.5 C 211.542969 98.054688 211.875 97.71875 212.273438 97.5 C 212.679688 97.273438 213.164062 97.15625 213.726562 97.15625 C 214.652344 97.15625 215.40625 97.527344 215.992188 98.265625 C 216.574219 99.007812 216.867188 99.976562 216.867188 101.171875 C 216.867188 102.382812 216.574219 103.355469 215.992188 104.09375 C 215.40625 104.835938 214.652344 105.203125 213.726562 105.203125 C 213.164062 105.203125 212.679688 105.09375 212.273438 104.875 C 211.875 104.648438 211.542969 104.304688 211.273438 103.84375 L 211.273438 105 L 210.007812 105 L 210.007812 94.359375 L 211.273438 94.359375 Z M 218.941406 97.34375 L 220.207031 97.34375 L 220.207031 105 L 218.941406 105 Z M 218.941406 94.359375 L 220.207031 94.359375 L 220.207031 95.953125 L 218.941406 95.953125 Z M 222.832031 94.359375 L 224.097656 94.359375 L 224.097656 105 L 222.832031 105 Z M 226.71875 97.34375 L 227.984375 97.34375 L 227.984375 105 L 226.71875 105 Z M 226.71875 94.359375 L 227.984375 94.359375 L 227.984375 95.953125 L 226.71875 95.953125 Z M 231.859375 95.171875 L 231.859375 97.34375 L 234.453125 97.34375 L 234.453125 98.328125 L 231.859375 98.328125 L 231.859375 102.484375 C 231.859375 103.101562 231.941406 103.5 232.109375 103.6875 C 232.285156 103.867188 232.632812 103.953125 233.15625 103.953125 L 234.453125 103.953125 L 234.453125 105 L 233.15625 105 C 232.1875 105 231.515625 104.820312 231.140625 104.453125 C 230.773438 104.089844 230.59375 103.433594 230.59375 102.484375 L 230.59375 98.328125 L 229.671875 98.328125 L 229.671875 97.34375 L 230.59375 97.34375 L 230.59375 95.171875 Z M 239.289062 105.71875 C 238.933594 106.625 238.585938 107.210938 238.242188 107.484375 C 237.90625 107.765625 237.460938 107.90625 236.898438 107.90625 L 235.898438 107.90625 L 235.898438 106.859375 L 236.632812 106.859375 C 236.976562 106.859375 237.242188 106.773438 237.429688 106.609375 C 237.625 106.453125 237.839844 106.066406 238.070312 105.453125 L 238.304688 104.875 L 235.210938 97.34375 L 236.539062 97.34375 L 238.929688 103.328125 L 241.320312 97.34375 L 242.664062 97.34375 Z M 156.925781 92.003906 "/>
<path style="fill-rule:nonzero;fill:rgb(20.392157%,65.882353%,32.54902%);fill-opacity:1;stroke-width:2;stroke-linecap:butt;stroke-linejoin:miter;stroke:rgb(100%,100%,100%);stroke-opacity:1;stroke-miterlimit:10;" d="M 350 60 C 350 76.570312 336.570312 90 320 90 C 303.429688 90 290 76.570312 290 60 C 290 43.429688 303.429688 30 320 30 C 336.570312 30 350 43.429688 350 60 "/>
<path style=" stroke:none;fill-rule:nonzero;fill:rgb(100%,100%,100%);fill-opacity:1;" d="M 305.175781 63.921875 L 307.832031 63.921875 L 307.832031 56.375 L 305.113281 56.9375 L 305.113281 54.890625 L 307.816406 54.328125 L 310.675781 54.328125 L 310.675781 63.921875 L 313.332031 63.921875 L 313.332031 66 L 305.175781 66 Z M 321.792969 60.15625 C 321.792969 58.699219 321.65625 57.671875 321.386719 57.078125 C 321.113281 56.476562 320.65625 56.171875 320.011719 56.171875 C 319.363281 56.171875 318.902344 56.476562 318.621094 57.078125 C 318.347656 57.671875 318.214844 58.699219 318.214844 60.15625 C 318.214844 61.625 318.347656 62.664062 318.621094 63.265625 C 318.902344 63.871094 319.363281 64.171875 320.011719 64.171875 C 320.644531 64.171875 321.097656 63.871094 321.371094 63.265625 C 321.652344 62.664062 321.792969 61.625 321.792969 60.15625 Z M 324.808594 60.171875 C 324.808594 62.109375 324.390625 63.605469 323.558594 64.65625 C 322.722656 65.710938 321.542969 66.234375 320.011719 66.234375 C 318.46875 66.234375 317.28125 65.710938 316.449219 64.65625 C 315.613281 63.605469 315.199219 62.109375 315.199219 60.171875 C 315.199219 58.234375 315.613281 56.746094 316.449219 55.703125 C 317.28125 54.652344 318.46875 54.125 320.011719 54.125 C 321.542969 54.125 322.722656 54.652344 323.558594 55.703125 C 324.390625 56.746094 324.808594 58.234375 324.808594 60.171875 Z M 332.925781 60.15625 C 332.925781 58.699219 332.789062 57.671875 332.519531 57.078125 C 332.246094 56.476562 331.789062 56.171875 331.144531 56.171875 C 330.496094 56.171875 330.035156 56.476562 329.753906 57.078125 C 329.480469 57.671875 329.347656 58.699219 329.347656 60.15625 C 329.347656 61.625 329.480469 62.664062 329.753906 63.265625 C 330.035156 63.871094 330.496094 64.171875 331.144531 64.171875 C 331.777344 64.171875 332.230469 63.871094 332.503906 63.265625 C 332.785156 62.664062 332.925781 61.625 332.925781 60.15625 Z M 335.941406 60.171875 C 335.941406 62.109375 335.523438 63.605469 334.691406 64.65625 C 333.855469 65.710938 332.675781 66.234375 331.144531 66.234375 C 329.601562 66.234375 328.414062 65.710938 327.582031 64.65625 C 326.746094 63.605469 326.332031 62.109375 326.332031 60.171875 C 326.332031 58.234375 326.746094 56.746094 327.582031 55.703125 C 328.414062 54.652344 329.601562 54.125 331.144531 54.125 C 332.675781 54.125 333.855469 54.652344 334.691406 55.703125 C 335.523438 56.746094 335.941406 58.234375 335.941406 60.171875 Z M 303.300781 51.148438 "/>
<path style=" stroke:none;fill-rule:nonzero;fill:rgb(100%,100%,100%);fill-opacity:1;" d="M 273.417969 100.125 L 273.417969 103.859375 L 275.636719 103.859375 C 276.375 103.859375 276.921875 103.710938 277.277344 103.40625 C 277.640625 103.09375 277.824219 102.621094 277.824219 101.984375 C 277.824219 101.351562 277.640625 100.882812 277.277344 100.578125 C 276.921875 100.277344 276.375 100.125 275.636719 100.125 Z M 273.417969 95.921875 L 273.417969 99 L 275.464844 99 C 276.140625 99 276.640625 98.875 276.964844 98.625 C 277.296875 98.375 277.464844 97.992188 277.464844 97.46875 C 277.464844 96.949219 277.296875 96.5625 276.964844 96.3125 C 276.640625 96.054688 276.140625 95.921875 275.464844 95.921875 Z M 272.042969 94.796875 L 275.574219 94.796875 C 276.625 94.796875 277.433594 95.015625 277.996094 95.453125 C 278.566406 95.890625 278.855469 96.511719 278.855469 97.3125 C 278.855469 97.9375 278.707031 98.4375 278.417969 98.8125 C 278.125 99.179688 277.699219 99.40625 277.136719 99.5 C 277.8125 99.648438 278.339844 99.953125 278.714844 100.421875 C 279.089844 100.882812 279.277344 101.453125 279.277344 102.140625 C 279.277344 103.058594 278.964844 103.765625 278.339844 104.265625 C 277.722656 104.757812 276.84375 105 275.699219 105 L 272.042969 105 Z M 288.148438 100.859375 L 288.148438 101.46875 L 282.351562 101.46875 C 282.414062 102.335938 282.671875 102.996094 283.132812 103.453125 C 283.601562 103.902344 284.25 104.125 285.085938 104.125 C 285.574219 104.125 286.042969 104.070312 286.492188 103.953125 C 286.949219 103.839844 287.402344 103.664062 287.851562 103.421875 L 287.851562 104.609375 C 287.390625 104.796875 286.921875 104.945312 286.445312 105.046875 C 285.976562 105.148438 285.5 105.203125 285.023438 105.203125 C 283.792969 105.203125 282.820312 104.851562 282.101562 104.140625 C 281.390625 103.421875 281.039062 102.460938 281.039062 101.25 C 281.039062 99.992188 281.375 98.996094 282.054688 98.265625 C 282.730469 97.527344 283.648438 97.15625 284.804688 97.15625 C 285.835938 97.15625 286.648438 97.492188 287.242188 98.15625 C 287.84375 98.8125 288.148438 99.714844 288.148438 100.859375 Z M 286.882812 100.484375 C 286.871094 99.796875 286.679688 99.25 286.304688 98.84375 C 285.929688 98.429688 285.433594 98.21875 284.820312 98.21875 C 284.109375 98.21875 283.542969 98.421875 283.117188 98.828125 C 282.699219 99.226562 282.460938 99.78125 282.398438 100.5 Z M 295.089844 97.5625 L 295.089844 98.765625 C 294.734375 98.578125 294.363281 98.445312 293.980469 98.359375 C 293.59375 98.265625 293.199219 98.21875 292.792969 98.21875 C 292.167969 98.21875 291.699219 98.3125 291.386719 98.5 C 291.074219 98.6875 290.917969 98.976562 290.917969 99.359375 C 290.917969 99.652344 291.027344 99.882812 291.246094 100.046875 C 291.472656 100.214844 291.925781 100.371094 292.605469 100.515625 L 293.027344 100.625 C 293.921875 100.8125 294.558594 101.085938 294.933594 101.4375 C 295.308594 101.78125 295.496094 102.265625 295.496094 102.890625 C 295.496094 103.601562 295.214844 104.164062 294.652344 104.578125 C 294.089844 104.996094 293.316406 105.203125 292.339844 105.203125 C 291.921875 105.203125 291.488281 105.160156 291.042969 105.078125 C 290.605469 104.996094 290.140625 104.875 289.652344 104.71875 L 289.652344 103.421875 C 290.109375 103.664062 290.5625 103.84375 291.011719 103.96875 C 291.46875 104.085938 291.917969 104.140625 292.355469 104.140625 C 292.949219 104.140625 293.402344 104.042969 293.714844 103.84375 C 294.035156 103.636719 294.199219 103.351562 294.199219 102.984375 C 294.199219 102.640625 294.082031 102.382812 293.855469 102.203125 C 293.625 102.015625 293.121094 101.839844 292.339844 101.671875 L 291.902344 101.5625 C 291.128906 101.40625 290.566406 101.15625 290.214844 100.8125 C 289.871094 100.46875 289.699219 100.007812 289.699219 99.421875 C 289.699219 98.695312 289.953125 98.136719 290.464844 97.75 C 290.972656 97.355469 291.699219 97.15625 292.636719 97.15625 C 293.105469 97.15625 293.542969 97.195312 293.949219 97.265625 C 294.363281 97.328125 294.746094 97.429688 295.089844 97.5625 Z M 298.742188 95.171875 L 298.742188 97.34375 L 301.335938 97.34375 L 301.335938 98.328125 L 298.742188 98.328125 L 298.742188 102.484375 C 298.742188 103.101562 298.824219 103.5 298.992188 103.6875 C 299.167969 103.867188 299.515625 103.953125 300.039062 103.953125 L 301.335938 103.953125 L 301.335938 105 L 300.039062 105 C 299.070312 105 298.398438 104.820312 298.023438 104.453125 C 297.65625 104.089844 297.476562 103.433594 297.476562 102.484375 L 297.476562 98.328125 L 296.554688 98.328125 L 296.554688 97.34375 L 297.476562 97.34375 L 297.476562 95.171875 Z M 308.867188 95.921875 L 308.867188 99.765625 L 310.601562 99.765625 C 311.246094 99.765625 311.746094 99.601562 312.101562 99.265625 C 312.453125 98.933594 312.632812 98.460938 312.632812 97.84375 C 312.632812 97.230469 312.453125 96.757812 312.101562 96.421875 C 311.746094 96.089844 311.246094 95.921875 310.601562 95.921875 Z M 307.492188 94.796875 L 310.601562 94.796875 C 311.746094 94.796875 312.609375 95.058594 313.195312 95.578125 C 313.789062 96.089844 314.085938 96.84375 314.085938 97.84375 C 314.085938 98.855469 313.789062 99.617188 313.195312 100.125 C 312.609375 100.636719 311.746094 100.890625 310.601562 100.890625 L 308.867188 100.890625 L 308.867188 105 L 307.492188 105 Z M 320.066406 98.515625 C 319.929688 98.433594 319.777344 98.375 319.613281 98.34375 C 319.445312 98.304688 319.261719 98.28125 319.066406 98.28125 C 318.347656 98.28125 317.792969 98.515625 317.410156 98.984375 C 317.035156 99.445312 316.847656 100.105469 316.847656 100.96875 L 316.847656 105 L 315.582031 105 L 315.582031 97.34375 L 316.847656 97.34375 L 316.847656 98.53125 C 317.117188 98.0625 317.460938 97.71875 317.878906 97.5 C 318.304688 97.273438 318.820312 97.15625 319.425781 97.15625 C 319.519531 97.15625 319.617188 97.164062 319.722656 97.171875 C 319.824219 97.183594 319.941406 97.203125 320.066406 97.234375 Z M 324.867188 101.15625 C 323.855469 101.15625 323.152344 101.273438 322.757812 101.5 C 322.359375 101.730469 322.164062 102.125 322.164062 102.6875 C 322.164062 103.136719 322.308594 103.492188 322.601562 103.75 C 322.902344 104.011719 323.304688 104.140625 323.804688 104.140625 C 324.5 104.140625 325.058594 103.898438 325.476562 103.40625 C 325.902344 102.90625 326.117188 102.25 326.117188 101.4375 L 326.117188 101.15625 Z M 327.382812 100.625 L 327.382812 105 L 326.117188 105 L 326.117188 103.84375 C 325.835938 104.304688 325.476562 104.648438 325.039062 104.875 C 324.609375 105.09375 324.089844 105.203125 323.476562 105.203125 C 322.695312 105.203125 322.070312 104.984375 321.601562 104.546875 C 321.140625 104.101562 320.914062 103.507812 320.914062 102.765625 C 320.914062 101.914062 321.199219 101.265625 321.773438 100.828125 C 322.355469 100.390625 323.214844 100.171875 324.351562 100.171875 L 326.117188 100.171875 L 326.117188 100.046875 C 326.117188 99.464844 325.921875 99.015625 325.539062 98.703125 C 325.164062 98.382812 324.632812 98.21875 323.945312 98.21875 C 323.507812 98.21875 323.078125 98.277344 322.664062 98.390625 C 322.246094 98.496094 321.851562 98.652344 321.476562 98.859375 L 321.476562 97.6875 C 321.933594 97.511719 322.375 97.382812 322.804688 97.296875 C 323.242188 97.203125 323.664062 97.15625 324.070312 97.15625 C 325.183594 97.15625 326.011719 97.445312 326.554688 98.015625 C 327.105469 98.589844 327.382812 99.460938 327.382812 100.625 Z M 335.476562 97.640625 L 335.476562 98.8125 C 335.121094 98.617188 334.761719 98.46875 334.398438 98.375 C 334.042969 98.273438 333.683594 98.21875 333.320312 98.21875 C 332.507812 98.21875 331.871094 98.480469 331.414062 99 C 330.964844 99.523438 330.742188 100.246094 330.742188 101.171875 C 330.742188 102.109375 330.964844 102.839844 331.414062 103.359375 C 331.871094 103.871094 332.507812 104.125 333.320312 104.125 C 333.683594 104.125 334.042969 104.078125 334.398438 103.984375 C 334.761719 103.890625 335.121094 103.746094 335.476562 103.546875 L 335.476562 104.703125 C 335.121094 104.871094 334.757812 104.996094 334.382812 105.078125 C 334.007812 105.160156 333.609375 105.203125 333.195312 105.203125 C 332.039062 105.203125 331.117188 104.84375 330.429688 104.125 C 329.75 103.398438 329.414062 102.414062 329.414062 101.171875 C 329.414062 99.933594 329.757812 98.953125 330.445312 98.234375 C 331.132812 97.515625 332.074219 97.15625 333.273438 97.15625 C 333.65625 97.15625 334.03125 97.199219 334.398438 97.28125 C 334.773438 97.355469 335.132812 97.476562 335.476562 97.640625 Z M 338.910156 95.171875 L 338.910156 97.34375 L 341.503906 97.34375 L 341.503906 98.328125 L 338.910156 98.328125 L 338.910156 102.484375 C 338.910156 103.101562 338.992188 103.5 339.160156 103.6875 C 339.335938 103.867188 339.683594 103.953125 340.207031 103.953125 L 341.503906 103.953125 L 341.503906 105 L 340.207031 105 C 339.238281 105 338.566406 104.820312 338.191406 104.453125 C 337.824219 104.089844 337.644531 103.433594 337.644531 102.484375 L 337.644531 98.328125 L 336.722656 98.328125 L 336.722656 97.34375 L 337.644531 97.34375 L 337.644531 95.171875 Z M 343.148438 97.34375 L 344.414062 97.34375 L 344.414062 105 L 343.148438 105 Z M 343.148438 94.359375 L 344.414062 94.359375 L 344.414062 95.953125 L 343.148438 95.953125 Z M 352.554688 97.640625 L 352.554688 98.8125 C 352.199219 98.617188 351.839844 98.46875 351.476562 98.375 C 351.121094 98.273438 350.761719 98.21875 350.398438 98.21875 C 349.585938 98.21875 348.949219 98.480469 348.492188 99 C 348.042969 99.523438 347.820312 100.246094 347.820312 101.171875 C 347.820312 102.109375 348.042969 102.839844 348.492188 103.359375 C 348.949219 103.871094 349.585938 104.125 350.398438 104.125 C 350.761719 104.125 351.121094 104.078125 351.476562 103.984375 C 351.839844 103.890625 352.199219 103.746094 352.554688 103.546875 L 352.554688 104.703125 C 352.199219 104.871094 351.835938 104.996094 351.460938 105.078125 C 351.085938 105.160156 350.6875 105.203125 350.273438 105.203125 C 349.117188 105.203125 348.195312 104.84375 347.507812 104.125 C 346.828125 103.398438 346.492188 102.414062 346.492188 101.171875 C 346.492188 99.933594 346.835938 98.953125 347.523438 98.234375 C 348.210938 97.515625 349.152344 97.15625 350.351562 97.15625 C 350.734375 97.15625 351.109375 97.199219 351.476562 97.28125 C 351.851562 97.355469 352.210938 97.476562 352.554688 97.640625 Z M 361.296875 100.859375 L 361.296875 101.46875 L 355.5 101.46875 C 355.5625 102.335938 355.820312 102.996094 356.28125 103.453125 C 356.75 103.902344 357.398438 104.125 358.234375 104.125 C 358.722656 104.125 359.191406 104.070312 359.640625 103.953125 C 360.097656 103.839844 360.550781 103.664062 361 103.421875 L 361 104.609375 C 360.539062 104.796875 360.070312 104.945312 359.59375 105.046875 C 359.125 105.148438 358.648438 105.203125 358.171875 105.203125 C 356.941406 105.203125 355.96875 104.851562 355.25 104.140625 C 354.539062 103.421875 354.1875 102.460938 354.1875 101.25 C 354.1875 99.992188 354.523438 98.996094 355.203125 98.265625 C 355.878906 97.527344 356.796875 97.15625 357.953125 97.15625 C 358.984375 97.15625 359.796875 97.492188 360.390625 98.15625 C 360.992188 98.8125 361.296875 99.714844 361.296875 100.859375 Z M 360.03125 100.484375 C 360.019531 99.796875 359.828125 99.25 359.453125 98.84375 C 359.078125 98.429688 358.582031 98.21875 357.96875 98.21875 C 357.257812 98.21875 356.691406 98.421875 356.265625 98.828125 C 355.847656 99.226562 355.609375 99.78125 355.546875 100.5 Z M 368.242188 97.5625 L 368.242188 98.765625 C 367.886719 98.578125 367.515625 98.445312 367.132812 98.359375 C 366.746094 98.265625 366.351562 98.21875 365.945312 98.21875 C 365.320312 98.21875 364.851562 98.3125 364.539062 98.5 C 364.226562 98.6875 364.070312 98.976562 364.070312 99.359375 C 364.070312 99.652344 364.179688 99.882812 364.398438 100.046875 C 364.625 100.214844 365.078125 100.371094 365.757812 100.515625 L 366.179688 100.625 C 367.074219 100.8125 367.710938 101.085938 368.085938 101.4375 C 368.460938 101.78125 368.648438 102.265625 368.648438 102.890625 C 368.648438 103.601562 368.367188 104.164062 367.804688 104.578125 C 367.242188 104.996094 366.46875 105.203125 365.492188 105.203125 C 365.074219 105.203125 364.640625 105.160156 364.195312 105.078125 C 363.757812 104.996094 363.292969 104.875 362.804688 104.71875 L 362.804688 103.421875 C 363.261719 103.664062 363.714844 103.84375 364.164062 103.96875 C 364.621094 104.085938 365.070312 104.140625 365.507812 104.140625 C 366.101562 104.140625 366.554688 104.042969 366.867188 103.84375 C 367.1875 103.636719 367.351562 103.351562 367.351562 102.984375 C 367.351562 102.640625 367.234375 102.382812 367.007812 102.203125 C 366.777344 102.015625 366.273438 101.839844 365.492188 101.671875 L 365.054688 101.5625 C 364.28125 101.40625 363.71875 101.15625 363.367188 100.8125 C 363.023438 100.46875 362.851562 100.007812 362.851562 99.421875 C 362.851562 98.695312 363.105469 98.136719 363.617188 97.75 C 364.125 97.355469 364.851562 97.15625 365.789062 97.15625 C 366.257812 97.15625 366.695312 97.195312 367.101562 97.265625 C 367.515625 97.328125 367.898438 97.429688 368.242188 97.5625 Z M 270.667969 92.003906 "/>
<path style="fill-rule:nonzero;fill:rgb(20.392157%,65.882353%,32.54902%);fill-opacity:1;stroke-width:2;stroke-linecap:butt;stroke-linejoin:miter;stroke:rgb(100%,100%,100%);stroke-opacity:1;stroke-miterlimit:10;" d="M 470 60 C 470 76.570312 456.570312 90 440 90 C 423.429688 90 410 76.570312 410 60 C 410 43.429688 423.429688 30 440 30 C 456.570312 30 470 43.429688 470 60 "/>
<path style=" stroke:none;fill-rule:nonzero;fill:rgb(100%,100%,100%);fill-opacity:1;" d="M 425.175781 63.921875 L 427.832031 63.921875 L 427.832031 56.375 L 425.113281 56.9375 L 425.113281 54.890625 L 427.816406 54.328125 L 430.675781 54.328125 L 430.675781 63.921875 L 433.332031 63.921875 L 433.332031 66 L 425.175781 66 Z M 441.792969 60.15625 C 441.792969 58.699219 441.65625 57.671875 441.386719 57.078125 C 441.113281 56.476562 440.65625 56.171875 440.011719 56.171875 C 439.363281 56.171875 438.902344 56.476562 438.621094 57.078125 C 438.347656 57.671875 438.214844 58.699219 438.214844 60.15625 C 438.214844 61.625 438.347656 62.664062 438.621094 63.265625 C 438.902344 63.871094 439.363281 64.171875 440.011719 64.171875 C 440.644531 64.171875 441.097656 63.871094 441.371094 63.265625 C 441.652344 62.664062 441.792969 61.625 441.792969 60.15625 Z M 444.808594 60.171875 C 444.808594 62.109375 444.390625 63.605469 443.558594 64.65625 C 442.722656 65.710938 441.542969 66.234375 440.011719 66.234375 C 438.46875 66.234375 437.28125 65.710938 436.449219 64.65625 C 435.613281 63.605469 435.199219 62.109375 435.199219 60.171875 C 435.199219 58.234375 435.613281 56.746094 436.449219 55.703125 C 437.28125 54.652344 438.46875 54.125 440.011719 54.125 C 441.542969 54.125 442.722656 54.652344 443.558594 55.703125 C 444.390625 56.746094 444.808594 58.234375 444.808594 60.171875 Z M 452.925781 60.15625 C 452.925781 58.699219 452.789062 57.671875 452.519531 57.078125 C 452.246094 56.476562 451.789062 56.171875 451.144531 56.171875 C 450.496094 56.171875 450.035156 56.476562 449.753906 57.078125 C 449.480469 57.671875 449.347656 58.699219 449.347656 60.15625 C 449.347656 61.625 449.480469 62.664062 449.753906 63.265625 C 450.035156 63.871094 450.496094 64.171875 451.144531 64.171875 C 451.777344 64.171875 452.230469 63.871094 452.503906 63.265625 C 452.785156 62.664062 452.925781 61.625 452.925781 60.15625 Z M 455.941406 60.171875 C 455.941406 62.109375 455.523438 63.605469 454.691406 64.65625 C 453.855469 65.710938 452.675781 66.234375 451.144531 66.234375 C 449.601562 66.234375 448.414062 65.710938 447.582031 64.65625 C 446.746094 63.605469 446.332031 62.109375 446.332031 60.171875 C 446.332031 58.234375 446.746094 56.746094 447.582031 55.703125 C 448.414062 54.652344 449.601562 54.125 451.144531 54.125 C 452.675781 54.125 453.855469 54.652344 454.691406 55.703125 C 455.523438 56.746094 455.941406 58.234375 455.941406 60.171875 Z M 423.300781 51.148438 "/>
<path style=" stroke:none;fill-rule:nonzero;fill:rgb(100%,100%,100%);fill-opacity:1;" d="M 433.125 95.125 L 433.125 96.46875 C 432.59375 96.21875 432.09375 96.039062 431.625 95.921875 C 431.164062 95.796875 430.71875 95.734375 430.28125 95.734375 C 429.53125 95.734375 428.953125 95.882812 428.546875 96.171875 C 428.140625 96.464844 427.9375 96.875 427.9375 97.40625 C 427.9375 97.867188 428.070312 98.210938 428.34375 98.4375 C 428.613281 98.667969 429.128906 98.851562 429.890625 98.984375 L 430.71875 99.15625 C 431.75 99.355469 432.507812 99.703125 433 100.203125 C 433.488281 100.695312 433.734375 101.355469 433.734375 102.1875 C 433.734375 103.179688 433.398438 103.929688 432.734375 104.4375 C 432.078125 104.949219 431.109375 105.203125 429.828125 105.203125 C 429.335938 105.203125 428.820312 105.144531 428.28125 105.03125 C 427.738281 104.929688 427.175781 104.765625 426.59375 104.546875 L 426.59375 103.125 C 427.15625 103.4375 427.703125 103.679688 428.234375 103.84375 C 428.773438 104 429.304688 104.078125 429.828125 104.078125 C 430.609375 104.078125 431.210938 103.921875 431.640625 103.609375 C 432.078125 103.296875 432.296875 102.855469 432.296875 102.28125 C 432.296875 101.78125 432.140625 101.390625 431.828125 101.109375 C 431.523438 100.828125 431.019531 100.617188 430.3125 100.46875 L 429.46875 100.3125 C 428.4375 100.105469 427.691406 99.78125 427.234375 99.34375 C 426.773438 98.90625 426.546875 98.296875 426.546875 97.515625 C 426.546875 96.621094 426.863281 95.914062 427.5 95.390625 C 428.132812 94.871094 429.007812 94.609375 430.125 94.609375 C 430.601562 94.609375 431.09375 94.65625 431.59375 94.75 C 432.09375 94.835938 432.601562 94.960938 433.125 95.125 Z M 435.886719 94.796875 L 442.339844 94.796875 L 442.339844 95.953125 L 437.261719 95.953125 L 437.261719 98.984375 L 442.121094 98.984375 L 442.121094 100.140625 L 437.261719 100.140625 L 437.261719 103.84375 L 442.464844 103.84375 L 442.464844 105 L 435.886719 105 Z M 448.875 95.734375 C 447.875 95.734375 447.078125 96.109375 446.484375 96.859375 C 445.898438 97.601562 445.609375 98.617188 445.609375 99.90625 C 445.609375 101.1875 445.898438 102.203125 446.484375 102.953125 C 447.078125 103.703125 447.875 104.078125 448.875 104.078125 C 449.875 104.078125 450.664062 103.703125 451.25 102.953125 C 451.84375 102.203125 452.140625 101.1875 452.140625 99.90625 C 452.140625 98.617188 451.84375 97.601562 451.25 96.859375 C 450.664062 96.109375 449.875 95.734375 448.875 95.734375 Z M 448.875 94.609375 C 450.300781 94.609375 451.441406 95.089844 452.296875 96.046875 C 453.160156 97.007812 453.59375 98.292969 453.59375 99.90625 C 453.59375 101.511719 453.160156 102.796875 452.296875 103.765625 C 451.441406 104.726562 450.300781 105.203125 448.875 105.203125 C 447.4375 105.203125 446.285156 104.726562 445.421875 103.765625 C 444.566406 102.808594 444.140625 101.523438 444.140625 99.90625 C 444.140625 98.292969 444.566406 97.007812 445.421875 96.046875 C 446.285156 95.089844 447.4375 94.609375 448.875 94.609375 Z M 425.625 92.003906 "/>
</g>
</svg>
