<?xml version="1.0" encoding="UTF-8"?>
<svg xmlns="http://www.w3.org/2000/svg" xmlns:xlink="http://www.w3.org/1999/xlink" width="500pt" height="120pt" viewBox="0 0 500 120" version="1.1">
<g id="surface1">
<path style=" stroke:none;fill-rule:nonzero;fill:rgb(100%,100%,100%);fill-opacity:1;" d="M 10.53125 8.328125 L 12.125 8.328125 L 14.578125 18.1875 L 17.03125 8.328125 L 18.796875 8.328125 L 21.25 18.1875 L 23.703125 8.328125 L 25.296875 8.328125 L 22.375 20 L 20.390625 20 L 17.921875 9.875 L 15.4375 20 L 13.453125 20 Z M 33.882812 15.265625 L 33.882812 15.96875 L 27.273438 15.96875 C 27.335938 16.960938 27.632812 17.714844 28.164062 18.234375 C 28.695312 18.746094 29.4375 19 30.398438 19 C 30.949219 19 31.480469 18.933594 31.992188 18.796875 C 32.511719 18.664062 33.027344 18.460938 33.539062 18.1875 L 33.539062 19.546875 C 33.027344 19.765625 32.5 19.933594 31.960938 20.046875 C 31.417969 20.171875 30.867188 20.234375 30.304688 20.234375 C 28.90625 20.234375 27.804688 19.828125 26.992188 19.015625 C 26.179688 18.195312 25.773438 17.089844 25.773438 15.703125 C 25.773438 14.277344 26.15625 13.140625 26.929688 12.296875 C 27.699219 11.453125 28.742188 11.03125 30.054688 11.03125 C 31.230469 11.03125 32.164062 11.414062 32.851562 12.171875 C 33.539062 12.933594 33.882812 13.964844 33.882812 15.265625 Z M 32.445312 14.84375 C 32.433594 14.054688 32.210938 13.421875 31.773438 12.953125 C 31.34375 12.484375 30.777344 12.25 30.070312 12.25 C 29.265625 12.25 28.625 12.480469 28.148438 12.9375 C 27.667969 13.386719 27.390625 14.023438 27.320312 14.84375 Z M 42.523438 15.625 C 42.523438 14.574219 42.304688 13.746094 41.867188 13.140625 C 41.429688 12.539062 40.828125 12.234375 40.070312 12.234375 C 39.308594 12.234375 38.710938 12.539062 38.273438 13.140625 C 37.84375 13.746094 37.632812 14.574219 37.632812 15.625 C 37.632812 16.6875 37.84375 17.523438 38.273438 18.125 C 38.710938 18.71875 39.308594 19.015625 40.070312 19.015625 C 40.828125 19.015625 41.429688 18.71875 41.867188 18.125 C 42.304688 17.523438 42.523438 16.6875 42.523438 15.625 Z M 37.632812 12.578125 C 37.933594 12.058594 38.3125 11.671875 38.773438 11.421875 C 39.230469 11.164062 39.78125 11.03125 40.429688 11.03125 C 41.492188 11.03125 42.351562 11.453125 43.007812 12.296875 C 43.671875 13.140625 44.007812 14.25 44.007812 15.625 C 44.007812 17 43.671875 18.117188 43.007812 18.96875 C 42.351562 19.8125 41.492188 20.234375 40.429688 20.234375 C 39.78125 20.234375 39.230469 20.109375 38.773438 19.859375 C 38.3125 19.601562 37.933594 19.210938 37.632812 18.6875 L 37.632812 20 L 36.179688 20 L 36.179688 7.84375 L 37.632812 7.84375 Z M 51.976562 11.5 L 51.976562 12.859375 C 51.570312 12.652344 51.148438 12.496094 50.710938 12.390625 C 50.273438 12.289062 49.820312 12.234375 49.351562 12.234375 C 48.632812 12.234375 48.09375 12.34375 47.742188 12.5625 C 47.386719 12.78125 47.210938 13.109375 47.210938 13.546875 C 47.210938 13.882812 47.335938 14.148438 47.585938 14.34375 C 47.84375 14.53125 48.359375 14.710938 49.132812 14.875 L 49.617188 14.984375 C 50.636719 15.203125 51.359375 15.515625 51.789062 15.921875 C 52.226562 16.320312 52.445312 16.871094 52.445312 17.578125 C 52.445312 18.390625 52.121094 19.039062 51.476562 19.515625 C 50.828125 19.996094 49.945312 20.234375 48.820312 20.234375 C 48.351562 20.234375 47.859375 20.1875 47.351562 20.09375 C 46.851562 20 46.320312 19.859375 45.757812 19.671875 L 45.757812 18.1875 C 46.289062 18.46875 46.808594 18.679688 47.320312 18.8125 C 47.839844 18.949219 48.351562 19.015625 48.851562 19.015625 C 49.527344 19.015625 50.046875 18.902344 50.414062 18.671875 C 50.777344 18.445312 50.960938 18.117188 50.960938 17.6875 C 50.960938 17.304688 50.828125 17.007812 50.570312 16.796875 C 50.308594 16.589844 49.730469 16.386719 48.835938 16.1875 L 48.335938 16.078125 C 47.449219 15.890625 46.808594 15.605469 46.414062 15.21875 C 46.015625 14.824219 45.820312 14.289062 45.820312 13.609375 C 45.820312 12.789062 46.109375 12.152344 46.695312 11.703125 C 47.277344 11.257812 48.105469 11.03125 49.179688 11.03125 C 49.710938 11.03125 50.210938 11.074219 50.679688 11.15625 C 51.148438 11.230469 51.578125 11.34375 51.976562 11.5 Z M 54.734375 11.25 L 56.171875 11.25 L 56.171875 20 L 54.734375 20 Z M 54.734375 7.84375 L 56.171875 7.84375 L 56.171875 9.65625 L 54.734375 9.65625 Z M 60.601562 8.765625 L 60.601562 11.25 L 63.554688 11.25 L 63.554688 12.359375 L 60.601562 12.359375 L 60.601562 17.109375 C 60.601562 17.828125 60.695312 18.292969 60.882812 18.5 C 61.078125 18.699219 61.480469 18.796875 62.085938 18.796875 L 63.554688 18.796875 L 63.554688 20 L 62.085938 20 C 60.96875 20 60.199219 19.792969 59.773438 19.375 C 59.355469 18.960938 59.148438 18.203125 59.148438 17.109375 L 59.148438 12.359375 L 58.101562 12.359375 L 58.101562 11.25 L 59.148438 11.25 L 59.148438 8.765625 Z M 72.9375 15.265625 L 72.9375 15.96875 L 66.328125 15.96875 C 66.390625 16.960938 66.6875 17.714844 67.21875 18.234375 C 67.75 18.746094 68.492188 19 69.453125 19 C 70.003906 19 70.535156 18.933594 71.046875 18.796875 C 71.566406 18.664062 72.082031 18.460938 72.59375 18.1875 L 72.59375 19.546875 C 72.082031 19.765625 71.554688 19.933594 71.015625 20.046875 C 70.472656 20.171875 69.921875 20.234375 69.359375 20.234375 C 67.960938 20.234375 66.859375 19.828125 66.046875 19.015625 C 65.234375 18.195312 64.828125 17.089844 64.828125 15.703125 C 64.828125 14.277344 65.210938 13.140625 65.984375 12.296875 C 66.753906 11.453125 67.796875 11.03125 69.109375 11.03125 C 70.285156 11.03125 71.21875 11.414062 71.90625 12.171875 C 72.59375 12.933594 72.9375 13.964844 72.9375 15.265625 Z M 71.5 14.84375 C 71.488281 14.054688 71.265625 13.421875 70.828125 12.953125 C 70.398438 12.484375 69.832031 12.25 69.125 12.25 C 68.320312 12.25 67.679688 12.480469 67.203125 12.9375 C 66.722656 13.386719 66.445312 14.023438 66.375 14.84375 Z M 82.023438 9.625 L 82.023438 14.015625 L 84.007812 14.015625 C 84.734375 14.015625 85.296875 13.828125 85.695312 13.453125 C 86.101562 13.070312 86.304688 12.523438 86.304688 11.8125 C 86.304688 11.117188 86.101562 10.578125 85.695312 10.203125 C 85.296875 9.820312 84.734375 9.625 84.007812 9.625 Z M 80.445312 8.328125 L 84.007812 8.328125 C 85.308594 8.328125 86.292969 8.625 86.960938 9.21875 C 87.636719 9.8125 87.976562 10.679688 87.976562 11.8125 C 87.976562 12.96875 87.636719 13.84375 86.960938 14.4375 C 86.292969 15.023438 85.308594 15.3125 84.007812 15.3125 L 82.023438 15.3125 L 82.023438 20 L 80.445312 20 Z M 96.945312 15.265625 L 96.945312 15.96875 L 90.335938 15.96875 C 90.398438 16.960938 90.695312 17.714844 91.226562 18.234375 C 91.757812 18.746094 92.5 19 93.460938 19 C 94.011719 19 94.542969 18.933594 95.054688 18.796875 C 95.574219 18.664062 96.089844 18.460938 96.601562 18.1875 L 96.601562 19.546875 C 96.089844 19.765625 95.5625 19.933594 95.023438 20.046875 C 94.480469 20.171875 93.929688 20.234375 93.367188 20.234375 C 91.96875 20.234375 90.867188 19.828125 90.054688 19.015625 C 89.242188 18.195312 88.835938 17.089844 88.835938 15.703125 C 88.835938 14.277344 89.21875 13.140625 89.992188 12.296875 C 90.761719 11.453125 91.804688 11.03125 93.117188 11.03125 C 94.292969 11.03125 95.226562 11.414062 95.914062 12.171875 C 96.601562 12.933594 96.945312 13.964844 96.945312 15.265625 Z M 95.507812 14.84375 C 95.496094 14.054688 95.273438 13.421875 94.835938 12.953125 C 94.40625 12.484375 93.839844 12.25 93.132812 12.25 C 92.328125 12.25 91.6875 12.480469 91.210938 12.9375 C 90.730469 13.386719 90.453125 14.023438 90.382812 14.84375 Z M 104.367188 12.59375 C 104.210938 12.5 104.03125 12.433594 103.835938 12.390625 C 103.648438 12.339844 103.4375 12.3125 103.210938 12.3125 C 102.398438 12.3125 101.773438 12.578125 101.335938 13.109375 C 100.90625 13.640625 100.695312 14.402344 100.695312 15.390625 L 100.695312 20 L 99.242188 20 L 99.242188 11.25 L 100.695312 11.25 L 100.695312 12.609375 C 100.996094 12.078125 101.386719 11.683594 101.867188 11.421875 C 102.355469 11.164062 102.945312 11.03125 103.632812 11.03125 C 103.734375 11.03125 103.84375 11.042969 103.960938 11.0625 C 104.085938 11.074219 104.21875 11.089844 104.367188 11.109375 Z M 110.304688 7.84375 L 110.304688 9.03125 L 108.929688 9.03125 C 108.417969 9.03125 108.058594 9.136719 107.851562 9.34375 C 107.652344 9.554688 107.554688 9.929688 107.554688 10.46875 L 107.554688 11.25 L 109.929688 11.25 L 109.929688 12.359375 L 107.554688 12.359375 L 107.554688 20 L 106.117188 20 L 106.117188 12.359375 L 104.742188 12.359375 L 104.742188 11.25 L 106.117188 11.25 L 106.117188 10.640625 C 106.117188 9.664062 106.339844 8.953125 106.789062 8.515625 C 107.246094 8.070312 107.964844 7.84375 108.945312 7.84375 Z M 114.90625 12.25 C 114.132812 12.25 113.523438 12.554688 113.078125 13.15625 C 112.628906 13.761719 112.40625 14.585938 112.40625 15.625 C 112.40625 16.679688 112.625 17.507812 113.0625 18.109375 C 113.507812 18.703125 114.125 19 114.90625 19 C 115.664062 19 116.269531 18.699219 116.71875 18.09375 C 117.164062 17.492188 117.390625 16.667969 117.390625 15.625 C 117.390625 14.59375 117.164062 13.777344 116.71875 13.171875 C 116.269531 12.558594 115.664062 12.25 114.90625 12.25 Z M 114.90625 11.03125 C 116.15625 11.03125 117.132812 11.4375 117.84375 12.25 C 118.5625 13.0625 118.921875 14.1875 118.921875 15.625 C 118.921875 17.0625 118.5625 18.195312 117.84375 19.015625 C 117.132812 19.828125 116.15625 20.234375 114.90625 20.234375 C 113.644531 20.234375 112.660156 19.828125 111.953125 19.015625 C 111.242188 18.195312 110.890625 17.0625 110.890625 15.625 C 110.890625 14.1875 111.242188 13.0625 111.953125 12.25 C 112.660156 11.4375 113.644531 11.03125 114.90625 11.03125 Z M 126.367188 12.59375 C 126.210938 12.5 126.03125 12.433594 125.835938 12.390625 C 125.648438 12.339844 125.4375 12.3125 125.210938 12.3125 C 124.398438 12.3125 123.773438 12.578125 123.335938 13.109375 C 122.90625 13.640625 122.695312 14.402344 122.695312 15.390625 L 122.695312 20 L 121.242188 20 L 121.242188 11.25 L 122.695312 11.25 L 122.695312 12.609375 C 122.996094 12.078125 123.386719 11.683594 123.867188 11.421875 C 124.355469 11.164062 124.945312 11.03125 125.632812 11.03125 C 125.734375 11.03125 125.84375 11.042969 125.960938 11.0625 C 126.085938 11.074219 126.21875 11.089844 126.367188 11.109375 Z M 134.414062 12.921875 C 134.765625 12.277344 135.195312 11.804688 135.695312 11.5 C 136.195312 11.1875 136.78125 11.03125 137.460938 11.03125 C 138.375 11.03125 139.078125 11.355469 139.570312 12 C 140.070312 12.636719 140.320312 13.542969 140.320312 14.71875 L 140.320312 20 L 138.867188 20 L 138.867188 14.765625 C 138.867188 13.921875 138.714844 13.296875 138.414062 12.890625 C 138.121094 12.484375 137.671875 12.28125 137.070312 12.28125 C 136.320312 12.28125 135.726562 12.53125 135.289062 13.03125 C 134.859375 13.523438 134.648438 14.195312 134.648438 15.046875 L 134.648438 20 L 133.210938 20 L 133.210938 14.765625 C 133.210938 13.921875 133.058594 13.296875 132.757812 12.890625 C 132.464844 12.484375 132.007812 12.28125 131.382812 12.28125 C 130.652344 12.28125 130.070312 12.53125 129.632812 13.03125 C 129.203125 13.53125 128.992188 14.203125 128.992188 15.046875 L 128.992188 20 L 127.539062 20 L 127.539062 11.25 L 128.992188 11.25 L 128.992188 12.609375 C 129.3125 12.070312 129.703125 11.671875 130.164062 11.421875 C 130.621094 11.164062 131.167969 11.03125 131.804688 11.03125 C 132.4375 11.03125 132.976562 11.195312 133.414062 11.515625 C 133.859375 11.839844 134.195312 12.308594 134.414062 12.921875 Z M 147.15625 15.59375 C 146 15.59375 145.195312 15.730469 144.75 16 C 144.300781 16.261719 144.078125 16.714844 144.078125 17.359375 C 144.078125 17.871094 144.242188 18.277344 144.578125 18.578125 C 144.910156 18.871094 145.367188 19.015625 145.953125 19.015625 C 146.742188 19.015625 147.378906 18.734375 147.859375 18.171875 C 148.347656 17.609375 148.59375 16.859375 148.59375 15.921875 L 148.59375 15.59375 Z M 150.03125 15 L 150.03125 20 L 148.59375 20 L 148.59375 18.671875 C 148.257812 19.203125 147.847656 19.601562 147.359375 19.859375 C 146.867188 20.109375 146.269531 20.234375 145.5625 20.234375 C 144.664062 20.234375 143.953125 19.984375 143.421875 19.484375 C 142.898438 18.976562 142.640625 18.296875 142.640625 17.453125 C 142.640625 16.464844 142.96875 15.71875 143.625 15.21875 C 144.28125 14.71875 145.265625 14.46875 146.578125 14.46875 L 148.59375 14.46875 L 148.59375 14.328125 C 148.59375 13.671875 148.375 13.164062 147.9375 12.796875 C 147.5 12.433594 146.890625 12.25 146.109375 12.25 C 145.609375 12.25 145.117188 12.3125 144.640625 12.4375 C 144.171875 12.554688 143.71875 12.730469 143.28125 12.96875 L 143.28125 11.640625 C 143.800781 11.445312 144.304688 11.292969 144.796875 11.1875 C 145.296875 11.085938 145.78125 11.03125 146.25 11.03125 C 147.519531 11.03125 148.46875 11.359375 149.09375 12.015625 C 149.71875 12.671875 150.03125 13.667969 150.03125 15 Z M 160.257812 14.71875 L 160.257812 20 L 158.820312 20 L 158.820312 14.765625 C 158.820312 13.933594 158.65625 13.3125 158.335938 12.90625 C 158.011719 12.492188 157.527344 12.28125 156.882812 12.28125 C 156.109375 12.28125 155.5 12.53125 155.054688 13.03125 C 154.605469 13.523438 154.382812 14.195312 154.382812 15.046875 L 154.382812 20 L 152.929688 20 L 152.929688 11.25 L 154.382812 11.25 L 154.382812 12.609375 C 154.726562 12.078125 155.125 11.683594 155.585938 11.421875 C 156.054688 11.164062 156.59375 11.03125 157.210938 11.03125 C 158.210938 11.03125 158.964844 11.34375 159.476562 11.96875 C 159.996094 12.59375 160.257812 13.511719 160.257812 14.71875 Z M 169.429688 11.578125 L 169.429688 12.921875 C 169.023438 12.703125 168.609375 12.539062 168.195312 12.421875 C 167.789062 12.308594 167.375 12.25 166.960938 12.25 C 166.03125 12.25 165.308594 12.546875 164.789062 13.140625 C 164.277344 13.734375 164.023438 14.5625 164.023438 15.625 C 164.023438 16.699219 164.277344 17.53125 164.789062 18.125 C 165.308594 18.710938 166.03125 19 166.960938 19 C 167.375 19 167.789062 18.949219 168.195312 18.84375 C 168.609375 18.730469 169.023438 18.558594 169.429688 18.328125 L 169.429688 19.65625 C 169.023438 19.84375 168.605469 19.984375 168.179688 20.078125 C 167.75 20.179688 167.292969 20.234375 166.804688 20.234375 C 165.492188 20.234375 164.445312 19.820312 163.664062 18.984375 C 162.890625 18.152344 162.507812 17.03125 162.507812 15.625 C 162.507812 14.199219 162.898438 13.078125 163.679688 12.265625 C 164.460938 11.445312 165.53125 11.03125 166.898438 11.03125 C 167.34375 11.03125 167.777344 11.078125 168.195312 11.171875 C 168.621094 11.265625 169.03125 11.402344 169.429688 11.578125 Z M 179.414062 15.265625 L 179.414062 15.96875 L 172.804688 15.96875 C 172.867188 16.960938 173.164062 17.714844 173.695312 18.234375 C 174.226562 18.746094 174.96875 19 175.929688 19 C 176.480469 19 177.011719 18.933594 177.523438 18.796875 C 178.042969 18.664062 178.558594 18.460938 179.070312 18.1875 L 179.070312 19.546875 C 178.558594 19.765625 178.03125 19.933594 177.492188 20.046875 C 176.949219 20.171875 176.398438 20.234375 175.835938 20.234375 C 174.4375 20.234375 173.335938 19.828125 172.523438 19.015625 C 171.710938 18.195312 171.304688 17.089844 171.304688 15.703125 C 171.304688 14.277344 171.6875 13.140625 172.460938 12.296875 C 173.230469 11.453125 174.273438 11.03125 175.585938 11.03125 C 176.761719 11.03125 177.695312 11.414062 178.382812 12.171875 C 179.070312 12.933594 179.414062 13.964844 179.414062 15.265625 Z M 177.976562 14.84375 C 177.964844 14.054688 177.742188 13.421875 177.304688 12.953125 C 176.875 12.484375 176.308594 12.25 175.601562 12.25 C 174.796875 12.25 174.15625 12.480469 173.679688 12.9375 C 173.199219 13.386719 172.921875 14.023438 172.851562 14.84375 Z M 186.921875 8.328125 L 189.265625 8.328125 L 192.25 16.265625 L 195.234375 8.328125 L 197.59375 8.328125 L 197.59375 20 L 196.046875 20 L 196.046875 9.75 L 193.046875 17.75 L 191.453125 17.75 L 188.453125 9.75 L 188.453125 20 L 186.921875 20 Z M 208.148438 15.265625 L 208.148438 15.96875 L 201.539062 15.96875 C 201.601562 16.960938 201.898438 17.714844 202.429688 18.234375 C 202.960938 18.746094 203.703125 19 204.664062 19 C 205.214844 19 205.746094 18.933594 206.257812 18.796875 C 206.777344 18.664062 207.292969 18.460938 207.804688 18.1875 L 207.804688 19.546875 C 207.292969 19.765625 206.765625 19.933594 206.226562 20.046875 C 205.683594 20.171875 205.132812 20.234375 204.570312 20.234375 C 203.171875 20.234375 202.070312 19.828125 201.257812 19.015625 C 200.445312 18.195312 200.039062 17.089844 200.039062 15.703125 C 200.039062 14.277344 200.421875 13.140625 201.195312 12.296875 C 201.964844 11.453125 203.007812 11.03125 204.320312 11.03125 C 205.496094 11.03125 206.429688 11.414062 207.117188 12.171875 C 207.804688 12.933594 208.148438 13.964844 208.148438 15.265625 Z M 206.710938 14.84375 C 206.699219 14.054688 206.476562 13.421875 206.039062 12.953125 C 205.609375 12.484375 205.042969 12.25 204.335938 12.25 C 203.53125 12.25 202.890625 12.480469 202.414062 12.9375 C 201.933594 13.386719 201.65625 14.023438 201.585938 14.84375 Z M 211.929688 8.765625 L 211.929688 11.25 L 214.882812 11.25 L 214.882812 12.359375 L 211.929688 12.359375 L 211.929688 17.109375 C 211.929688 17.828125 212.023438 18.292969 212.210938 18.5 C 212.40625 18.699219 212.808594 18.796875 213.414062 18.796875 L 214.882812 18.796875 L 214.882812 20 L 213.414062 20 C 212.296875 20 211.527344 19.792969 211.101562 19.375 C 210.683594 18.960938 210.476562 18.203125 210.476562 17.109375 L 210.476562 12.359375 L 209.429688 12.359375 L 209.429688 11.25 L 210.476562 11.25 L 210.476562 8.765625 Z M 221.84375 12.59375 C 221.6875 12.5 221.507812 12.433594 221.3125 12.390625 C 221.125 12.339844 220.914062 12.3125 220.6875 12.3125 C 219.875 12.3125 219.25 12.578125 218.8125 13.109375 C 218.382812 13.640625 218.171875 14.402344 218.171875 15.390625 L 218.171875 20 L 216.71875 20 L 216.71875 11.25 L 218.171875 11.25 L 218.171875 12.609375 C 218.472656 12.078125 218.863281 11.683594 219.34375 11.421875 C 219.832031 11.164062 220.421875 11.03125 221.109375 11.03125 C 221.210938 11.03125 221.320312 11.042969 221.4375 11.0625 C 221.5625 11.074219 221.695312 11.089844 221.84375 11.109375 Z M 223.359375 11.25 L 224.796875 11.25 L 224.796875 20 L 223.359375 20 Z M 223.359375 7.84375 L 224.796875 7.84375 L 224.796875 9.65625 L 223.359375 9.65625 Z M 234.101562 11.578125 L 234.101562 12.921875 C 233.695312 12.703125 233.28125 12.539062 232.867188 12.421875 C 232.460938 12.308594 232.046875 12.25 231.632812 12.25 C 230.703125 12.25 229.980469 12.546875 229.460938 13.140625 C 228.949219 13.734375 228.695312 14.5625 228.695312 15.625 C 228.695312 16.699219 228.949219 17.53125 229.460938 18.125 C 229.980469 18.710938 230.703125 19 231.632812 19 C 232.046875 19 232.460938 18.949219 232.867188 18.84375 C 233.28125 18.730469 233.695312 18.558594 234.101562 18.328125 L 234.101562 19.65625 C 233.695312 19.84375 233.277344 19.984375 232.851562 20.078125 C 232.421875 20.179688 231.964844 20.234375 231.476562 20.234375 C 230.164062 20.234375 229.117188 19.820312 228.335938 18.984375 C 227.5625 18.152344 227.179688 17.03125 227.179688 15.625 C 227.179688 14.199219 227.570312 13.078125 228.351562 12.265625 C 229.132812 11.445312 230.203125 11.03125 231.570312 11.03125 C 232.015625 11.03125 232.449219 11.078125 232.867188 11.171875 C 233.292969 11.265625 233.703125 11.402344 234.101562 11.578125 Z M 242.179688 11.5 L 242.179688 12.859375 C 241.773438 12.652344 241.351562 12.496094 240.914062 12.390625 C 240.476562 12.289062 240.023438 12.234375 239.554688 12.234375 C 238.835938 12.234375 238.296875 12.34375 237.945312 12.5625 C 237.589844 12.78125 237.414062 13.109375 237.414062 13.546875 C 237.414062 13.882812 237.539062 14.148438 237.789062 14.34375 C 238.046875 14.53125 238.5625 14.710938 239.335938 14.875 L 239.820312 14.984375 C 240.839844 15.203125 241.5625 15.515625 241.992188 15.921875 C 242.429688 16.320312 242.648438 16.871094 242.648438 17.578125 C 242.648438 18.390625 242.324219 19.039062 241.679688 19.515625 C 241.03125 19.996094 240.148438 20.234375 239.023438 20.234375 C 238.554688 20.234375 238.0625 20.1875 237.554688 20.09375 C 237.054688 20 236.523438 19.859375 235.960938 19.671875 L 235.960938 18.1875 C 236.492188 18.46875 237.011719 18.679688 237.523438 18.8125 C 238.042969 18.949219 238.554688 19.015625 239.054688 19.015625 C 239.730469 19.015625 240.25 18.902344 240.617188 18.671875 C 240.980469 18.445312 241.164062 18.117188 241.164062 17.6875 C 241.164062 17.304688 241.03125 17.007812 240.773438 16.796875 C 240.511719 16.589844 239.933594 16.386719 239.039062 16.1875 L 238.539062 16.078125 C 237.652344 15.890625 237.011719 15.605469 236.617188 15.21875 C 236.21875 14.824219 236.023438 14.289062 236.023438 13.609375 C 236.023438 12.789062 236.3125 12.152344 236.898438 11.703125 C 237.480469 11.257812 238.308594 11.03125 239.382812 11.03125 C 239.914062 11.03125 240.414062 11.074219 240.882812 11.15625 C 241.351562 11.230469 241.78125 11.34375 242.179688 11.5 Z M 250.382812 18.015625 L 252.039062 18.015625 L 252.039062 20 L 250.382812 20 Z M 250.382812 11.71875 L 252.039062 11.71875 L 252.039062 13.703125 L 250.382812 13.703125 Z M 267.765625 14.71875 L 267.765625 20 L 266.328125 20 L 266.328125 14.765625 C 266.328125 13.933594 266.164062 13.3125 265.84375 12.90625 C 265.519531 12.492188 265.035156 12.28125 264.390625 12.28125 C 263.617188 12.28125 263.007812 12.53125 262.5625 13.03125 C 262.113281 13.523438 261.890625 14.195312 261.890625 15.046875 L 261.890625 20 L 260.4375 20 L 260.4375 7.84375 L 261.890625 7.84375 L 261.890625 12.609375 C 262.234375 12.078125 262.632812 11.683594 263.09375 11.421875 C 263.5625 11.164062 264.101562 11.03125 264.71875 11.03125 C 265.71875 11.03125 266.472656 11.34375 266.984375 11.96875 C 267.503906 12.59375 267.765625 13.511719 267.765625 14.71875 Z M 272.0625 8.765625 L 272.0625 11.25 L 275.015625 11.25 L 275.015625 12.359375 L 272.0625 12.359375 L 272.0625 17.109375 C 272.0625 17.828125 272.15625 18.292969 272.34375 18.5 C 272.539062 18.699219 272.941406 18.796875 273.546875 18.796875 L 275.015625 18.796875 L 275.015625 20 L 273.546875 20 C 272.429688 20 271.660156 19.792969 271.234375 19.375 C 270.816406 18.960938 270.609375 18.203125 270.609375 17.109375 L 270.609375 12.359375 L 269.5625 12.359375 L 269.5625 11.25 L 270.609375 11.25 L 270.609375 8.765625 Z M 278.335938 8.765625 L 278.335938 11.25 L 281.289062 11.25 L 281.289062 12.359375 L 278.335938 12.359375 L 278.335938 17.109375 C 278.335938 17.828125 278.429688 18.292969 278.617188 18.5 C 278.8125 18.699219 279.214844 18.796875 279.820312 18.796875 L 281.289062 18.796875 L 281.289062 20 L 279.820312 20 C 278.703125 20 277.933594 19.792969 277.507812 19.375 C 277.089844 18.960938 276.882812 18.203125 276.882812 17.109375 L 276.882812 12.359375 L 275.835938 12.359375 L 275.835938 11.25 L 276.882812 11.25 L 276.882812 8.765625 Z M 284.578125 18.6875 L 284.578125 23.328125 L 283.125 23.328125 L 283.125 11.25 L 284.578125 11.25 L 284.578125 12.578125 C 284.878906 12.058594 285.257812 11.671875 285.71875 11.421875 C 286.175781 11.164062 286.726562 11.03125 287.375 11.03125 C 288.4375 11.03125 289.296875 11.453125 289.953125 12.296875 C 290.617188 13.140625 290.953125 14.25 290.953125 15.625 C 290.953125 17 290.617188 18.117188 289.953125 18.96875 C 289.296875 19.8125 288.4375 20.234375 287.375 20.234375 C 286.726562 20.234375 286.175781 20.109375 285.71875 19.859375 C 285.257812 19.601562 284.878906 19.210938 284.578125 18.6875 Z M 289.46875 15.625 C 289.46875 14.574219 289.25 13.746094 288.8125 13.140625 C 288.375 12.539062 287.773438 12.234375 287.015625 12.234375 C 286.253906 12.234375 285.65625 12.539062 285.21875 13.140625 C 284.789062 13.746094 284.578125 14.574219 284.578125 15.625 C 284.578125 16.6875 284.789062 17.523438 285.21875 18.125 C 285.65625 18.71875 286.253906 19.015625 287.015625 19.015625 C 287.773438 19.015625 288.375 18.71875 288.8125 18.125 C 289.25 17.523438 289.46875 16.6875 289.46875 15.625 Z M 298.921875 11.5 L 298.921875 12.859375 C 298.515625 12.652344 298.09375 12.496094 297.65625 12.390625 C 297.21875 12.289062 296.765625 12.234375 296.296875 12.234375 C 295.578125 12.234375 295.039062 12.34375 294.6875 12.5625 C 294.332031 12.78125 294.15625 13.109375 294.15625 13.546875 C 294.15625 13.882812 294.28125 14.148438 294.53125 14.34375 C 294.789062 14.53125 295.304688 14.710938 296.078125 14.875 L 296.5625 14.984375 C 297.582031 15.203125 298.304688 15.515625 298.734375 15.921875 C 299.171875 16.320312 299.390625 16.871094 299.390625 17.578125 C 299.390625 18.390625 299.066406 19.039062 298.421875 19.515625 C 297.773438 19.996094 296.890625 20.234375 295.765625 20.234375 C 295.296875 20.234375 294.804688 20.1875 294.296875 20.09375 C 293.796875 20 293.265625 19.859375 292.703125 19.671875 L 292.703125 18.1875 C 293.234375 18.46875 293.753906 18.679688 294.265625 18.8125 C 294.785156 18.949219 295.296875 19.015625 295.796875 19.015625 C 296.472656 19.015625 296.992188 18.902344 297.359375 18.671875 C 297.722656 18.445312 297.90625 18.117188 297.90625 17.6875 C 297.90625 17.304688 297.773438 17.007812 297.515625 16.796875 C 297.253906 16.589844 296.675781 16.386719 295.78125 16.1875 L 295.28125 16.078125 C 294.394531 15.890625 293.753906 15.605469 293.359375 15.21875 C 292.960938 14.824219 292.765625 14.289062 292.765625 13.609375 C 292.765625 12.789062 293.054688 12.152344 293.640625 11.703125 C 294.222656 11.257812 295.050781 11.03125 296.125 11.03125 C 296.65625 11.03125 297.15625 11.074219 297.625 11.15625 C 298.09375 11.230469 298.523438 11.34375 298.921875 11.5 Z M 302.039062 18.015625 L 303.695312 18.015625 L 303.695312 20 L 302.039062 20 Z M 302.039062 11.71875 L 303.695312 11.71875 L 303.695312 13.703125 L 302.039062 13.703125 Z M 309.617188 8.328125 L 310.945312 8.328125 L 306.882812 21.484375 L 305.554688 21.484375 Z M 315.007812 8.328125 L 316.335938 8.328125 L 312.273438 21.484375 L 310.945312 21.484375 Z M 317.007812 11.25 L 318.445312 11.25 L 320.242188 18.078125 L 322.039062 11.25 L 323.726562 11.25 L 325.523438 18.078125 L 327.320312 11.25 L 328.757812 11.25 L 326.460938 20 L 324.773438 20 L 322.882812 12.828125 L 320.992188 20 L 319.304688 20 Z M 330.09375 11.25 L 331.53125 11.25 L 333.328125 18.078125 L 335.125 11.25 L 336.8125 11.25 L 338.609375 18.078125 L 340.40625 11.25 L 341.84375 11.25 L 339.546875 20 L 337.859375 20 L 335.96875 12.828125 L 334.078125 20 L 332.390625 20 Z M 343.179688 11.25 L 344.617188 11.25 L 346.414062 18.078125 L 348.210938 11.25 L 349.898438 11.25 L 351.695312 18.078125 L 353.492188 11.25 L 354.929688 11.25 L 352.632812 20 L 350.945312 20 L 349.054688 12.828125 L 347.164062 20 L 345.476562 20 Z M 355.84375 18.015625 L 357.484375 18.015625 L 357.484375 20 L 355.84375 20 Z M 359.882812 11.25 L 361.320312 11.25 L 363.117188 18.078125 L 364.914062 11.25 L 366.601562 11.25 L 368.398438 18.078125 L 370.195312 11.25 L 371.632812 11.25 L 369.335938 20 L 367.648438 20 L 365.757812 12.828125 L 363.867188 20 L 362.179688 20 Z M 373.8125 11.25 L 375.25 11.25 L 375.25 20 L 373.8125 20 Z M 373.8125 7.84375 L 375.25 7.84375 L 375.25 9.65625 L 373.8125 9.65625 Z M 378.195312 7.84375 L 379.648438 7.84375 L 379.648438 15.015625 L 383.929688 11.25 L 385.773438 11.25 L 381.132812 15.34375 L 385.960938 20 L 384.085938 20 L 379.648438 15.71875 L 379.648438 20 L 378.195312 20 Z M 387.523438 11.25 L 388.960938 11.25 L 388.960938 20 L 387.523438 20 Z M 387.523438 7.84375 L 388.960938 7.84375 L 388.960938 9.65625 L 387.523438 9.65625 Z M 393.359375 18.6875 L 393.359375 23.328125 L 391.90625 23.328125 L 391.90625 11.25 L 393.359375 11.25 L 393.359375 12.578125 C 393.660156 12.058594 394.039062 11.671875 394.5 11.421875 C 394.957031 11.164062 395.507812 11.03125 396.15625 11.03125 C 397.21875 11.03125 398.078125 11.453125 398.734375 12.296875 C 399.398438 13.140625 399.734375 14.25 399.734375 15.625 C 399.734375 17 399.398438 18.117188 398.734375 18.96875 C 398.078125 19.8125 397.21875 20.234375 396.15625 20.234375 C 395.507812 20.234375 394.957031 20.109375 394.5 19.859375 C 394.039062 19.601562 393.660156 19.210938 393.359375 18.6875 Z M 398.25 15.625 C 398.25 14.574219 398.03125 13.746094 397.59375 13.140625 C 397.15625 12.539062 396.554688 12.234375 395.796875 12.234375 C 395.035156 12.234375 394.4375 12.539062 394 13.140625 C 393.570312 13.746094 393.359375 14.574219 393.359375 15.625 C 393.359375 16.6875 393.570312 17.523438 394 18.125 C 394.4375 18.71875 395.035156 19.015625 395.796875 19.015625 C 396.554688 19.015625 397.15625 18.71875 397.59375 18.125 C 398.03125 17.523438 398.25 16.6875 398.25 15.625 Z M 409.609375 15.265625 L 409.609375 15.96875 L 403 15.96875 C 403.0625 16.960938 403.359375 17.714844 403.890625 18.234375 C 404.421875 18.746094 405.164062 19 406.125 19 C 406.675781 19 407.207031 18.933594 407.71875 18.796875 C 408.238281 18.664062 408.753906 18.460938 409.265625 18.1875 L 409.265625 19.546875 C 408.753906 19.765625 408.226562 19.933594 407.6875 20.046875 C 407.144531 20.171875 406.59375 20.234375 406.03125 20.234375 C 404.632812 20.234375 403.53125 19.828125 402.71875 19.015625 C 401.90625 18.195312 401.5 17.089844 401.5 15.703125 C 401.5 14.277344 401.882812 13.140625 402.65625 12.296875 C 403.425781 11.453125 404.46875 11.03125 405.78125 11.03125 C 406.957031 11.03125 407.890625 11.414062 408.578125 12.171875 C 409.265625 12.933594 409.609375 13.964844 409.609375 15.265625 Z M 408.171875 14.84375 C 408.160156 14.054688 407.9375 13.421875 407.5 12.953125 C 407.070312 12.484375 406.503906 12.25 405.796875 12.25 C 404.992188 12.25 404.351562 12.480469 403.875 12.9375 C 403.394531 13.386719 403.117188 14.023438 403.046875 14.84375 Z M 417.71875 12.578125 L 417.71875 7.84375 L 419.15625 7.84375 L 419.15625 20 L 417.71875 20 L 417.71875 18.6875 C 417.414062 19.210938 417.035156 19.601562 416.578125 19.859375 C 416.117188 20.109375 415.566406 20.234375 414.921875 20.234375 C 413.859375 20.234375 412.992188 19.8125 412.328125 18.96875 C 411.671875 18.117188 411.34375 17 411.34375 15.625 C 411.34375 14.25 411.671875 13.140625 412.328125 12.296875 C 412.992188 11.453125 413.859375 11.03125 414.921875 11.03125 C 415.566406 11.03125 416.117188 11.164062 416.578125 11.421875 C 417.035156 11.671875 417.414062 12.058594 417.71875 12.578125 Z M 412.828125 15.625 C 412.828125 16.6875 413.039062 17.523438 413.46875 18.125 C 413.90625 18.71875 414.503906 19.015625 415.265625 19.015625 C 416.023438 19.015625 416.625 18.71875 417.0625 18.125 C 417.5 17.523438 417.71875 16.6875 417.71875 15.625 C 417.71875 14.574219 417.5 13.746094 417.0625 13.140625 C 416.625 12.539062 416.023438 12.234375 415.265625 12.234375 C 414.503906 12.234375 413.90625 12.539062 413.46875 13.140625 C 413.039062 13.746094 412.828125 14.574219 412.828125 15.625 Z M 422.125 11.25 L 423.5625 11.25 L 423.5625 20 L 422.125 20 Z M 422.125 7.84375 L 423.5625 7.84375 L 423.5625 9.65625 L 422.125 9.65625 Z M 430.539062 15.59375 C 429.382812 15.59375 428.578125 15.730469 428.132812 16 C 427.683594 16.261719 427.460938 16.714844 427.460938 17.359375 C 427.460938 17.871094 427.625 18.277344 427.960938 18.578125 C 428.292969 18.871094 428.75 19.015625 429.335938 19.015625 C 430.125 19.015625 430.761719 18.734375 431.242188 18.171875 C 431.730469 17.609375 431.976562 16.859375 431.976562 15.921875 L 431.976562 15.59375 Z M 433.414062 15 L 433.414062 20 L 431.976562 20 L 431.976562 18.671875 C 431.640625 19.203125 431.230469 19.601562 430.742188 19.859375 C 430.25 20.109375 429.652344 20.234375 428.945312 20.234375 C 428.046875 20.234375 427.335938 19.984375 426.804688 19.484375 C 426.28125 18.976562 426.023438 18.296875 426.023438 17.453125 C 426.023438 16.464844 426.351562 15.71875 427.007812 15.21875 C 427.664062 14.71875 428.648438 14.46875 429.960938 14.46875 L 431.976562 14.46875 L 431.976562 14.328125 C 431.976562 13.671875 431.757812 13.164062 431.320312 12.796875 C 430.882812 12.433594 430.273438 12.25 429.492188 12.25 C 428.992188 12.25 428.5 12.3125 428.023438 12.4375 C 427.554688 12.554688 427.101562 12.730469 426.664062 12.96875 L 426.664062 11.640625 C 427.183594 11.445312 427.6875 11.292969 428.179688 11.1875 C 428.679688 11.085938 429.164062 11.03125 429.632812 11.03125 C 430.902344 11.03125 431.851562 11.359375 432.476562 12.015625 C 433.101562 12.671875 433.414062 13.667969 433.414062 15 Z M 436.578125 18.015625 L 438.21875 18.015625 L 438.21875 20 L 436.578125 20 Z M 444.851562 12.25 C 444.078125 12.25 443.46875 12.554688 443.023438 13.15625 C 442.574219 13.761719 442.351562 14.585938 442.351562 15.625 C 442.351562 16.679688 442.570312 17.507812 443.007812 18.109375 C 443.453125 18.703125 444.070312 19 444.851562 19 C 445.609375 19 446.214844 18.699219 446.664062 18.09375 C 447.109375 17.492188 447.335938 16.667969 447.335938 15.625 C 447.335938 14.59375 447.109375 13.777344 446.664062 13.171875 C 446.214844 12.558594 445.609375 12.25 444.851562 12.25 Z M 444.851562 11.03125 C 446.101562 11.03125 447.078125 11.4375 447.789062 12.25 C 448.507812 13.0625 448.867188 14.1875 448.867188 15.625 C 448.867188 17.0625 448.507812 18.195312 447.789062 19.015625 C 447.078125 19.828125 446.101562 20.234375 444.851562 20.234375 C 443.589844 20.234375 442.605469 19.828125 441.898438 19.015625 C 441.1875 18.195312 440.835938 17.0625 440.835938 15.625 C 440.835938 14.1875 441.1875 13.0625 441.898438 12.25 C 442.605469 11.4375 443.589844 11.03125 444.851562 11.03125 Z M 456.3125 12.59375 C 456.15625 12.5 455.976562 12.433594 455.78125 12.390625 C 455.59375 12.339844 455.382812 12.3125 455.15625 12.3125 C 454.34375 12.3125 453.71875 12.578125 453.28125 13.109375 C 452.851562 13.640625 452.640625 14.402344 452.640625 15.390625 L 452.640625 20 L 451.1875 20 L 451.1875 11.25 L 452.640625 11.25 L 452.640625 12.609375 C 452.941406 12.078125 453.332031 11.683594 453.8125 11.421875 C 454.300781 11.164062 454.890625 11.03125 455.578125 11.03125 C 455.679688 11.03125 455.789062 11.042969 455.90625 11.0625 C 456.03125 11.074219 456.164062 11.089844 456.3125 11.109375 Z M 463.296875 15.515625 C 463.296875 14.476562 463.082031 13.667969 462.65625 13.09375 C 462.226562 12.523438 461.625 12.234375 460.84375 12.234375 C 460.070312 12.234375 459.472656 12.523438 459.046875 13.09375 C 458.617188 13.667969 458.40625 14.476562 458.40625 15.515625 C 458.40625 16.558594 458.617188 17.367188 459.046875 17.9375 C 459.472656 18.511719 460.070312 18.796875 460.84375 18.796875 C 461.625 18.796875 462.226562 18.511719 462.65625 17.9375 C 463.082031 17.367188 463.296875 16.558594 463.296875 15.515625 Z M 464.734375 18.90625 C 464.734375 20.40625 464.398438 21.515625 463.734375 22.234375 C 463.078125 22.960938 462.066406 23.328125 460.703125 23.328125 C 460.203125 23.328125 459.726562 23.289062 459.28125 23.21875 C 458.832031 23.144531 458.394531 23.03125 457.96875 22.875 L 457.96875 21.46875 C 458.394531 21.695312 458.8125 21.863281 459.21875 21.96875 C 459.632812 22.082031 460.054688 22.140625 460.484375 22.140625 C 461.421875 22.140625 462.125 21.894531 462.59375 21.40625 C 463.0625 20.914062 463.296875 20.171875 463.296875 19.171875 L 463.296875 18.453125 C 463.003906 18.976562 462.625 19.367188 462.15625 19.625 C 461.695312 19.875 461.144531 20 460.5 20 C 459.425781 20 458.5625 19.59375 457.90625 18.78125 C 457.25 17.960938 456.921875 16.871094 456.921875 15.515625 C 456.921875 14.164062 457.25 13.078125 457.90625 12.265625 C 458.5625 11.445312 459.425781 11.03125 460.5 11.03125 C 461.144531 11.03125 461.695312 11.164062 462.15625 11.421875 C 462.625 11.671875 463.003906 12.058594 463.296875 12.578125 L 463.296875 11.25 L 464.734375 11.25 Z M 10 5.148438 "/>
<path style="fill-rule:nonzero;fill:rgb(98.431373%,73.72549%,1.568627%);fill-opacity:1;stroke-width:2;stroke-linecap:butt;stroke-linejoin:miter;stroke:rgb(100%,100%,100%);stroke-opacity:1;stroke-miterlimit:10;" d="M 110 60 C 110 76.570312 96.570312 90 80 90 C 63.429688 90 50 76.570312 50 60 C 50 43.429688 63.429688 30 80 30 C 96.570312 30 110 43.429688 110 60 "/>
<path style=" stroke:none;fill-rule:nonzero;fill:rgb(100%,100%,100%);fill-opacity:1;" d="M 65.175781 63.921875 L 67.832031 63.921875 L 67.832031 56.375 L 65.113281 56.9375 L 65.113281 54.890625 L 67.816406 54.328125 L 70.675781 54.328125 L 70.675781 63.921875 L 73.332031 63.921875 L 73.332031 66 L 65.175781 66 Z M 81.792969 60.15625 C 81.792969 58.699219 81.65625 57.671875 81.386719 57.078125 C 81.113281 56.476562 80.65625 56.171875 80.011719 56.171875 C 79.363281 56.171875 78.902344 56.476562 78.621094 57.078125 C 78.347656 57.671875 78.214844 58.699219 78.214844 60.15625 C 78.214844 61.625 78.347656 62.664062 78.621094 63.265625 C 78.902344 63.871094 79.363281 64.171875 80.011719 64.171875 C 80.644531 64.171875 81.097656 63.871094 81.371094 63.265625 C 81.652344 62.664062 81.792969 61.625 81.792969 60.15625 Z M 84.808594 60.171875 C 84.808594 62.109375 84.390625 63.605469 83.558594 64.65625 C 82.722656 65.710938 81.542969 66.234375 80.011719 66.234375 C 78.46875 66.234375 77.28125 65.710938 76.449219 64.65625 C 75.613281 63.605469 75.199219 62.109375 75.199219 60.171875 C 75.199219 58.234375 75.613281 56.746094 76.449219 55.703125 C 77.28125 54.652344 78.46875 54.125 80.011719 54.125 C 81.542969 54.125 82.722656 54.652344 83.558594 55.703125 C 84.390625 56.746094 84.808594 58.234375 84.808594 60.171875 Z M 92.925781 60.15625 C 92.925781 58.699219 92.789062 57.671875 92.519531 57.078125 C 92.246094 56.476562 91.789062 56.171875 91.144531 56.171875 C 90.496094 56.171875 90.035156 56.476562 89.753906 57.078125 C 89.480469 57.671875 89.347656 58.699219 89.347656 60.15625 C 89.347656 61.625 89.480469 62.664062 89.753906 63.265625 C 90.035156 63.871094 90.496094 64.171875 91.144531 64.171875 C 91.777344 64.171875 92.230469 63.871094 92.503906 63.265625 C 92.785156 62.664062 92.925781 61.625 92.925781 60.15625 Z M 95.941406 60.171875 C 95.941406 62.109375 95.523438 63.605469 94.691406 64.65625 C 93.855469 65.710938 92.675781 66.234375 91.144531 66.234375 C 89.601562 66.234375 88.414062 65.710938 87.582031 64.65625 C 86.746094 63.605469 86.332031 62.109375 86.332031 60.171875 C 86.332031 58.234375 86.746094 56.746094 87.582031 55.703125 C 88.414062 54.652344 89.601562 54.125 91.144531 54.125 C 92.675781 54.125 93.855469 54.652344 94.691406 55.703125 C 95.523438 56.746094 95.941406 58.234375 95.941406 60.171875 Z M 63.300781 51.148438 "/>
<path style=" stroke:none;fill-rule:nonzero;fill:rgb(100%,100%,100%);fill-opacity:1;" d="M 38.390625 95.921875 L 38.390625 99.765625 L 40.125 99.765625 C 40.769531 99.765625 41.269531 99.601562 41.625 99.265625 C 41.976562 98.933594 42.15625 98.460938 42.15625 97.84375 C 42.15625 97.230469 41.976562 96.757812 41.625 96.421875 C 41.269531 96.089844 40.769531 95.921875 40.125 95.921875 Z M 37.015625 94.796875 L 40.125 94.796875 C 41.269531 94.796875 42.132812 95.058594 42.71875 95.578125 C 43.3125 96.089844 43.609375 96.84375 43.609375 97.84375 C 43.609375 98.855469 43.3125 99.617188 42.71875 100.125 C 42.132812 100.636719 41.269531 100.890625 40.125 100.890625 L 38.390625 100.890625 L 38.390625 105 L 37.015625 105 Z M 51.460938 100.859375 L 51.460938 101.46875 L 45.664062 101.46875 C 45.726562 102.335938 45.984375 102.996094 46.445312 103.453125 C 46.914062 103.902344 47.5625 104.125 48.398438 104.125 C 48.886719 104.125 49.355469 104.070312 49.804688 103.953125 C 50.261719 103.839844 50.714844 103.664062 51.164062 103.421875 L 51.164062 104.609375 C 50.703125 104.796875 50.234375 104.945312 49.757812 105.046875 C 49.289062 105.148438 48.8125 105.203125 48.335938 105.203125 C 47.105469 105.203125 46.132812 104.851562 45.414062 104.140625 C 44.703125 103.421875 44.351562 102.460938 44.351562 101.25 C 44.351562 99.992188 44.6875 98.996094 45.367188 98.265625 C 46.042969 97.527344 46.960938 97.15625 48.117188 97.15625 C 49.148438 97.15625 49.960938 97.492188 50.554688 98.15625 C 51.15625 98.8125 51.460938 99.714844 51.460938 100.859375 Z M 50.195312 100.484375 C 50.183594 99.796875 49.992188 99.25 49.617188 98.84375 C 49.242188 98.429688 48.746094 98.21875 48.132812 98.21875 C 47.421875 98.21875 46.855469 98.421875 46.429688 98.828125 C 46.011719 99.226562 45.773438 99.78125 45.710938 100.5 Z M 57.945312 98.515625 C 57.808594 98.433594 57.65625 98.375 57.492188 98.34375 C 57.324219 98.304688 57.140625 98.28125 56.945312 98.28125 C 56.226562 98.28125 55.671875 98.515625 55.289062 98.984375 C 54.914062 99.445312 54.726562 100.105469 54.726562 100.96875 L 54.726562 105 L 53.460938 105 L 53.460938 97.34375 L 54.726562 97.34375 L 54.726562 98.53125 C 54.996094 98.0625 55.339844 97.71875 55.757812 97.5 C 56.183594 97.273438 56.699219 97.15625 57.304688 97.15625 C 57.398438 97.15625 57.496094 97.164062 57.601562 97.171875 C 57.703125 97.183594 57.820312 97.203125 57.945312 97.234375 Z M 63.15625 94.359375 L 63.15625 95.40625 L 61.953125 95.40625 C 61.492188 95.40625 61.175781 95.5 61 95.6875 C 60.832031 95.867188 60.75 96.195312 60.75 96.671875 L 60.75 97.34375 L 62.8125 97.34375 L 62.8125 98.328125 L 60.75 98.328125 L 60.75 105 L 59.484375 105 L 59.484375 98.328125 L 58.28125 98.328125 L 58.28125 97.34375 L 59.484375 97.34375 L 59.484375 96.8125 C 59.484375 95.960938 59.679688 95.339844 60.078125 94.953125 C 60.472656 94.558594 61.097656 94.359375 61.953125 94.359375 Z M 67.164062 98.21875 C 66.496094 98.21875 65.964844 98.484375 65.570312 99.015625 C 65.171875 99.539062 64.976562 100.257812 64.976562 101.171875 C 64.976562 102.089844 65.167969 102.8125 65.554688 103.34375 C 65.949219 103.867188 66.484375 104.125 67.164062 104.125 C 67.839844 104.125 68.371094 103.867188 68.757812 103.34375 C 69.152344 102.8125 69.351562 102.089844 69.351562 101.171875 C 69.351562 100.265625 69.152344 99.546875 68.757812 99.015625 C 68.371094 98.484375 67.839844 98.21875 67.164062 98.21875 Z M 67.164062 97.15625 C 68.257812 97.15625 69.117188 97.515625 69.742188 98.234375 C 70.367188 98.945312 70.679688 99.921875 70.679688 101.171875 C 70.679688 102.433594 70.367188 103.421875 69.742188 104.140625 C 69.117188 104.851562 68.257812 105.203125 67.164062 105.203125 C 66.070312 105.203125 65.210938 104.851562 64.585938 104.140625 C 63.960938 103.421875 63.648438 102.433594 63.648438 101.171875 C 63.648438 99.921875 63.960938 98.945312 64.585938 98.234375 C 65.210938 97.515625 66.070312 97.15625 67.164062 97.15625 Z M 77.195312 98.515625 C 77.058594 98.433594 76.90625 98.375 76.742188 98.34375 C 76.574219 98.304688 76.390625 98.28125 76.195312 98.28125 C 75.476562 98.28125 74.921875 98.515625 74.539062 98.984375 C 74.164062 99.445312 73.976562 100.105469 73.976562 100.96875 L 73.976562 105 L 72.710938 105 L 72.710938 97.34375 L 73.976562 97.34375 L 73.976562 98.53125 C 74.246094 98.0625 74.589844 97.71875 75.007812 97.5 C 75.433594 97.273438 75.949219 97.15625 76.554688 97.15625 C 76.648438 97.15625 76.746094 97.164062 76.851562 97.171875 C 76.953125 97.183594 77.070312 97.203125 77.195312 97.234375 Z M 84.238281 98.8125 C 84.550781 98.25 84.925781 97.835938 85.363281 97.5625 C 85.800781 97.292969 86.316406 97.15625 86.910156 97.15625 C 87.710938 97.15625 88.324219 97.4375 88.753906 98 C 89.191406 98.554688 89.410156 99.34375 89.410156 100.375 L 89.410156 105 L 88.144531 105 L 88.144531 100.421875 C 88.144531 99.683594 88.011719 99.136719 87.753906 98.78125 C 87.492188 98.429688 87.097656 98.25 86.566406 98.25 C 85.910156 98.25 85.394531 98.46875 85.019531 98.90625 C 84.644531 99.335938 84.457031 99.921875 84.457031 100.671875 L 84.457031 105 L 83.191406 105 L 83.191406 100.421875 C 83.191406 99.683594 83.058594 99.136719 82.800781 98.78125 C 82.539062 98.429688 82.136719 98.25 81.597656 98.25 C 80.949219 98.25 80.433594 98.46875 80.050781 98.90625 C 79.675781 99.34375 79.488281 99.933594 79.488281 100.671875 L 79.488281 105 L 78.222656 105 L 78.222656 97.34375 L 79.488281 97.34375 L 79.488281 98.53125 C 79.777344 98.0625 80.121094 97.71875 80.519531 97.5 C 80.925781 97.273438 81.402344 97.15625 81.957031 97.15625 C 82.507812 97.15625 82.976562 97.296875 83.363281 97.578125 C 83.757812 97.859375 84.050781 98.273438 84.238281 98.8125 Z M 95.390625 101.15625 C 94.378906 101.15625 93.675781 101.273438 93.28125 101.5 C 92.882812 101.730469 92.6875 102.125 92.6875 102.6875 C 92.6875 103.136719 92.832031 103.492188 93.125 103.75 C 93.425781 104.011719 93.828125 104.140625 94.328125 104.140625 C 95.023438 104.140625 95.582031 103.898438 96 103.40625 C 96.425781 102.90625 96.640625 102.25 96.640625 101.4375 L 96.640625 101.15625 Z M 97.90625 100.625 L 97.90625 105 L 96.640625 105 L 96.640625 103.84375 C 96.359375 104.304688 96 104.648438 95.5625 104.875 C 95.132812 105.09375 94.613281 105.203125 94 105.203125 C 93.21875 105.203125 92.59375 104.984375 92.125 104.546875 C 91.664062 104.101562 91.4375 103.507812 91.4375 102.765625 C 91.4375 101.914062 91.722656 101.265625 92.296875 100.828125 C 92.878906 100.390625 93.738281 100.171875 94.875 100.171875 L 96.640625 100.171875 L 96.640625 100.046875 C 96.640625 99.464844 96.445312 99.015625 96.0625 98.703125 C 95.6875 98.382812 95.15625 98.21875 94.46875 98.21875 C 94.03125 98.21875 93.601562 98.277344 93.1875 98.390625 C 92.769531 98.496094 92.375 98.652344 92 98.859375 L 92 97.6875 C 92.457031 97.511719 92.898438 97.382812 93.328125 97.296875 C 93.765625 97.203125 94.1875 97.15625 94.59375 97.15625 C 95.707031 97.15625 96.535156 97.445312 97.078125 98.015625 C 97.628906 98.589844 97.90625 99.460938 97.90625 100.625 Z M 106.859375 100.375 L 106.859375 105 L 105.59375 105 L 105.59375 100.421875 C 105.59375 99.695312 105.453125 99.152344 105.171875 98.796875 C 104.890625 98.433594 104.46875 98.25 103.90625 98.25 C 103.226562 98.25 102.691406 98.46875 102.296875 98.90625 C 101.898438 99.335938 101.703125 99.921875 101.703125 100.671875 L 101.703125 105 L 100.4375 105 L 100.4375 97.34375 L 101.703125 97.34375 L 101.703125 98.53125 C 102.003906 98.074219 102.359375 97.730469 102.765625 97.5 C 103.179688 97.273438 103.65625 97.15625 104.1875 97.15625 C 105.0625 97.15625 105.722656 97.433594 106.171875 97.984375 C 106.628906 98.527344 106.859375 99.324219 106.859375 100.375 Z M 114.875 97.640625 L 114.875 98.8125 C 114.519531 98.617188 114.160156 98.46875 113.796875 98.375 C 113.441406 98.273438 113.082031 98.21875 112.71875 98.21875 C 111.90625 98.21875 111.269531 98.480469 110.8125 99 C 110.363281 99.523438 110.140625 100.246094 110.140625 101.171875 C 110.140625 102.109375 110.363281 102.839844 110.8125 103.359375 C 111.269531 103.871094 111.90625 104.125 112.71875 104.125 C 113.082031 104.125 113.441406 104.078125 113.796875 103.984375 C 114.160156 103.890625 114.519531 103.746094 114.875 103.546875 L 114.875 104.703125 C 114.519531 104.871094 114.15625 104.996094 113.78125 105.078125 C 113.40625 105.160156 113.007812 105.203125 112.59375 105.203125 C 111.4375 105.203125 110.515625 104.84375 109.828125 104.125 C 109.148438 103.398438 108.8125 102.414062 108.8125 101.171875 C 108.8125 99.933594 109.15625 98.953125 109.84375 98.234375 C 110.53125 97.515625 111.472656 97.15625 112.671875 97.15625 C 113.054688 97.15625 113.429688 97.199219 113.796875 97.28125 C 114.171875 97.355469 114.53125 97.476562 114.875 97.640625 Z M 123.617188 100.859375 L 123.617188 101.46875 L 117.820312 101.46875 C 117.882812 102.335938 118.140625 102.996094 118.601562 103.453125 C 119.070312 103.902344 119.71875 104.125 120.554688 104.125 C 121.042969 104.125 121.511719 104.070312 121.960938 103.953125 C 122.417969 103.839844 122.871094 103.664062 123.320312 103.421875 L 123.320312 104.609375 C 122.859375 104.796875 122.390625 104.945312 121.914062 105.046875 C 121.445312 105.148438 120.96875 105.203125 120.492188 105.203125 C 119.261719 105.203125 118.289062 104.851562 117.570312 104.140625 C 116.859375 103.421875 116.507812 102.460938 116.507812 101.25 C 116.507812 99.992188 116.84375 98.996094 117.523438 98.265625 C 118.199219 97.527344 119.117188 97.15625 120.273438 97.15625 C 121.304688 97.15625 122.117188 97.492188 122.710938 98.15625 C 123.3125 98.8125 123.617188 99.714844 123.617188 100.859375 Z M 122.351562 100.484375 C 122.339844 99.796875 122.148438 99.25 121.773438 98.84375 C 121.398438 98.429688 120.902344 98.21875 120.289062 98.21875 C 119.578125 98.21875 119.011719 98.421875 118.585938 98.828125 C 118.167969 99.226562 117.929688 99.78125 117.867188 100.5 Z M 35.640625 92.003906 "/>
<path style="fill-rule:nonzero;fill:rgb(98.431373%,73.72549%,1.568627%);fill-opacity:1;stroke-width:2;stroke-linecap:butt;stroke-linejoin:miter;stroke:rgb(100%,100%,100%);stroke-opacity:1;stroke-miterlimit:10;" d="M 230 60 C 230 76.570312 216.570312 90 200 90 C 183.429688 90 170 76.570312 170 60 C 170 43.429688 183.429688 30 200 30 C 216.570312 30 230 43.429688 230 60 "/>
<path style=" stroke:none;fill-rule:nonzero;fill:rgb(100%,100%,100%);fill-opacity:1;" d="M 190.476562 65.734375 L 190.476562 63.578125 C 190.953125 63.808594 191.414062 63.980469 191.851562 64.09375 C 192.289062 64.199219 192.71875 64.25 193.148438 64.25 C 194.042969 64.25 194.742188 64.007812 195.242188 63.515625 C 195.742188 63.015625 196.03125 62.277344 196.117188 61.296875 C 195.761719 61.558594 195.382812 61.757812 194.976562 61.890625 C 194.578125 62.015625 194.148438 62.078125 193.679688 62.078125 C 192.492188 62.078125 191.527344 61.730469 190.789062 61.03125 C 190.058594 60.335938 189.695312 59.417969 189.695312 58.28125 C 189.695312 57.03125 190.101562 56.03125 190.914062 55.28125 C 191.734375 54.523438 192.828125 54.140625 194.195312 54.140625 C 195.714844 54.140625 196.890625 54.65625 197.726562 55.6875 C 198.558594 56.710938 198.976562 58.15625 198.976562 60.03125 C 198.976562 61.960938 198.484375 63.476562 197.507812 64.578125 C 196.539062 65.683594 195.203125 66.234375 193.507812 66.234375 C 192.964844 66.234375 192.445312 66.191406 191.945312 66.109375 C 191.445312 66.023438 190.953125 65.902344 190.476562 65.734375 Z M 194.179688 60.125 C 194.710938 60.125 195.105469 59.953125 195.367188 59.609375 C 195.636719 59.265625 195.773438 58.757812 195.773438 58.078125 C 195.773438 57.402344 195.636719 56.890625 195.367188 56.546875 C 195.105469 56.203125 194.710938 56.03125 194.179688 56.03125 C 193.65625 56.03125 193.261719 56.203125 192.992188 56.546875 C 192.730469 56.890625 192.601562 57.402344 192.601562 58.078125 C 192.601562 58.757812 192.730469 59.265625 192.992188 59.609375 C 193.261719 59.953125 193.65625 60.125 194.179688 60.125 Z M 205.796875 60.234375 C 205.265625 60.234375 204.867188 60.40625 204.609375 60.75 C 204.347656 61.09375 204.21875 61.605469 204.21875 62.28125 C 204.21875 62.96875 204.347656 63.484375 204.609375 63.828125 C 204.867188 64.164062 205.265625 64.328125 205.796875 64.328125 C 206.328125 64.328125 206.722656 64.164062 206.984375 63.828125 C 207.242188 63.484375 207.375 62.96875 207.375 62.28125 C 207.375 61.605469 207.242188 61.09375 206.984375 60.75 C 206.722656 60.40625 206.328125 60.234375 205.796875 60.234375 Z M 209.515625 54.640625 L 209.515625 56.796875 C 209.015625 56.558594 208.546875 56.386719 208.109375 56.28125 C 207.671875 56.167969 207.242188 56.109375 206.828125 56.109375 C 205.929688 56.109375 205.234375 56.359375 204.734375 56.859375 C 204.234375 57.351562 203.941406 58.085938 203.859375 59.0625 C 204.203125 58.8125 204.570312 58.625 204.96875 58.5 C 205.375 58.367188 205.816406 58.296875 206.296875 58.296875 C 207.484375 58.296875 208.441406 58.648438 209.171875 59.34375 C 209.910156 60.042969 210.28125 60.960938 210.28125 62.09375 C 210.28125 63.34375 209.867188 64.351562 209.046875 65.109375 C 208.234375 65.859375 207.140625 66.234375 205.765625 66.234375 C 204.242188 66.234375 203.066406 65.726562 202.234375 64.703125 C 201.410156 63.671875 201 62.214844 201 60.328125 C 201 58.402344 201.484375 56.890625 202.453125 55.796875 C 203.421875 54.695312 204.753906 54.140625 206.453125 54.140625 C 206.984375 54.140625 207.5 54.183594 208 54.265625 C 208.507812 54.351562 209.015625 54.476562 209.515625 54.640625 Z M 188.867188 51.148438 "/>
<path style=" stroke:none;fill-rule:nonzero;fill:rgb(100%,100%,100%);fill-opacity:1;" d="M 161.707031 96.15625 L 159.832031 101.234375 L 163.597656 101.234375 Z M 160.925781 94.796875 L 162.503906 94.796875 L 166.394531 105 L 164.957031 105 L 164.019531 102.375 L 159.425781 102.375 L 158.488281 105 L 157.035156 105 Z M 173.085938 97.640625 L 173.085938 98.8125 C 172.730469 98.617188 172.371094 98.46875 172.007812 98.375 C 171.652344 98.273438 171.292969 98.21875 170.929688 98.21875 C 170.117188 98.21875 169.480469 98.480469 169.023438 99 C 168.574219 99.523438 168.351562 100.246094 168.351562 101.171875 C 168.351562 102.109375 168.574219 102.839844 169.023438 103.359375 C 169.480469 103.871094 170.117188 104.125 170.929688 104.125 C 171.292969 104.125 171.652344 104.078125 172.007812 103.984375 C 172.371094 103.890625 172.730469 103.746094 173.085938 103.546875 L 173.085938 104.703125 C 172.730469 104.871094 172.367188 104.996094 171.992188 105.078125 C 171.617188 105.160156 171.21875 105.203125 170.804688 105.203125 C 169.648438 105.203125 168.726562 104.84375 168.039062 104.125 C 167.359375 103.398438 167.023438 102.414062 167.023438 101.171875 C 167.023438 99.933594 167.367188 98.953125 168.054688 98.234375 C 168.742188 97.515625 169.683594 97.15625 170.882812 97.15625 C 171.265625 97.15625 171.640625 97.199219 172.007812 97.28125 C 172.382812 97.355469 172.742188 97.476562 173.085938 97.640625 Z M 180.78125 97.640625 L 180.78125 98.8125 C 180.425781 98.617188 180.066406 98.46875 179.703125 98.375 C 179.347656 98.273438 178.988281 98.21875 178.625 98.21875 C 177.8125 98.21875 177.175781 98.480469 176.71875 99 C 176.269531 99.523438 176.046875 100.246094 176.046875 101.171875 C 176.046875 102.109375 176.269531 102.839844 176.71875 103.359375 C 177.175781 103.871094 177.8125 104.125 178.625 104.125 C 178.988281 104.125 179.347656 104.078125 179.703125 103.984375 C 180.066406 103.890625 180.425781 103.746094 180.78125 103.546875 L 180.78125 104.703125 C 180.425781 104.871094 180.0625 104.996094 179.6875 105.078125 C 179.3125 105.160156 178.914062 105.203125 178.5 105.203125 C 177.34375 105.203125 176.421875 104.84375 175.734375 104.125 C 175.054688 103.398438 174.71875 102.414062 174.71875 101.171875 C 174.71875 99.933594 175.0625 98.953125 175.75 98.234375 C 176.4375 97.515625 177.378906 97.15625 178.578125 97.15625 C 178.960938 97.15625 179.335938 97.199219 179.703125 97.28125 C 180.078125 97.355469 180.4375 97.476562 180.78125 97.640625 Z M 189.527344 100.859375 L 189.527344 101.46875 L 183.730469 101.46875 C 183.792969 102.335938 184.050781 102.996094 184.511719 103.453125 C 184.980469 103.902344 185.628906 104.125 186.464844 104.125 C 186.953125 104.125 187.421875 104.070312 187.871094 103.953125 C 188.328125 103.839844 188.78125 103.664062 189.230469 103.421875 L 189.230469 104.609375 C 188.769531 104.796875 188.300781 104.945312 187.824219 105.046875 C 187.355469 105.148438 186.878906 105.203125 186.402344 105.203125 C 185.171875 105.203125 184.199219 104.851562 183.480469 104.140625 C 182.769531 103.421875 182.417969 102.460938 182.417969 101.25 C 182.417969 99.992188 182.753906 98.996094 183.433594 98.265625 C 184.109375 97.527344 185.027344 97.15625 186.183594 97.15625 C 187.214844 97.15625 188.027344 97.492188 188.621094 98.15625 C 189.222656 98.8125 189.527344 99.714844 189.527344 100.859375 Z M 188.261719 100.484375 C 188.25 99.796875 188.058594 99.25 187.683594 98.84375 C 187.308594 98.429688 186.8125 98.21875 186.199219 98.21875 C 185.488281 98.21875 184.921875 98.421875 184.496094 98.828125 C 184.078125 99.226562 183.839844 99.78125 183.777344 100.5 Z M 196.46875 97.5625 L 196.46875 98.765625 C 196.113281 98.578125 195.742188 98.445312 195.359375 98.359375 C 194.972656 98.265625 194.578125 98.21875 194.171875 98.21875 C 193.546875 98.21875 193.078125 98.3125 192.765625 98.5 C 192.453125 98.6875 192.296875 98.976562 192.296875 99.359375 C 192.296875 99.652344 192.40625 99.882812 192.625 100.046875 C 192.851562 100.214844 193.304688 100.371094 193.984375 100.515625 L 194.40625 100.625 C 195.300781 100.8125 195.9375 101.085938 196.3125 101.4375 C 196.6875 101.78125 196.875 102.265625 196.875 102.890625 C 196.875 103.601562 196.59375 104.164062 196.03125 104.578125 C 195.46875 104.996094 194.695312 105.203125 193.71875 105.203125 C 193.300781 105.203125 192.867188 105.160156 192.421875 105.078125 C 191.984375 104.996094 191.519531 104.875 191.03125 104.71875 L 191.03125 103.421875 C 191.488281 103.664062 191.941406 103.84375 192.390625 103.96875 C 192.847656 104.085938 193.296875 104.140625 193.734375 104.140625 C 194.328125 104.140625 194.78125 104.042969 195.09375 103.84375 C 195.414062 103.636719 195.578125 103.351562 195.578125 102.984375 C 195.578125 102.640625 195.460938 102.382812 195.234375 102.203125 C 195.003906 102.015625 194.5 101.839844 193.71875 101.671875 L 193.28125 101.5625 C 192.507812 101.40625 191.945312 101.15625 191.59375 100.8125 C 191.25 100.46875 191.078125 100.007812 191.078125 99.421875 C 191.078125 98.695312 191.332031 98.136719 191.84375 97.75 C 192.351562 97.355469 193.078125 97.15625 194.015625 97.15625 C 194.484375 97.15625 194.921875 97.195312 195.328125 97.265625 C 195.742188 97.328125 196.125 97.429688 196.46875 97.5625 Z M 203.761719 97.5625 L 203.761719 98.765625 C 203.40625 98.578125 203.035156 98.445312 202.652344 98.359375 C 202.265625 98.265625 201.871094 98.21875 201.464844 98.21875 C 200.839844 98.21875 200.371094 98.3125 200.058594 98.5 C 199.746094 98.6875 199.589844 98.976562 199.589844 99.359375 C 199.589844 99.652344 199.699219 99.882812 199.917969 100.046875 C 200.144531 100.214844 200.597656 100.371094 201.277344 100.515625 L 201.699219 100.625 C 202.59375 100.8125 203.230469 101.085938 203.605469 101.4375 C 203.980469 101.78125 204.167969 102.265625 204.167969 102.890625 C 204.167969 103.601562 203.886719 104.164062 203.324219 104.578125 C 202.761719 104.996094 201.988281 105.203125 201.011719 105.203125 C 200.59375 105.203125 200.160156 105.160156 199.714844 105.078125 C 199.277344 104.996094 198.8125 104.875 198.324219 104.71875 L 198.324219 103.421875 C 198.78125 103.664062 199.234375 103.84375 199.683594 103.96875 C 200.140625 104.085938 200.589844 104.140625 201.027344 104.140625 C 201.621094 104.140625 202.074219 104.042969 202.386719 103.84375 C 202.707031 103.636719 202.871094 103.351562 202.871094 102.984375 C 202.871094 102.640625 202.753906 102.382812 202.527344 102.203125 C 202.296875 102.015625 201.792969 101.839844 201.011719 101.671875 L 200.574219 101.5625 C 199.800781 101.40625 199.238281 101.15625 198.886719 100.8125 C 198.542969 100.46875 198.371094 100.007812 198.371094 99.421875 C 198.371094 98.695312 198.625 98.136719 199.136719 97.75 C 199.644531 97.355469 200.371094 97.15625 201.308594 97.15625 C 201.777344 97.15625 202.214844 97.195312 202.621094 97.265625 C 203.035156 97.328125 203.417969 97.429688 203.761719 97.5625 Z M 206.164062 97.34375 L 207.429688 97.34375 L 207.429688 105 L 206.164062 105 Z M 206.164062 94.359375 L 207.429688 94.359375 L 207.429688 95.953125 L 206.164062 95.953125 Z M 215.554688 101.171875 C 215.554688 100.257812 215.359375 99.539062 214.976562 99.015625 C 214.601562 98.484375 214.078125 98.21875 213.414062 98.21875 C 212.746094 98.21875 212.21875 98.484375 211.835938 99.015625 C 211.460938 99.539062 211.273438 100.257812 211.273438 101.171875 C 211.273438 102.101562 211.460938 102.828125 211.835938 103.359375 C 212.21875 103.882812 212.746094 104.140625 213.414062 104.140625 C 214.078125 104.140625 214.601562 103.882812 214.976562 103.359375 C 215.359375 102.828125 215.554688 102.101562 215.554688 101.171875 Z M 211.273438 98.5 C 211.542969 98.054688 211.875 97.71875 212.273438 97.5 C 212.679688 97.273438 213.164062 97.15625 213.726562 97.15625 C 214.652344 97.15625 215.40625 97.527344 215.992188 98.265625 C 216.574219 99.007812 216.867188 99.976562 216.867188 101.171875 C 216.867188 102.382812 216.574219 103.355469 215.992188 104.09375 C 215.40625 104.835938 214.652344 105.203125 213.726562 105.203125 C 213.164062 105.203125 212.679688 105.09375 212.273438 104.875 C 211.875 104.648438 211.542969 104.304688 211.273438 103.84375 L 211.273438 105 L 210.007812 105 L 210.007812 94.359375 L 211.273438 94.359375 Z M 218.941406 97.34375 L 220.207031 97.34375 L 220.207031 105 L 218.941406 105 Z M 218.941406 94.359375 L 220.207031 94.359375 L 220.207031 95.953125 L 218.941406 95.953125 Z M 222.832031 94.359375 L 224.097656 94.359375 L 224.097656 105 L 222.832031 105 Z M 226.71875 97.34375 L 227.984375 97.34375 L 227.984375 105 L 226.71875 105 Z M 226.71875 94.359375 L 227.984375 94.359375 L 227.984375 95.953125 L 226.71875 95.953125 Z M 231.859375 95.171875 L 231.859375 97.34375 L 234.453125 97.34375 L 234.453125 98.328125 L 231.859375 98.328125 L 231.859375 102.484375 C 231.859375 103.101562 231.941406 103.5 232.109375 103.6875 C 232.285156 103.867188 232.632812 103.953125 233.15625 103.953125 L 234.453125 103.953125 L 234.453125 105 L 233.15625 105 C 232.1875 105 231.515625 104.820312 231.140625 104.453125 C 230.773438 104.089844 230.59375 103.433594 230.59375 102.484375 L 230.59375 98.328125 L 229.671875 98.328125 L 229.671875 97.34375 L 230.59375 97.34375 L 230.59375 95.171875 Z M 239.289062 105.71875 C 238.933594 106.625 238.585938 107.210938 238.242188 107.484375 C 237.90625 107.765625 237.460938 107.90625 236.898438 107.90625 L 235.898438 107.90625 L 235.898438 106.859375 L 236.632812 106.859375 C 236.976562 106.859375 237.242188 106.773438 237.429688 106.609375 C 237.625 106.453125 237.839844 106.066406 238.070312 105.453125 L 238.304688 104.875 L 235.210938 97.34375 L 236.539062 97.34375 L 238.929688 103.328125 L 241.320312 97.34375 L 242.664062 97.34375 Z M 156.925781 92.003906 "/>
<path style="fill-rule:nonzero;fill:rgb(20.392157%,65.882353%,32.54902%);fill-opacity:1;stroke-width:2;stroke-linecap:butt;stroke-linejoin:miter;stroke:rgb(100%,100%,100%);stroke-opacity:1;stroke-miterlimit:10;" d="M 350 60 C 350 76.570312 336.570312 90 320 90 C 303.429688 90 290 76.570312 290 60 C 290 43.429688 303.429688 30 320 30 C 336.570312 30 350 43.429688 350 60 "/>
<path style=" stroke:none;fill-rule:nonzero;fill:rgb(100%,100%,100%);fill-opacity:1;" d="M 305.175781 63.921875 L 307.832031 63.921875 L 307.832031 56.375 L 305.113281 56.9375 L 305.113281 54.890625 L 307.816406 54.328125 L 310.675781 54.328125 L 310.675781 63.921875 L 313.332031 63.921875 L 313.332031 66 L 305.175781 66 Z M 321.792969 60.15625 C 321.792969 58.699219 321.65625 57.671875 321.386719 57.078125 C 321.113281 56.476562 320.65625 56.171875 320.011719 56.171875 C 319.363281 56.171875 318.902344 56.476562 318.621094 57.078125 C 318.347656 57.671875 318.214844 58.699219 318.214844 60.15625 C 318.214844 61.625 318.347656 62.664062 318.621094 63.265625 C 318.902344 63.871094 319.363281 64.171875 320.011719 64.171875 C 320.644531 64.171875 321.097656 63.871094 321.371094 63.265625 C 321.652344 62.664062 321.792969 61.625 321.792969 60.15625 Z M 324.808594 60.171875 C 324.808594 62.109375 324.390625 63.605469 323.558594 64.65625 C 322.722656 65.710938 321.542969 66.234375 320.011719 66.234375 C 318.46875 66.234375 317.28125 65.710938 316.449219 64.65625 C 315.613281 63.605469 315.199219 62.109375 315.199219 60.171875 C 315.199219 58.234375 315.613281 56.746094 316.449219 55.703125 C 317.28125 54.652344 318.46875 54.125 320.011719 54.125 C 321.542969 54.125 322.722656 54.652344 323.558594 55.703125 C 324.390625 56.746094 324.808594 58.234375 324.808594 60.171875 Z M 332.925781 60.15625 C 332.925781 58.699219 332.789062 57.671875 332.519531 57.078125 C 332.246094 56.476562 331.789062 56.171875 331.144531 56.171875 C 330.496094 56.171875 330.035156 56.476562 329.753906 57.078125 C 329.480469 57.671875 329.347656 58.699219 329.347656 60.15625 C 329.347656 61.625 329.480469 62.664062 329.753906 63.265625 C 330.035156 63.871094 330.496094 64.171875 331.144531 64.171875 C 331.777344 64.171875 332.230469 63.871094 332.503906 63.265625 C 332.785156 62.664062 332.925781 61.625 332.925781 60.15625 Z M 335.941406 60.171875 C 335.941406 62.109375 335.523438 63.605469 334.691406 64.65625 C 333.855469 65.710938 332.675781 66.234375 331.144531 66.234375 C 329.601562 66.234375 328.414062 65.710938 327.582031 64.65625 C 326.746094 63.605469 326.332031 62.109375 326.332031 60.171875 C 326.332031 58.234375 326.746094 56.746094 327.582031 55.703125 C 328.414062 54.652344 329.601562 54.125 331.144531 54.125 C 332.675781 54.125 333.855469 54.652344 334.691406 55.703125 C 335.523438 56.746094 335.941406 58.234375 335.941406 60.171875 Z M 303.300781 51.148438 "/>
<path style=" stroke:none;fill-rule:nonzero;fill:rgb(100%,100%,100%);fill-opacity:1;" d="M 273.417969 100.125 L 273.417969 103.859375 L 275.636719 103.859375 C 276.375 103.859375 276.921875 103.710938 277.277344 103.40625 C 277.640625 103.09375 277.824219 102.621094 277.824219 101.984375 C 277.824219 101.351562 277.640625 100.882812 277.277344 100.578125 C 276.921875 100.277344 276.375 100.125 275.636719 100.125 Z M 273.417969 95.921875 L 273.417969 99 L 275.464844 99 C 276.140625 99 276.640625 98.875 276.964844 98.625 C 277.296875 98.375 277.464844 97.992188 277.464844 97.46875 C 277.464844 96.949219 277.296875 96.5625 276.964844 96.3125 C 276.640625 96.054688 276.140625 95.921875 275.464844 95.921875 Z M 272.042969 94.796875 L 275.574219 94.796875 C 276.625 94.796875 277.433594 95.015625 277.996094 95.453125 C 278.566406 95.890625 278.855469 96.511719 278.855469 97.3125 C 278.855469 97.9375 278.707031 98.4375 278.417969 98.8125 C 278.125 99.179688 277.699219 99.40625 277.136719 99.5 C 277.8125 99.648438 278.339844 99.953125 278.714844 100.421875 C 279.089844 100.882812 279.277344 101.453125 279.277344 102.140625 C 279.277344 103.058594 278.964844 103.765625 278.339844 104.265625 C 277.722656 104.757812 276.84375 105 275.699219 105 L 272.042969 105 Z M 288.148438 100.859375 L 288.148438 101.46875 L 282.351562 101.46875 C 282.414062 102.335938 282.671875 102.996094 283.132812 103.453125 C 283.601562 103.902344 284.25 104.125 285.085938 104.125 C 285.574219 104.125 286.042969 104.070312 286.492188 103.953125 C 286.949219 103.839844 287.402344 103.664062 287.851562 103.421875 L 287.851562 104.609375 C 287.390625 104.796875 286.921875 104.945312 286.445312 105.046875 C 285.976562 105.148438 285.5 105.203125 285.023438 105.203125 C 283.792969 105.203125 282.820312 104.851562 282.101562 104.140625 C 281.390625 103.421875 281.039062 102.460938 281.039062 101.25 C 281.039062 99.992188 281.375 98.996094 282.054688 98.265625 C 282.730469 97.527344 283.648438 97.15625 284.804688 97.15625 C 285.835938 97.15625 286.648438 97.492188 287.242188 98.15625 C 287.84375 98.8125 288.148438 99.714844 288.148438 100.859375 Z M 286.882812 100.484375 C 286.871094 99.796875 286.679688 99.25 286.304688 98.84375 C 285.929688 98.429688 285.433594 98.21875 284.820312 98.21875 C 284.109375 98.21875 283.542969 98.421875 283.117188 98.828125 C 282.699219 99.226562 282.460938 99.78125 282.398438 100.5 Z M 295.089844 97.5625 L 295.089844 98.765625 C 294.734375 98.578125 294.363281 98.445312 293.980469 98.359375 C 293.59375 98.265625 293.199219 98.21875 292.792969 98.21875 C 292.167969 98.21875 291.699219 98.3125 291.386719 98.5 C 291.074219 98.6875 290.917969 98.976562 290.917969 99.359375 C 290.917969 99.652344 291.027344 99.882812 291.246094 100.046875 C 291.472656 100.214844 291.925781 100.371094 292.605469 100.515625 L 293.027344 100.625 C 293.921875 100.8125 294.558594 101.085938 294.933594 101.4375 C 295.308594 101.78125 295.496094 102.265625 295.496094 102.890625 C 295.496094 103.601562 295.214844 104.164062 294.652344 104.578125 C 294.089844 104.996094 293.316406 105.203125 292.339844 105.203125 C 291.921875 105.203125 291.488281 105.160156 291.042969 105.078125 C 290.605469 104.996094 290.140625 104.875 289.652344 104.71875 L 289.652344 103.421875 C 290.109375 103.664062 290.5625 103.84375 291.011719 103.96875 C 291.46875 104.085938 291.917969 104.140625 292.355469 104.140625 C 292.949219 104.140625 293.402344 104.042969 293.714844 103.84375 C 294.035156 103.636719 294.199219 103.351562 294.199219 102.984375 C 294.199219 102.640625 294.082031 102.382812 293.855469 102.203125 C 293.625 102.015625 293.121094 101.839844 292.339844 101.671875 L 291.902344 101.5625 C 291.128906 101.40625 290.566406 101.15625 290.214844 100.8125 C 289.871094 100.46875 289.699219 100.007812 289.699219 99.421875 C 289.699219 98.695312 289.953125 98.136719 290.464844 97.75 C 290.972656 97.355469 291.699219 97.15625 292.636719 97.15625 C 293.105469 97.15625 293.542969 97.195312 293.949219 97.265625 C 294.363281 97.328125 294.746094 97.429688 295.089844 97.5625 Z M 298.742188 95.171875 L 298.742188 97.34375 L 301.335938 97.34375 L 301.335938 98.328125 L 298.742188 98.328125 L 298.742188 102.484375 C 298.742188 103.101562 298.824219 103.5 298.992188 103.6875 C 299.167969 103.867188 299.515625 103.953125 300.039062 103.953125 L 301.335938 103.953125 L 301.335938 105 L 300.039062 105 C 299.070312 105 298.398438 104.820312 298.023438 104.453125 C 297.65625 104.089844 297.476562 103.433594 297.476562 102.484375 L 297.476562 98.328125 L 296.554688 98.328125 L 296.554688 97.34375 L 297.476562 97.34375 L 297.476562 95.171875 Z M 308.867188 95.921875 L 308.867188 99.765625 L 310.601562 99.765625 C 311.246094 99.765625 311.746094 99.601562 312.101562 99.265625 C 312.453125 98.933594 312.632812 98.460938 312.632812 97.84375 C 312.632812 97.230469 312.453125 96.757812 312.101562 96.421875 C 311.746094 96.089844 311.246094 95.921875 310.601562 95.921875 Z M 307.492188 94.796875 L 310.601562 94.796875 C 311.746094 94.796875 312.609375 95.058594 313.195312 95.578125 C 313.789062 96.089844 314.085938 96.84375 314.085938 97.84375 C 314.085938 98.855469 313.789062 99.617188 313.195312 100.125 C 312.609375 100.636719 311.746094 100.890625 310.601562 100.890625 L 308.867188 100.890625 L 308.867188 105 L 307.492188 105 Z M 320.066406 98.515625 C 319.929688 98.433594 319.777344 98.375 319.613281 98.34375 C 319.445312 98.304688 319.261719 98.28125 319.066406 98.28125 C 318.347656 98.28125 317.792969 98.515625 317.410156 98.984375 C 317.035156 99.445312 316.847656 100.105469 316.847656 100.96875 L 316.847656 105 L 315.582031 105 L 315.582031 97.34375 L 316.847656 97.34375 L 316.847656 98.53125 C 317.117188 98.0625 317.460938 97.71875 317.878906 97.5 C 318.304688 97.273438 318.820312 97.15625 319.425781 97.15625 C 319.519531 97.15625 319.617188 97.164062 319.722656 97.171875 C 319.824219 97.183594 319.941406 97.203125 320.066406 97.234375 Z M 324.867188 101.15625 C 323.855469 101.15625 323.152344 101.273438 322.757812 101.5 C 322.359375 101.730469 322.164062 102.125 322.164062 102.6875 C 322.164062 103.136719 322.308594 103.492188 322.601562 103.75 C 322.902344 104.011719 323.304688 104.140625 323.804688 104.140625 C 324.5 104.140625 325.058594 103.898438 325.476562 103.40625 C 325.902344 102.90625 326.117188 102.25 326.117188 101.4375 L 326.117188 101.15625 Z M 327.382812 100.625 L 327.382812 105 L 326.117188 105 L 326.117188 103.84375 C 325.835938 104.304688 325.476562 104.648438 325.039062 104.875 C 324.609375 105.09375 324.089844 105.203125 323.476562 105.203125 C 322.695312 105.203125 322.070312 104.984375 321.601562 104.546875 C 321.140625 104.101562 320.914062 103.507812 320.914062 102.765625 C 320.914062 101.914062 321.199219 101.265625 321.773438 100.828125 C 322.355469 100.390625 323.214844 100.171875 324.351562 100.171875 L 326.117188 100.171875 L 326.117188 100.046875 C 326.117188 99.464844 325.921875 99.015625 325.539062 98.703125 C 325.164062 98.382812 324.632812 98.21875 323.945312 98.21875 C 323.507812 98.21875 323.078125 98.277344 322.664062 98.390625 C 322.246094 98.496094 321.851562 98.652344 321.476562 98.859375 L 321.476562 97.6875 C 321.933594 97.511719 322.375 97.382812 322.804688 97.296875 C 323.242188 97.203125 323.664062 97.15625 324.070312 97.15625 C 325.183594 97.15625 326.011719 97.445312 326.554688 98.015625 C 327.105469 98.589844 327.382812 99.460938 327.382812 100.625 Z M 335.476562 97.640625 L 335.476562 98.8125 C 335.121094 98.617188 334.761719 98.46875 334.398438 98.375 C 334.042969 98.273438 333.683594 98.21875 333.320312 98.21875 C 332.507812 98.21875 331.871094 98.480469 331.414062 99 C 330.964844 99.523438 330.742188 100.246094 330.742188 101.171875 C 330.742188 102.109375 330.964844 102.839844 331.414062 103.359375 C 331.871094 103.871094 332.507812 104.125 333.320312 104.125 C 333.683594 104.125 334.042969 104.078125 334.398438 103.984375 C 334.761719 103.890625 335.121094 103.746094 335.476562 103.546875 L 335.476562 104.703125 C 335.121094 104.871094 334.757812 104.996094 334.382812 105.078125 C 334.007812 105.160156 333.609375 105.203125 333.195312 105.203125 C 332.039062 105.203125 331.117188 104.84375 330.429688 104.125 C 329.75 103.398438 329.414062 102.414062 329.414062 101.171875 C 329.414062 99.933594 329.757812 98.953125 330.445312 98.234375 C 331.132812 97.515625 332.074219 97.15625 333.273438 97.15625 C 333.65625 97.15625 334.03125 97.199219 334.398438 97.28125 C 334.773438 97.355469 335.132812 97.476562 335.476562 97.640625 Z M 338.910156 95.171875 L 338.910156 97.34375 L 341.503906 97.34375 L 341.503906 98.328125 L 338.910156 98.328125 L 338.910156 102.484375 C 338.910156 103.101562 338.992188 103.5 339.160156 103.6875 C 339.335938 103.867188 339.683594 103.953125 340.207031 103.953125 L 341.503906 103.953125 L 341.503906 105 L 340.207031 105 C 339.238281 105 338.566406 104.820312 338.191406 104.453125 C 337.824219 104.089844 337.644531 103.433594 337.644531 102.484375 L 337.644531 98.328125 L 336.722656 98.328125 L 336.722656 97.34375 L 337.644531 97.34375 L 337.644531 95.171875 Z M 343.148438 97.34375 L 344.414062 97.34375 L 344.414062 105 L 343.148438 105 Z M 343.148438 94.359375 L 344.414062 94.359375 L 344.414062 95.953125 L 343.148438 95.953125 Z M 352.554688 97.640625 L 352.554688 98.8125 C 352.199219 98.617188 351.839844 98.46875 351.476562 98.375 C 351.121094 98.273438 350.761719 98.21875 350.398438 98.21875 C 349.585938 98.21875 348.949219 98.480469 348.492188 99 C 348.042969 99.523438 347.820312 100.246094 347.820312 101.171875 C 347.820312 102.109375 348.042969 102.839844 348.492188 103.359375 C 348.949219 103.871094 349.585938 104.125 350.398438 104.125 C 350.761719 104.125 351.121094 104.078125 351.476562 103.984375 C 351.839844 103.890625 352.199219 103.746094 352.554688 103.546875 L 352.554688 104.703125 C 352.199219 104.871094 351.835938 104.996094 351.460938 105.078125 C 351.085938 105.160156 350.6875 105.203125 350.273438 105.203125 C 349.117188 105.203125 348.195312 104.84375 347.507812 104.125 C 346.828125 103.398438 346.492188 102.414062 346.492188 101.171875 C 346.492188 99.933594 346.835938 98.953125 347.523438 98.234375 C 348.210938 97.515625 349.152344 97.15625 350.351562 97.15625 C 350.734375 97.15625 351.109375 97.199219 351.476562 97.28125 C 351.851562 97.355469 352.210938 97.476562 352.554688 97.640625 Z M 361.296875 100.859375 L 361.296875 101.46875 L 355.5 101.46875 C 355.5625 102.335938 355.820312 102.996094 356.28125 103.453125 C 356.75 103.902344 357.398438 104.125 358.234375 104.125 C 358.722656 104.125 359.191406 104.070312 359.640625 103.953125 C 360.097656 103.839844 360.550781 103.664062 361 103.421875 L 361 104.609375 C 360.539062 104.796875 360.070312 104.945312 359.59375 105.046875 C 359.125 105.148438 358.648438 105.203125 358.171875 105.203125 C 356.941406 105.203125 355.96875 104.851562 355.25 104.140625 C 354.539062 103.421875 354.1875 102.460938 354.1875 101.25 C 354.1875 99.992188 354.523438 98.996094 355.203125 98.265625 C 355.878906 97.527344 356.796875 97.15625 357.953125 97.15625 C 358.984375 97.15625 359.796875 97.492188 360.390625 98.15625 C 360.992188 98.8125 361.296875 99.714844 361.296875 100.859375 Z M 360.03125 100.484375 C 360.019531 99.796875 359.828125 99.25 359.453125 98.84375 C 359.078125 98.429688 358.582031 98.21875 357.96875 98.21875 C 357.257812 98.21875 356.691406 98.421875 356.265625 98.828125 C 355.847656 99.226562 355.609375 99.78125 355.546875 100.5 Z M 368.242188 97.5625 L 368.242188 98.765625 C 367.886719 98.578125 367.515625 98.445312 367.132812 98.359375 C 366.746094 98.265625 366.351562 98.21875 365.945312 98.21875 C 365.320312 98.21875 364.851562 98.3125 364.539062 98.5 C 364.226562 98.6875 364.070312 98.976562 364.070312 99.359375 C 364.070312 99.652344 364.179688 99.882812 364.398438 100.046875 C 364.625 100.214844 365.078125 100.371094 365.757812 100.515625 L 366.179688 100.625 C 367.074219 100.8125 367.710938 101.085938 368.085938 101.4375 C 368.460938 101.78125 368.648438 102.265625 368.648438 102.890625 C 368.648438 103.601562 368.367188 104.164062 367.804688 104.578125 C 367.242188 104.996094 366.46875 105.203125 365.492188 105.203125 C 365.074219 105.203125 364.640625 105.160156 364.195312 105.078125 C 363.757812 104.996094 363.292969 104.875 362.804688 104.71875 L 362.804688 103.421875 C 363.261719 103.664062 363.714844 103.84375 364.164062 103.96875 C 364.621094 104.085938 365.070312 104.140625 365.507812 104.140625 C 366.101562 104.140625 366.554688 104.042969 366.867188 103.84375 C 367.1875 103.636719 367.351562 103.351562 367.351562 102.984375 C 367.351562 102.640625 367.234375 102.382812 367.007812 102.203125 C 366.777344 102.015625 366.273438 101.839844 365.492188 101.671875 L 365.054688 101.5625 C 364.28125 101.40625 363.71875 101.15625 363.367188 100.8125 C 363.023438 100.46875 362.851562 100.007812 362.851562 99.421875 C 362.851562 98.695312 363.105469 98.136719 363.617188 97.75 C 364.125 97.355469 364.851562 97.15625 365.789062 97.15625 C 366.257812 97.15625 366.695312 97.195312 367.101562 97.265625 C 367.515625 97.328125 367.898438 97.429688 368.242188 97.5625 Z M 270.667969 92.003906 "/>
<path style="fill-rule:nonzero;fill:rgb(20.392157%,65.882353%,32.54902%);fill-opacity:1;stroke-width:2;stroke-linecap:butt;stroke-linejoin:miter;stroke:rgb(100%,100%,100%);stroke-opacity:1;stroke-miterlimit:10;" d="M 470 60 C 470 76.570312 456.570312 90 440 90 C 423.429688 90 410 76.570312 410 60 C 410 43.429688 423.429688 30 440 30 C 456.570312 30 470 43.429688 470 60 "/>
<path style=" stroke:none;fill-rule:nonzero;fill:rgb(100%,100%,100%);fill-opacity:1;" d="M 425.175781 63.921875 L 427.832031 63.921875 L 427.832031 56.375 L 425.113281 56.9375 L 425.113281 54.890625 L 427.816406 54.328125 L 430.675781 54.328125 L 430.675781 63.921875 L 433.332031 63.921875 L 433.332031 66 L 425.175781 66 Z M 441.792969 60.15625 C 441.792969 58.699219 441.65625 57.671875 441.386719 57.078125 C 441.113281 56.476562 440.65625 56.171875 440.011719 56.171875 C 439.363281 56.171875 438.902344 56.476562 438.621094 57.078125 C 438.347656 57.671875 438.214844 58.699219 438.214844 60.15625 C 438.214844 61.625 438.347656 62.664062 438.621094 63.265625 C 438.902344 63.871094 439.363281 64.171875 440.011719 64.171875 C 440.644531 64.171875 441.097656 63.871094 441.371094 63.265625 C 441.652344 62.664062 441.792969 61.625 441.792969 60.15625 Z M 444.808594 60.171875 C 444.808594 62.109375 444.390625 63.605469 443.558594 64.65625 C 442.722656 65.710938 441.542969 66.234375 440.011719 66.234375 C 438.46875 66.234375 437.28125 65.710938 436.449219 64.65625 C 435.613281 63.605469 435.199219 62.109375 435.199219 60.171875 C 435.199219 58.234375 435.613281 56.746094 436.449219 55.703125 C 437.28125 54.652344 438.46875 54.125 440.011719 54.125 C 441.542969 54.125 442.722656 54.652344 443.558594 55.703125 C 444.390625 56.746094 444.808594 58.234375 444.808594 60.171875 Z M 452.925781 60.15625 C 452.925781 58.699219 452.789062 57.671875 452.519531 57.078125 C 452.246094 56.476562 451.789062 56.171875 451.144531 56.171875 C 450.496094 56.171875 450.035156 56.476562 449.753906 57.078125 C 449.480469 57.671875 449.347656 58.699219 449.347656 60.15625 C 449.347656 61.625 449.480469 62.664062 449.753906 63.265625 C 450.035156 63.871094 450.496094 64.171875 451.144531 64.171875 C 451.777344 64.171875 452.230469 63.871094 452.503906 63.265625 C 452.785156 62.664062 452.925781 61.625 452.925781 60.15625 Z M 455.941406 60.171875 C 455.941406 62.109375 455.523438 63.605469 454.691406 64.65625 C 453.855469 65.710938 452.675781 66.234375 451.144531 66.234375 C 449.601562 66.234375 448.414062 65.710938 447.582031 64.65625 C 446.746094 63.605469 446.332031 62.109375 446.332031 60.171875 C 446.332031 58.234375 446.746094 56.746094 447.582031 55.703125 C 448.414062 54.652344 449.601562 54.125 451.144531 54.125 C 452.675781 54.125 453.855469 54.652344 454.691406 55.703125 C 455.523438 56.746094 455.941406 58.234375 455.941406 60.171875 Z M 423.300781 51.148438 "/>
<path style=" stroke:none;fill-rule:nonzero;fill:rgb(100%,100%,100%);fill-opacity:1;" d="M 433.125 95.125 L 433.125 96.46875 C 432.59375 96.21875 432.09375 96.039062 431.625 95.921875 C 431.164062 95.796875 430.71875 95.734375 430.28125 95.734375 C 429.53125 95.734375 428.953125 95.882812 428.546875 96.171875 C 428.140625 96.464844 427.9375 96.875 427.9375 97.40625 C 427.9375 97.867188 428.070312 98.210938 428.34375 98.4375 C 428.613281 98.667969 429.128906 98.851562 429.890625 98.984375 L 430.71875 99.15625 C 431.75 99.355469 432.507812 99.703125 433 100.203125 C 433.488281 100.695312 433.734375 101.355469 433.734375 102.1875 C 433.734375 103.179688 433.398438 103.929688 432.734375 104.4375 C 432.078125 104.949219 431.109375 105.203125 429.828125 105.203125 C 429.335938 105.203125 428.820312 105.144531 428.28125 105.03125 C 427.738281 104.929688 427.175781 104.765625 426.59375 104.546875 L 426.59375 103.125 C 427.15625 103.4375 427.703125 103.679688 428.234375 103.84375 C 428.773438 104 429.304688 104.078125 429.828125 104.078125 C 430.609375 104.078125 431.210938 103.921875 431.640625 103.609375 C 432.078125 103.296875 432.296875 102.855469 432.296875 102.28125 C 432.296875 101.78125 432.140625 101.390625 431.828125 101.109375 C 431.523438 100.828125 431.019531 100.617188 430.3125 100.46875 L 429.46875 100.3125 C 428.4375 100.105469 427.691406 99.78125 427.234375 99.34375 C 426.773438 98.90625 426.546875 98.296875 426.546875 97.515625 C 426.546875 96.621094 426.863281 95.914062 427.5 95.390625 C 428.132812 94.871094 429.007812 94.609375 430.125 94.609375 C 430.601562 94.609375 431.09375 94.65625 431.59375 94.75 C 432.09375 94.835938 432.601562 94.960938 433.125 95.125 Z M 435.886719 94.796875 L 442.339844 94.796875 L 442.339844 95.953125 L 437.261719 95.953125 L 437.261719 98.984375 L 442.121094 98.984375 L 442.121094 100.140625 L 437.261719 100.140625 L 437.261719 103.84375 L 442.464844 103.84375 L 442.464844 105 L 435.886719 105 Z M 448.875 95.734375 C 447.875 95.734375 447.078125 96.109375 446.484375 96.859375 C 445.898438 97.601562 445.609375 98.617188 445.609375 99.90625 C 445.609375 101.1875 445.898438 102.203125 446.484375 102.953125 C 447.078125 103.703125 447.875 104.078125 448.875 104.078125 C 449.875 104.078125 450.664062 103.703125 451.25 102.953125 C 451.84375 102.203125 452.140625 101.1875 452.140625 99.90625 C 452.140625 98.617188 451.84375 97.601562 451.25 96.859375 C 450.664062 96.109375 449.875 95.734375 448.875 95.734375 Z M 448.875 94.609375 C 450.300781 94.609375 451.441406 95.089844 452.296875 96.046875 C 453.160156 97.007812 453.59375 98.292969 453.59375 99.90625 C 453.59375 101.511719 453.160156 102.796875 452.296875 103.765625 C 451.441406 104.726562 450.300781 105.203125 448.875 105.203125 C 447.4375 105.203125 446.285156 104.726562 445.421875 103.765625 C 444.566406 102.808594 444.140625 101.523438 444.140625 99.90625 C 444.140625 98.292969 444.566406 97.007812 445.421875 96.046875 C 446.285156 95.089844 447.4375 94.609375 448.875 94.609375 Z M 425.625 92.003906 "/>
</g>
</svg>
