<?xml version="1.0" encoding="UTF-8"?>
<svg xmlns="http://www.w3.org/2000/svg" xmlns:xlink="http://www.w3.org/1999/xlink" width="400pt" height="120pt" viewBox="0 0 400 120" version="1.1">
<g id="surface1">
<rect x="0" y="0" width="400" height="120" style="fill:rgb(100%,100%,100%);fill-opacity:1;stroke:none;"/>
<path style=" stroke:none;fill-rule:nonzero;fill:rgb(0%,0%,0%);fill-opacity:1;" d="M 10.53125 13.328125 L 12.125 13.328125 L 14.578125 23.1875 L 17.03125 13.328125 L 18.796875 13.328125 L 21.25 23.1875 L 23.703125 13.328125 L 25.296875 13.328125 L 22.375 25 L 20.390625 25 L 17.921875 14.875 L 15.4375 25 L 13.453125 25 Z M 33.882812 20.265625 L 33.882812 20.96875 L 27.273438 20.96875 C 27.335938 21.960938 27.632812 22.714844 28.164062 23.234375 C 28.695312 23.746094 29.4375 24 30.398438 24 C 30.949219 24 31.480469 23.933594 31.992188 23.796875 C 32.511719 23.664062 33.027344 23.460938 33.539062 23.1875 L 33.539062 24.546875 C 33.027344 24.765625 32.5 24.933594 31.960938 25.046875 C 31.417969 25.171875 30.867188 25.234375 30.304688 25.234375 C 28.90625 25.234375 27.804688 24.828125 26.992188 24.015625 C 26.179688 23.195312 25.773438 22.089844 25.773438 20.703125 C 25.773438 19.277344 26.15625 18.140625 26.929688 17.296875 C 27.699219 16.453125 28.742188 16.03125 30.054688 16.03125 C 31.230469 16.03125 32.164062 16.414062 32.851562 17.171875 C 33.539062 17.933594 33.882812 18.964844 33.882812 20.265625 Z M 32.445312 19.84375 C 32.433594 19.054688 32.210938 18.421875 31.773438 17.953125 C 31.34375 17.484375 30.777344 17.25 30.070312 17.25 C 29.265625 17.25 28.625 17.480469 28.148438 17.9375 C 27.667969 18.386719 27.390625 19.023438 27.320312 19.84375 Z M 42.523438 20.625 C 42.523438 19.574219 42.304688 18.746094 41.867188 18.140625 C 41.429688 17.539062 40.828125 17.234375 40.070312 17.234375 C 39.308594 17.234375 38.710938 17.539062 38.273438 18.140625 C 37.84375 18.746094 37.632812 19.574219 37.632812 20.625 C 37.632812 21.6875 37.84375 22.523438 38.273438 23.125 C 38.710938 23.71875 39.308594 24.015625 40.070312 24.015625 C 40.828125 24.015625 41.429688 23.71875 41.867188 23.125 C 42.304688 22.523438 42.523438 21.6875 42.523438 20.625 Z M 37.632812 17.578125 C 37.933594 17.058594 38.3125 16.671875 38.773438 16.421875 C 39.230469 16.164062 39.78125 16.03125 40.429688 16.03125 C 41.492188 16.03125 42.351562 16.453125 43.007812 17.296875 C 43.671875 18.140625 44.007812 19.25 44.007812 20.625 C 44.007812 22 43.671875 23.117188 43.007812 23.96875 C 42.351562 24.8125 41.492188 25.234375 40.429688 25.234375 C 39.78125 25.234375 39.230469 25.109375 38.773438 24.859375 C 38.3125 24.601562 37.933594 24.210938 37.632812 23.6875 L 37.632812 25 L 36.179688 25 L 36.179688 12.84375 L 37.632812 12.84375 Z M 51.976562 16.5 L 51.976562 17.859375 C 51.570312 17.652344 51.148438 17.496094 50.710938 17.390625 C 50.273438 17.289062 49.820312 17.234375 49.351562 17.234375 C 48.632812 17.234375 48.09375 17.34375 47.742188 17.5625 C 47.386719 17.78125 47.210938 18.109375 47.210938 18.546875 C 47.210938 18.882812 47.335938 19.148438 47.585938 19.34375 C 47.84375 19.53125 48.359375 19.710938 49.132812 19.875 L 49.617188 19.984375 C 50.636719 20.203125 51.359375 20.515625 51.789062 20.921875 C 52.226562 21.320312 52.445312 21.871094 52.445312 22.578125 C 52.445312 23.390625 52.121094 24.039062 51.476562 24.515625 C 50.828125 24.996094 49.945312 25.234375 48.820312 25.234375 C 48.351562 25.234375 47.859375 25.1875 47.351562 25.09375 C 46.851562 25 46.320312 24.859375 45.757812 24.671875 L 45.757812 23.1875 C 46.289062 23.46875 46.808594 23.679688 47.320312 23.8125 C 47.839844 23.949219 48.351562 24.015625 48.851562 24.015625 C 49.527344 24.015625 50.046875 23.902344 50.414062 23.671875 C 50.777344 23.445312 50.960938 23.117188 50.960938 22.6875 C 50.960938 22.304688 50.828125 22.007812 50.570312 21.796875 C 50.308594 21.589844 49.730469 21.386719 48.835938 21.1875 L 48.335938 21.078125 C 47.449219 20.890625 46.808594 20.605469 46.414062 20.21875 C 46.015625 19.824219 45.820312 19.289062 45.820312 18.609375 C 45.820312 17.789062 46.109375 17.152344 46.695312 16.703125 C 47.277344 16.257812 48.105469 16.03125 49.179688 16.03125 C 49.710938 16.03125 50.210938 16.074219 50.679688 16.15625 C 51.148438 16.230469 51.578125 16.34375 51.976562 16.5 Z M 54.734375 16.25 L 56.171875 16.25 L 56.171875 25 L 54.734375 25 Z M 54.734375 12.84375 L 56.171875 12.84375 L 56.171875 14.65625 L 54.734375 14.65625 Z M 60.601562 13.765625 L 60.601562 16.25 L 63.554688 16.25 L 63.554688 17.359375 L 60.601562 17.359375 L 60.601562 22.109375 C 60.601562 22.828125 60.695312 23.292969 60.882812 23.5 C 61.078125 23.699219 61.480469 23.796875 62.085938 23.796875 L 63.554688 23.796875 L 63.554688 25 L 62.085938 25 C 60.96875 25 60.199219 24.792969 59.773438 24.375 C 59.355469 23.960938 59.148438 23.203125 59.148438 22.109375 L 59.148438 17.359375 L 58.101562 17.359375 L 58.101562 16.25 L 59.148438 16.25 L 59.148438 13.765625 Z M 72.9375 20.265625 L 72.9375 20.96875 L 66.328125 20.96875 C 66.390625 21.960938 66.6875 22.714844 67.21875 23.234375 C 67.75 23.746094 68.492188 24 69.453125 24 C 70.003906 24 70.535156 23.933594 71.046875 23.796875 C 71.566406 23.664062 72.082031 23.460938 72.59375 23.1875 L 72.59375 24.546875 C 72.082031 24.765625 71.554688 24.933594 71.015625 25.046875 C 70.472656 25.171875 69.921875 25.234375 69.359375 25.234375 C 67.960938 25.234375 66.859375 24.828125 66.046875 24.015625 C 65.234375 23.195312 64.828125 22.089844 64.828125 20.703125 C 64.828125 19.277344 65.210938 18.140625 65.984375 17.296875 C 66.753906 16.453125 67.796875 16.03125 69.109375 16.03125 C 70.285156 16.03125 71.21875 16.414062 71.90625 17.171875 C 72.59375 17.933594 72.9375 18.964844 72.9375 20.265625 Z M 71.5 19.84375 C 71.488281 19.054688 71.265625 18.421875 70.828125 17.953125 C 70.398438 17.484375 69.832031 17.25 69.125 17.25 C 68.320312 17.25 67.679688 17.480469 67.203125 17.9375 C 66.722656 18.386719 66.445312 19.023438 66.375 19.84375 Z M 82.023438 14.625 L 82.023438 19.015625 L 84.007812 19.015625 C 84.734375 19.015625 85.296875 18.828125 85.695312 18.453125 C 86.101562 18.070312 86.304688 17.523438 86.304688 16.8125 C 86.304688 16.117188 86.101562 15.578125 85.695312 15.203125 C 85.296875 14.820312 84.734375 14.625 84.007812 14.625 Z M 80.445312 13.328125 L 84.007812 13.328125 C 85.308594 13.328125 86.292969 13.625 86.960938 14.21875 C 87.636719 14.8125 87.976562 15.679688 87.976562 16.8125 C 87.976562 17.96875 87.636719 18.84375 86.960938 19.4375 C 86.292969 20.023438 85.308594 20.3125 84.007812 20.3125 L 82.023438 20.3125 L 82.023438 25 L 80.445312 25 Z M 96.945312 20.265625 L 96.945312 20.96875 L 90.335938 20.96875 C 90.398438 21.960938 90.695312 22.714844 91.226562 23.234375 C 91.757812 23.746094 92.5 24 93.460938 24 C 94.011719 24 94.542969 23.933594 95.054688 23.796875 C 95.574219 23.664062 96.089844 23.460938 96.601562 23.1875 L 96.601562 24.546875 C 96.089844 24.765625 95.5625 24.933594 95.023438 25.046875 C 94.480469 25.171875 93.929688 25.234375 93.367188 25.234375 C 91.96875 25.234375 90.867188 24.828125 90.054688 24.015625 C 89.242188 23.195312 88.835938 22.089844 88.835938 20.703125 C 88.835938 19.277344 89.21875 18.140625 89.992188 17.296875 C 90.761719 16.453125 91.804688 16.03125 93.117188 16.03125 C 94.292969 16.03125 95.226562 16.414062 95.914062 17.171875 C 96.601562 17.933594 96.945312 18.964844 96.945312 20.265625 Z M 95.507812 19.84375 C 95.496094 19.054688 95.273438 18.421875 94.835938 17.953125 C 94.40625 17.484375 93.839844 17.25 93.132812 17.25 C 92.328125 17.25 91.6875 17.480469 91.210938 17.9375 C 90.730469 18.386719 90.453125 19.023438 90.382812 19.84375 Z M 104.367188 17.59375 C 104.210938 17.5 104.03125 17.433594 103.835938 17.390625 C 103.648438 17.339844 103.4375 17.3125 103.210938 17.3125 C 102.398438 17.3125 101.773438 17.578125 101.335938 18.109375 C 100.90625 18.640625 100.695312 19.402344 100.695312 20.390625 L 100.695312 25 L 99.242188 25 L 99.242188 16.25 L 100.695312 16.25 L 100.695312 17.609375 C 100.996094 17.078125 101.386719 16.683594 101.867188 16.421875 C 102.355469 16.164062 102.945312 16.03125 103.632812 16.03125 C 103.734375 16.03125 103.84375 16.042969 103.960938 16.0625 C 104.085938 16.074219 104.21875 16.089844 104.367188 16.109375 Z M 110.304688 12.84375 L 110.304688 14.03125 L 108.929688 14.03125 C 108.417969 14.03125 108.058594 14.136719 107.851562 14.34375 C 107.652344 14.554688 107.554688 14.929688 107.554688 15.46875 L 107.554688 16.25 L 109.929688 16.25 L 109.929688 17.359375 L 107.554688 17.359375 L 107.554688 25 L 106.117188 25 L 106.117188 17.359375 L 104.742188 17.359375 L 104.742188 16.25 L 106.117188 16.25 L 106.117188 15.640625 C 106.117188 14.664062 106.339844 13.953125 106.789062 13.515625 C 107.246094 13.070312 107.964844 12.84375 108.945312 12.84375 Z M 114.90625 17.25 C 114.132812 17.25 113.523438 17.554688 113.078125 18.15625 C 112.628906 18.761719 112.40625 19.585938 112.40625 20.625 C 112.40625 21.679688 112.625 22.507812 113.0625 23.109375 C 113.507812 23.703125 114.125 24 114.90625 24 C 115.664062 24 116.269531 23.699219 116.71875 23.09375 C 117.164062 22.492188 117.390625 21.667969 117.390625 20.625 C 117.390625 19.59375 117.164062 18.777344 116.71875 18.171875 C 116.269531 17.558594 115.664062 17.25 114.90625 17.25 Z M 114.90625 16.03125 C 116.15625 16.03125 117.132812 16.4375 117.84375 17.25 C 118.5625 18.0625 118.921875 19.1875 118.921875 20.625 C 118.921875 22.0625 118.5625 23.195312 117.84375 24.015625 C 117.132812 24.828125 116.15625 25.234375 114.90625 25.234375 C 113.644531 25.234375 112.660156 24.828125 111.953125 24.015625 C 111.242188 23.195312 110.890625 22.0625 110.890625 20.625 C 110.890625 19.1875 111.242188 18.0625 111.953125 17.25 C 112.660156 16.4375 113.644531 16.03125 114.90625 16.03125 Z M 126.367188 17.59375 C 126.210938 17.5 126.03125 17.433594 125.835938 17.390625 C 125.648438 17.339844 125.4375 17.3125 125.210938 17.3125 C 124.398438 17.3125 123.773438 17.578125 123.335938 18.109375 C 122.90625 18.640625 122.695312 19.402344 122.695312 20.390625 L 122.695312 25 L 121.242188 25 L 121.242188 16.25 L 122.695312 16.25 L 122.695312 17.609375 C 122.996094 17.078125 123.386719 16.683594 123.867188 16.421875 C 124.355469 16.164062 124.945312 16.03125 125.632812 16.03125 C 125.734375 16.03125 125.84375 16.042969 125.960938 16.0625 C 126.085938 16.074219 126.21875 16.089844 126.367188 16.109375 Z M 134.414062 17.921875 C 134.765625 17.277344 135.195312 16.804688 135.695312 16.5 C 136.195312 16.1875 136.78125 16.03125 137.460938 16.03125 C 138.375 16.03125 139.078125 16.355469 139.570312 17 C 140.070312 17.636719 140.320312 18.542969 140.320312 19.71875 L 140.320312 25 L 138.867188 25 L 138.867188 19.765625 C 138.867188 18.921875 138.714844 18.296875 138.414062 17.890625 C 138.121094 17.484375 137.671875 17.28125 137.070312 17.28125 C 136.320312 17.28125 135.726562 17.53125 135.289062 18.03125 C 134.859375 18.523438 134.648438 19.195312 134.648438 20.046875 L 134.648438 25 L 133.210938 25 L 133.210938 19.765625 C 133.210938 18.921875 133.058594 18.296875 132.757812 17.890625 C 132.464844 17.484375 132.007812 17.28125 131.382812 17.28125 C 130.652344 17.28125 130.070312 17.53125 129.632812 18.03125 C 129.203125 18.53125 128.992188 19.203125 128.992188 20.046875 L 128.992188 25 L 127.539062 25 L 127.539062 16.25 L 128.992188 16.25 L 128.992188 17.609375 C 129.3125 17.070312 129.703125 16.671875 130.164062 16.421875 C 130.621094 16.164062 131.167969 16.03125 131.804688 16.03125 C 132.4375 16.03125 132.976562 16.195312 133.414062 16.515625 C 133.859375 16.839844 134.195312 17.308594 134.414062 17.921875 Z M 147.15625 20.59375 C 146 20.59375 145.195312 20.730469 144.75 21 C 144.300781 21.261719 144.078125 21.714844 144.078125 22.359375 C 144.078125 22.871094 144.242188 23.277344 144.578125 23.578125 C 144.910156 23.871094 145.367188 24.015625 145.953125 24.015625 C 146.742188 24.015625 147.378906 23.734375 147.859375 23.171875 C 148.347656 22.609375 148.59375 21.859375 148.59375 20.921875 L 148.59375 20.59375 Z M 150.03125 20 L 150.03125 25 L 148.59375 25 L 148.59375 23.671875 C 148.257812 24.203125 147.847656 24.601562 147.359375 24.859375 C 146.867188 25.109375 146.269531 25.234375 145.5625 25.234375 C 144.664062 25.234375 143.953125 24.984375 143.421875 24.484375 C 142.898438 23.976562 142.640625 23.296875 142.640625 22.453125 C 142.640625 21.464844 142.96875 20.71875 143.625 20.21875 C 144.28125 19.71875 145.265625 19.46875 146.578125 19.46875 L 148.59375 19.46875 L 148.59375 19.328125 C 148.59375 18.671875 148.375 18.164062 147.9375 17.796875 C 147.5 17.433594 146.890625 17.25 146.109375 17.25 C 145.609375 17.25 145.117188 17.3125 144.640625 17.4375 C 144.171875 17.554688 143.71875 17.730469 143.28125 17.96875 L 143.28125 16.640625 C 143.800781 16.445312 144.304688 16.292969 144.796875 16.1875 C 145.296875 16.085938 145.78125 16.03125 146.25 16.03125 C 147.519531 16.03125 148.46875 16.359375 149.09375 17.015625 C 149.71875 17.671875 150.03125 18.667969 150.03125 20 Z M 160.257812 19.71875 L 160.257812 25 L 158.820312 25 L 158.820312 19.765625 C 158.820312 18.933594 158.65625 18.3125 158.335938 17.90625 C 158.011719 17.492188 157.527344 17.28125 156.882812 17.28125 C 156.109375 17.28125 155.5 17.53125 155.054688 18.03125 C 154.605469 18.523438 154.382812 19.195312 154.382812 20.046875 L 154.382812 25 L 152.929688 25 L 152.929688 16.25 L 154.382812 16.25 L 154.382812 17.609375 C 154.726562 17.078125 155.125 16.683594 155.585938 16.421875 C 156.054688 16.164062 156.59375 16.03125 157.210938 16.03125 C 158.210938 16.03125 158.964844 16.34375 159.476562 16.96875 C 159.996094 17.59375 160.257812 18.511719 160.257812 19.71875 Z M 169.429688 16.578125 L 169.429688 17.921875 C 169.023438 17.703125 168.609375 17.539062 168.195312 17.421875 C 167.789062 17.308594 167.375 17.25 166.960938 17.25 C 166.03125 17.25 165.308594 17.546875 164.789062 18.140625 C 164.277344 18.734375 164.023438 19.5625 164.023438 20.625 C 164.023438 21.699219 164.277344 22.53125 164.789062 23.125 C 165.308594 23.710938 166.03125 24 166.960938 24 C 167.375 24 167.789062 23.949219 168.195312 23.84375 C 168.609375 23.730469 169.023438 23.558594 169.429688 23.328125 L 169.429688 24.65625 C 169.023438 24.84375 168.605469 24.984375 168.179688 25.078125 C 167.75 25.179688 167.292969 25.234375 166.804688 25.234375 C 165.492188 25.234375 164.445312 24.820312 163.664062 23.984375 C 162.890625 23.152344 162.507812 22.03125 162.507812 20.625 C 162.507812 19.199219 162.898438 18.078125 163.679688 17.265625 C 164.460938 16.445312 165.53125 16.03125 166.898438 16.03125 C 167.34375 16.03125 167.777344 16.078125 168.195312 16.171875 C 168.621094 16.265625 169.03125 16.402344 169.429688 16.578125 Z M 179.414062 20.265625 L 179.414062 20.96875 L 172.804688 20.96875 C 172.867188 21.960938 173.164062 22.714844 173.695312 23.234375 C 174.226562 23.746094 174.96875 24 175.929688 24 C 176.480469 24 177.011719 23.933594 177.523438 23.796875 C 178.042969 23.664062 178.558594 23.460938 179.070312 23.1875 L 179.070312 24.546875 C 178.558594 24.765625 178.03125 24.933594 177.492188 25.046875 C 176.949219 25.171875 176.398438 25.234375 175.835938 25.234375 C 174.4375 25.234375 173.335938 24.828125 172.523438 24.015625 C 171.710938 23.195312 171.304688 22.089844 171.304688 20.703125 C 171.304688 19.277344 171.6875 18.140625 172.460938 17.296875 C 173.230469 16.453125 174.273438 16.03125 175.585938 16.03125 C 176.761719 16.03125 177.695312 16.414062 178.382812 17.171875 C 179.070312 17.933594 179.414062 18.964844 179.414062 20.265625 Z M 177.976562 19.84375 C 177.964844 19.054688 177.742188 18.421875 177.304688 17.953125 C 176.875 17.484375 176.308594 17.25 175.601562 17.25 C 174.796875 17.25 174.15625 17.480469 173.679688 17.9375 C 173.199219 18.386719 172.921875 19.023438 172.851562 19.84375 Z M 186.921875 13.328125 L 189.265625 13.328125 L 192.25 21.265625 L 195.234375 13.328125 L 197.59375 13.328125 L 197.59375 25 L 196.046875 25 L 196.046875 14.75 L 193.046875 22.75 L 191.453125 22.75 L 188.453125 14.75 L 188.453125 25 L 186.921875 25 Z M 208.148438 20.265625 L 208.148438 20.96875 L 201.539062 20.96875 C 201.601562 21.960938 201.898438 22.714844 202.429688 23.234375 C 202.960938 23.746094 203.703125 24 204.664062 24 C 205.214844 24 205.746094 23.933594 206.257812 23.796875 C 206.777344 23.664062 207.292969 23.460938 207.804688 23.1875 L 207.804688 24.546875 C 207.292969 24.765625 206.765625 24.933594 206.226562 25.046875 C 205.683594 25.171875 205.132812 25.234375 204.570312 25.234375 C 203.171875 25.234375 202.070312 24.828125 201.257812 24.015625 C 200.445312 23.195312 200.039062 22.089844 200.039062 20.703125 C 200.039062 19.277344 200.421875 18.140625 201.195312 17.296875 C 201.964844 16.453125 203.007812 16.03125 204.320312 16.03125 C 205.496094 16.03125 206.429688 16.414062 207.117188 17.171875 C 207.804688 17.933594 208.148438 18.964844 208.148438 20.265625 Z M 206.710938 19.84375 C 206.699219 19.054688 206.476562 18.421875 206.039062 17.953125 C 205.609375 17.484375 205.042969 17.25 204.335938 17.25 C 203.53125 17.25 202.890625 17.480469 202.414062 17.9375 C 201.933594 18.386719 201.65625 19.023438 201.585938 19.84375 Z M 211.929688 13.765625 L 211.929688 16.25 L 214.882812 16.25 L 214.882812 17.359375 L 211.929688 17.359375 L 211.929688 22.109375 C 211.929688 22.828125 212.023438 23.292969 212.210938 23.5 C 212.40625 23.699219 212.808594 23.796875 213.414062 23.796875 L 214.882812 23.796875 L 214.882812 25 L 213.414062 25 C 212.296875 25 211.527344 24.792969 211.101562 24.375 C 210.683594 23.960938 210.476562 23.203125 210.476562 22.109375 L 210.476562 17.359375 L 209.429688 17.359375 L 209.429688 16.25 L 210.476562 16.25 L 210.476562 13.765625 Z M 221.84375 17.59375 C 221.6875 17.5 221.507812 17.433594 221.3125 17.390625 C 221.125 17.339844 220.914062 17.3125 220.6875 17.3125 C 219.875 17.3125 219.25 17.578125 218.8125 18.109375 C 218.382812 18.640625 218.171875 19.402344 218.171875 20.390625 L 218.171875 25 L 216.71875 25 L 216.71875 16.25 L 218.171875 16.25 L 218.171875 17.609375 C 218.472656 17.078125 218.863281 16.683594 219.34375 16.421875 C 219.832031 16.164062 220.421875 16.03125 221.109375 16.03125 C 221.210938 16.03125 221.320312 16.042969 221.4375 16.0625 C 221.5625 16.074219 221.695312 16.089844 221.84375 16.109375 Z M 223.359375 16.25 L 224.796875 16.25 L 224.796875 25 L 223.359375 25 Z M 223.359375 12.84375 L 224.796875 12.84375 L 224.796875 14.65625 L 223.359375 14.65625 Z M 234.101562 16.578125 L 234.101562 17.921875 C 233.695312 17.703125 233.28125 17.539062 232.867188 17.421875 C 232.460938 17.308594 232.046875 17.25 231.632812 17.25 C 230.703125 17.25 229.980469 17.546875 229.460938 18.140625 C 228.949219 18.734375 228.695312 19.5625 228.695312 20.625 C 228.695312 21.699219 228.949219 22.53125 229.460938 23.125 C 229.980469 23.710938 230.703125 24 231.632812 24 C 232.046875 24 232.460938 23.949219 232.867188 23.84375 C 233.28125 23.730469 233.695312 23.558594 234.101562 23.328125 L 234.101562 24.65625 C 233.695312 24.84375 233.277344 24.984375 232.851562 25.078125 C 232.421875 25.179688 231.964844 25.234375 231.476562 25.234375 C 230.164062 25.234375 229.117188 24.820312 228.335938 23.984375 C 227.5625 23.152344 227.179688 22.03125 227.179688 20.625 C 227.179688 19.199219 227.570312 18.078125 228.351562 17.265625 C 229.132812 16.445312 230.203125 16.03125 231.570312 16.03125 C 232.015625 16.03125 232.449219 16.078125 232.867188 16.171875 C 233.292969 16.265625 233.703125 16.402344 234.101562 16.578125 Z M 242.179688 16.5 L 242.179688 17.859375 C 241.773438 17.652344 241.351562 17.496094 240.914062 17.390625 C 240.476562 17.289062 240.023438 17.234375 239.554688 17.234375 C 238.835938 17.234375 238.296875 17.34375 237.945312 17.5625 C 237.589844 17.78125 237.414062 18.109375 237.414062 18.546875 C 237.414062 18.882812 237.539062 19.148438 237.789062 19.34375 C 238.046875 19.53125 238.5625 19.710938 239.335938 19.875 L 239.820312 19.984375 C 240.839844 20.203125 241.5625 20.515625 241.992188 20.921875 C 242.429688 21.320312 242.648438 21.871094 242.648438 22.578125 C 242.648438 23.390625 242.324219 24.039062 241.679688 24.515625 C 241.03125 24.996094 240.148438 25.234375 239.023438 25.234375 C 238.554688 25.234375 238.0625 25.1875 237.554688 25.09375 C 237.054688 25 236.523438 24.859375 235.960938 24.671875 L 235.960938 23.1875 C 236.492188 23.46875 237.011719 23.679688 237.523438 23.8125 C 238.042969 23.949219 238.554688 24.015625 239.054688 24.015625 C 239.730469 24.015625 240.25 23.902344 240.617188 23.671875 C 240.980469 23.445312 241.164062 23.117188 241.164062 22.6875 C 241.164062 22.304688 241.03125 22.007812 240.773438 21.796875 C 240.511719 21.589844 239.933594 21.386719 239.039062 21.1875 L 238.539062 21.078125 C 237.652344 20.890625 237.011719 20.605469 236.617188 20.21875 C 236.21875 19.824219 236.023438 19.289062 236.023438 18.609375 C 236.023438 17.789062 236.3125 17.152344 236.898438 16.703125 C 237.480469 16.257812 238.308594 16.03125 239.382812 16.03125 C 239.914062 16.03125 240.414062 16.074219 240.882812 16.15625 C 241.351562 16.230469 241.78125 16.34375 242.179688 16.5 Z M 10 10.148438 "/>
<path style=" stroke:none;fill-rule:nonzero;fill:rgb(0%,0%,0%);fill-opacity:1;" d="M 13.15625 39.625 L 13.15625 44.015625 L 15.140625 44.015625 C 15.867188 44.015625 16.429688 43.828125 16.828125 43.453125 C 17.234375 43.070312 17.4375 42.523438 17.4375 41.8125 C 17.4375 41.117188 17.234375 40.578125 16.828125 40.203125 C 16.429688 39.820312 15.867188 39.625 15.140625 39.625 Z M 11.578125 38.328125 L 15.140625 38.328125 C 16.441406 38.328125 17.425781 38.625 18.09375 39.21875 C 18.769531 39.8125 19.109375 40.679688 19.109375 41.8125 C 19.109375 42.96875 18.769531 43.84375 18.09375 44.4375 C 17.425781 45.023438 16.441406 45.3125 15.140625 45.3125 L 13.15625 45.3125 L 13.15625 50 L 11.578125 50 Z M 28.078125 45.265625 L 28.078125 45.96875 L 21.46875 45.96875 C 21.53125 46.960938 21.828125 47.714844 22.359375 48.234375 C 22.890625 48.746094 23.632812 49 24.59375 49 C 25.144531 49 25.675781 48.933594 26.1875 48.796875 C 26.707031 48.664062 27.222656 48.460938 27.734375 48.1875 L 27.734375 49.546875 C 27.222656 49.765625 26.695312 49.933594 26.15625 50.046875 C 25.613281 50.171875 25.0625 50.234375 24.5 50.234375 C 23.101562 50.234375 22 49.828125 21.1875 49.015625 C 20.375 48.195312 19.96875 47.089844 19.96875 45.703125 C 19.96875 44.277344 20.351562 43.140625 21.125 42.296875 C 21.894531 41.453125 22.9375 41.03125 24.25 41.03125 C 25.425781 41.03125 26.359375 41.414062 27.046875 42.171875 C 27.734375 42.933594 28.078125 43.964844 28.078125 45.265625 Z M 26.640625 44.84375 C 26.628906 44.054688 26.40625 43.421875 25.96875 42.953125 C 25.539062 42.484375 24.972656 42.25 24.265625 42.25 C 23.460938 42.25 22.820312 42.480469 22.34375 42.9375 C 21.863281 43.386719 21.585938 44.023438 21.515625 44.84375 Z M 35.5 42.59375 C 35.34375 42.5 35.164062 42.433594 34.96875 42.390625 C 34.78125 42.339844 34.570312 42.3125 34.34375 42.3125 C 33.53125 42.3125 32.90625 42.578125 32.46875 43.109375 C 32.039062 43.640625 31.828125 44.402344 31.828125 45.390625 L 31.828125 50 L 30.375 50 L 30.375 41.25 L 31.828125 41.25 L 31.828125 42.609375 C 32.128906 42.078125 32.519531 41.683594 33 41.421875 C 33.488281 41.164062 34.078125 41.03125 34.765625 41.03125 C 34.867188 41.03125 34.976562 41.042969 35.09375 41.0625 C 35.21875 41.074219 35.351562 41.089844 35.5 41.109375 Z M 41.4375 37.84375 L 41.4375 39.03125 L 40.0625 39.03125 C 39.550781 39.03125 39.191406 39.136719 38.984375 39.34375 C 38.785156 39.554688 38.6875 39.929688 38.6875 40.46875 L 38.6875 41.25 L 41.0625 41.25 L 41.0625 42.359375 L 38.6875 42.359375 L 38.6875 50 L 37.25 50 L 37.25 42.359375 L 35.875 42.359375 L 35.875 41.25 L 37.25 41.25 L 37.25 40.640625 C 37.25 39.664062 37.472656 38.953125 37.921875 38.515625 C 38.378906 38.070312 39.097656 37.84375 40.078125 37.84375 Z M 46.039062 42.25 C 45.265625 42.25 44.65625 42.554688 44.210938 43.15625 C 43.761719 43.761719 43.539062 44.585938 43.539062 45.625 C 43.539062 46.679688 43.757812 47.507812 44.195312 48.109375 C 44.640625 48.703125 45.257812 49 46.039062 49 C 46.796875 49 47.402344 48.699219 47.851562 48.09375 C 48.296875 47.492188 48.523438 46.667969 48.523438 45.625 C 48.523438 44.59375 48.296875 43.777344 47.851562 43.171875 C 47.402344 42.558594 46.796875 42.25 46.039062 42.25 Z M 46.039062 41.03125 C 47.289062 41.03125 48.265625 41.4375 48.976562 42.25 C 49.695312 43.0625 50.054688 44.1875 50.054688 45.625 C 50.054688 47.0625 49.695312 48.195312 48.976562 49.015625 C 48.265625 49.828125 47.289062 50.234375 46.039062 50.234375 C 44.777344 50.234375 43.792969 49.828125 43.085938 49.015625 C 42.375 48.195312 42.023438 47.0625 42.023438 45.625 C 42.023438 44.1875 42.375 43.0625 43.085938 42.25 C 43.792969 41.4375 44.777344 41.03125 46.039062 41.03125 Z M 57.5 42.59375 C 57.34375 42.5 57.164062 42.433594 56.96875 42.390625 C 56.78125 42.339844 56.570312 42.3125 56.34375 42.3125 C 55.53125 42.3125 54.90625 42.578125 54.46875 43.109375 C 54.039062 43.640625 53.828125 44.402344 53.828125 45.390625 L 53.828125 50 L 52.375 50 L 52.375 41.25 L 53.828125 41.25 L 53.828125 42.609375 C 54.128906 42.078125 54.519531 41.683594 55 41.421875 C 55.488281 41.164062 56.078125 41.03125 56.765625 41.03125 C 56.867188 41.03125 56.976562 41.042969 57.09375 41.0625 C 57.21875 41.074219 57.351562 41.089844 57.5 41.109375 Z M 65.546875 42.921875 C 65.898438 42.277344 66.328125 41.804688 66.828125 41.5 C 67.328125 41.1875 67.914062 41.03125 68.59375 41.03125 C 69.507812 41.03125 70.210938 41.355469 70.703125 42 C 71.203125 42.636719 71.453125 43.542969 71.453125 44.71875 L 71.453125 50 L 70 50 L 70 44.765625 C 70 43.921875 69.847656 43.296875 69.546875 42.890625 C 69.253906 42.484375 68.804688 42.28125 68.203125 42.28125 C 67.453125 42.28125 66.859375 42.53125 66.421875 43.03125 C 65.992188 43.523438 65.78125 44.195312 65.78125 45.046875 L 65.78125 50 L 64.34375 50 L 64.34375 44.765625 C 64.34375 43.921875 64.191406 43.296875 63.890625 42.890625 C 63.597656 42.484375 63.140625 42.28125 62.515625 42.28125 C 61.785156 42.28125 61.203125 42.53125 60.765625 43.03125 C 60.335938 43.53125 60.125 44.203125 60.125 45.046875 L 60.125 50 L 58.671875 50 L 58.671875 41.25 L 60.125 41.25 L 60.125 42.609375 C 60.445312 42.070312 60.835938 41.671875 61.296875 41.421875 C 61.753906 41.164062 62.300781 41.03125 62.9375 41.03125 C 63.570312 41.03125 64.109375 41.195312 64.546875 41.515625 C 64.992188 41.839844 65.328125 42.308594 65.546875 42.921875 Z M 78.289062 45.59375 C 77.132812 45.59375 76.328125 45.730469 75.882812 46 C 75.433594 46.261719 75.210938 46.714844 75.210938 47.359375 C 75.210938 47.871094 75.375 48.277344 75.710938 48.578125 C 76.042969 48.871094 76.5 49.015625 77.085938 49.015625 C 77.875 49.015625 78.511719 48.734375 78.992188 48.171875 C 79.480469 47.609375 79.726562 46.859375 79.726562 45.921875 L 79.726562 45.59375 Z M 81.164062 45 L 81.164062 50 L 79.726562 50 L 79.726562 48.671875 C 79.390625 49.203125 78.980469 49.601562 78.492188 49.859375 C 78 50.109375 77.402344 50.234375 76.695312 50.234375 C 75.796875 50.234375 75.085938 49.984375 74.554688 49.484375 C 74.03125 48.976562 73.773438 48.296875 73.773438 47.453125 C 73.773438 46.464844 74.101562 45.71875 74.757812 45.21875 C 75.414062 44.71875 76.398438 44.46875 77.710938 44.46875 L 79.726562 44.46875 L 79.726562 44.328125 C 79.726562 43.671875 79.507812 43.164062 79.070312 42.796875 C 78.632812 42.433594 78.023438 42.25 77.242188 42.25 C 76.742188 42.25 76.25 42.3125 75.773438 42.4375 C 75.304688 42.554688 74.851562 42.730469 74.414062 42.96875 L 74.414062 41.640625 C 74.933594 41.445312 75.4375 41.292969 75.929688 41.1875 C 76.429688 41.085938 76.914062 41.03125 77.382812 41.03125 C 78.652344 41.03125 79.601562 41.359375 80.226562 42.015625 C 80.851562 42.671875 81.164062 43.667969 81.164062 45 Z M 91.390625 44.71875 L 91.390625 50 L 89.953125 50 L 89.953125 44.765625 C 89.953125 43.933594 89.789062 43.3125 89.46875 42.90625 C 89.144531 42.492188 88.660156 42.28125 88.015625 42.28125 C 87.242188 42.28125 86.632812 42.53125 86.1875 43.03125 C 85.738281 43.523438 85.515625 44.195312 85.515625 45.046875 L 85.515625 50 L 84.0625 50 L 84.0625 41.25 L 85.515625 41.25 L 85.515625 42.609375 C 85.859375 42.078125 86.257812 41.683594 86.71875 41.421875 C 87.1875 41.164062 87.726562 41.03125 88.34375 41.03125 C 89.34375 41.03125 90.097656 41.34375 90.609375 41.96875 C 91.128906 42.59375 91.390625 43.511719 91.390625 44.71875 Z M 100.5625 41.578125 L 100.5625 42.921875 C 100.15625 42.703125 99.742188 42.539062 99.328125 42.421875 C 98.921875 42.308594 98.507812 42.25 98.09375 42.25 C 97.164062 42.25 96.441406 42.546875 95.921875 43.140625 C 95.410156 43.734375 95.15625 44.5625 95.15625 45.625 C 95.15625 46.699219 95.410156 47.53125 95.921875 48.125 C 96.441406 48.710938 97.164062 49 98.09375 49 C 98.507812 49 98.921875 48.949219 99.328125 48.84375 C 99.742188 48.730469 100.15625 48.558594 100.5625 48.328125 L 100.5625 49.65625 C 100.15625 49.84375 99.738281 49.984375 99.3125 50.078125 C 98.882812 50.179688 98.425781 50.234375 97.9375 50.234375 C 96.625 50.234375 95.578125 49.820312 94.796875 48.984375 C 94.023438 48.152344 93.640625 47.03125 93.640625 45.625 C 93.640625 44.199219 94.03125 43.078125 94.8125 42.265625 C 95.59375 41.445312 96.664062 41.03125 98.03125 41.03125 C 98.476562 41.03125 98.910156 41.078125 99.328125 41.171875 C 99.753906 41.265625 100.164062 41.402344 100.5625 41.578125 Z M 110.546875 45.265625 L 110.546875 45.96875 L 103.9375 45.96875 C 104 46.960938 104.296875 47.714844 104.828125 48.234375 C 105.359375 48.746094 106.101562 49 107.0625 49 C 107.613281 49 108.144531 48.933594 108.65625 48.796875 C 109.175781 48.664062 109.691406 48.460938 110.203125 48.1875 L 110.203125 49.546875 C 109.691406 49.765625 109.164062 49.933594 108.625 50.046875 C 108.082031 50.171875 107.53125 50.234375 106.96875 50.234375 C 105.570312 50.234375 104.46875 49.828125 103.65625 49.015625 C 102.84375 48.195312 102.4375 47.089844 102.4375 45.703125 C 102.4375 44.277344 102.820312 43.140625 103.59375 42.296875 C 104.363281 41.453125 105.40625 41.03125 106.71875 41.03125 C 107.894531 41.03125 108.828125 41.414062 109.515625 42.171875 C 110.203125 42.933594 110.546875 43.964844 110.546875 45.265625 Z M 109.109375 44.84375 C 109.097656 44.054688 108.875 43.421875 108.4375 42.953125 C 108.007812 42.484375 107.441406 42.25 106.734375 42.25 C 105.929688 42.25 105.289062 42.480469 104.8125 42.9375 C 104.332031 43.386719 104.054688 44.023438 103.984375 44.84375 Z M 113.265625 48.015625 L 114.921875 48.015625 L 114.921875 50 L 113.265625 50 Z M 113.265625 41.71875 L 114.921875 41.71875 L 114.921875 43.703125 L 113.265625 43.703125 Z M 123.632812 49.75 L 123.632812 48.3125 C 124.027344 48.5 124.429688 48.648438 124.835938 48.75 C 125.242188 48.84375 125.636719 48.890625 126.023438 48.890625 C 127.0625 48.890625 127.859375 48.542969 128.414062 47.84375 C 128.964844 47.148438 129.277344 46.085938 129.351562 44.65625 C 129.046875 45.105469 128.664062 45.449219 128.195312 45.6875 C 127.734375 45.929688 127.226562 46.046875 126.664062 46.046875 C 125.496094 46.046875 124.574219 45.695312 123.898438 44.984375 C 123.21875 44.277344 122.882812 43.3125 122.882812 42.09375 C 122.882812 40.898438 123.234375 39.9375 123.945312 39.21875 C 124.652344 38.492188 125.59375 38.125 126.773438 38.125 C 128.117188 38.125 129.140625 38.640625 129.851562 39.671875 C 130.570312 40.703125 130.929688 42.203125 130.929688 44.171875 C 130.929688 46.015625 130.492188 47.492188 129.617188 48.59375 C 128.742188 49.6875 127.570312 50.234375 126.101562 50.234375 C 125.703125 50.234375 125.304688 50.191406 124.898438 50.109375 C 124.492188 50.023438 124.070312 49.90625 123.632812 49.75 Z M 126.773438 44.8125 C 127.480469 44.8125 128.039062 44.574219 128.445312 44.09375 C 128.859375 43.605469 129.070312 42.9375 129.070312 42.09375 C 129.070312 41.25 128.859375 40.589844 128.445312 40.109375 C 128.039062 39.621094 127.480469 39.375 126.773438 39.375 C 126.0625 39.375 125.5 39.621094 125.085938 40.109375 C 124.667969 40.589844 124.460938 41.25 124.460938 42.09375 C 124.460938 42.9375 124.667969 43.605469 125.085938 44.09375 C 125.5 44.574219 126.0625 44.8125 126.773438 44.8125 Z M 133.8125 49.75 L 133.8125 48.3125 C 134.207031 48.5 134.609375 48.648438 135.015625 48.75 C 135.421875 48.84375 135.816406 48.890625 136.203125 48.890625 C 137.242188 48.890625 138.039062 48.542969 138.59375 47.84375 C 139.144531 47.148438 139.457031 46.085938 139.53125 44.65625 C 139.226562 45.105469 138.84375 45.449219 138.375 45.6875 C 137.914062 45.929688 137.40625 46.046875 136.84375 46.046875 C 135.675781 46.046875 134.753906 45.695312 134.078125 44.984375 C 133.398438 44.277344 133.0625 43.3125 133.0625 42.09375 C 133.0625 40.898438 133.414062 39.9375 134.125 39.21875 C 134.832031 38.492188 135.773438 38.125 136.953125 38.125 C 138.296875 38.125 139.320312 38.640625 140.03125 39.671875 C 140.75 40.703125 141.109375 42.203125 141.109375 44.171875 C 141.109375 46.015625 140.671875 47.492188 139.796875 48.59375 C 138.921875 49.6875 137.75 50.234375 136.28125 50.234375 C 135.882812 50.234375 135.484375 50.191406 135.078125 50.109375 C 134.671875 50.023438 134.25 49.90625 133.8125 49.75 Z M 136.953125 44.8125 C 137.660156 44.8125 138.21875 44.574219 138.625 44.09375 C 139.039062 43.605469 139.25 42.9375 139.25 42.09375 C 139.25 41.25 139.039062 40.589844 138.625 40.109375 C 138.21875 39.621094 137.660156 39.375 136.953125 39.375 C 136.242188 39.375 135.679688 39.621094 135.265625 40.109375 C 134.847656 40.589844 134.640625 41.25 134.640625 42.09375 C 134.640625 42.9375 134.847656 43.605469 135.265625 44.09375 C 135.679688 44.574219 136.242188 44.8125 136.953125 44.8125 Z M 10 35.148438 "/>
<path style=" stroke:none;fill-rule:nonzero;fill:rgb(0%,0%,0%);fill-opacity:1;" d="M 15.46875 59.890625 L 13.328125 65.6875 L 17.625 65.6875 Z M 14.578125 58.328125 L 16.375 58.328125 L 20.8125 70 L 19.171875 70 L 18.109375 67 L 12.859375 67 L 11.796875 70 L 10.125 70 Z M 28.476562 61.578125 L 28.476562 62.921875 C 28.070312 62.703125 27.65625 62.539062 27.242188 62.421875 C 26.835938 62.308594 26.421875 62.25 26.007812 62.25 C 25.078125 62.25 24.355469 62.546875 23.835938 63.140625 C 23.324219 63.734375 23.070312 64.5625 23.070312 65.625 C 23.070312 66.699219 23.324219 67.53125 23.835938 68.125 C 24.355469 68.710938 25.078125 69 26.007812 69 C 26.421875 69 26.835938 68.949219 27.242188 68.84375 C 27.65625 68.730469 28.070312 68.558594 28.476562 68.328125 L 28.476562 69.65625 C 28.070312 69.84375 27.652344 69.984375 27.226562 70.078125 C 26.796875 70.179688 26.339844 70.234375 25.851562 70.234375 C 24.539062 70.234375 23.492188 69.820312 22.710938 68.984375 C 21.9375 68.152344 21.554688 67.03125 21.554688 65.625 C 21.554688 64.199219 21.945312 63.078125 22.726562 62.265625 C 23.507812 61.445312 24.578125 61.03125 25.945312 61.03125 C 26.390625 61.03125 26.824219 61.078125 27.242188 61.171875 C 27.667969 61.265625 28.078125 61.402344 28.476562 61.578125 Z M 37.273438 61.578125 L 37.273438 62.921875 C 36.867188 62.703125 36.453125 62.539062 36.039062 62.421875 C 35.632812 62.308594 35.21875 62.25 34.804688 62.25 C 33.875 62.25 33.152344 62.546875 32.632812 63.140625 C 32.121094 63.734375 31.867188 64.5625 31.867188 65.625 C 31.867188 66.699219 32.121094 67.53125 32.632812 68.125 C 33.152344 68.710938 33.875 69 34.804688 69 C 35.21875 69 35.632812 68.949219 36.039062 68.84375 C 36.453125 68.730469 36.867188 68.558594 37.273438 68.328125 L 37.273438 69.65625 C 36.867188 69.84375 36.449219 69.984375 36.023438 70.078125 C 35.59375 70.179688 35.136719 70.234375 34.648438 70.234375 C 33.335938 70.234375 32.289062 69.820312 31.507812 68.984375 C 30.734375 68.152344 30.351562 67.03125 30.351562 65.625 C 30.351562 64.199219 30.742188 63.078125 31.523438 62.265625 C 32.304688 61.445312 33.375 61.03125 34.742188 61.03125 C 35.1875 61.03125 35.621094 61.078125 36.039062 61.171875 C 36.464844 61.265625 36.875 61.402344 37.273438 61.578125 Z M 47.257812 65.265625 L 47.257812 65.96875 L 40.648438 65.96875 C 40.710938 66.960938 41.007812 67.714844 41.539062 68.234375 C 42.070312 68.746094 42.8125 69 43.773438 69 C 44.324219 69 44.855469 68.933594 45.367188 68.796875 C 45.886719 68.664062 46.402344 68.460938 46.914062 68.1875 L 46.914062 69.546875 C 46.402344 69.765625 45.875 69.933594 45.335938 70.046875 C 44.792969 70.171875 44.242188 70.234375 43.679688 70.234375 C 42.28125 70.234375 41.179688 69.828125 40.367188 69.015625 C 39.554688 68.195312 39.148438 67.089844 39.148438 65.703125 C 39.148438 64.277344 39.53125 63.140625 40.304688 62.296875 C 41.074219 61.453125 42.117188 61.03125 43.429688 61.03125 C 44.605469 61.03125 45.539062 61.414062 46.226562 62.171875 C 46.914062 62.933594 47.257812 63.964844 47.257812 65.265625 Z M 45.820312 64.84375 C 45.808594 64.054688 45.585938 63.421875 45.148438 62.953125 C 44.71875 62.484375 44.152344 62.25 43.445312 62.25 C 42.640625 62.25 42 62.480469 41.523438 62.9375 C 41.042969 63.386719 40.765625 64.023438 40.695312 64.84375 Z M 55.195312 61.5 L 55.195312 62.859375 C 54.789062 62.652344 54.367188 62.496094 53.929688 62.390625 C 53.492188 62.289062 53.039062 62.234375 52.570312 62.234375 C 51.851562 62.234375 51.3125 62.34375 50.960938 62.5625 C 50.605469 62.78125 50.429688 63.109375 50.429688 63.546875 C 50.429688 63.882812 50.554688 64.148438 50.804688 64.34375 C 51.0625 64.53125 51.578125 64.710938 52.351562 64.875 L 52.835938 64.984375 C 53.855469 65.203125 54.578125 65.515625 55.007812 65.921875 C 55.445312 66.320312 55.664062 66.871094 55.664062 67.578125 C 55.664062 68.390625 55.339844 69.039062 54.695312 69.515625 C 54.046875 69.996094 53.164062 70.234375 52.039062 70.234375 C 51.570312 70.234375 51.078125 70.1875 50.570312 70.09375 C 50.070312 70 49.539062 69.859375 48.976562 69.671875 L 48.976562 68.1875 C 49.507812 68.46875 50.027344 68.679688 50.539062 68.8125 C 51.058594 68.949219 51.570312 69.015625 52.070312 69.015625 C 52.746094 69.015625 53.265625 68.902344 53.632812 68.671875 C 53.996094 68.445312 54.179688 68.117188 54.179688 67.6875 C 54.179688 67.304688 54.046875 67.007812 53.789062 66.796875 C 53.527344 66.589844 52.949219 66.386719 52.054688 66.1875 L 51.554688 66.078125 C 50.667969 65.890625 50.027344 65.605469 49.632812 65.21875 C 49.234375 64.824219 49.039062 64.289062 49.039062 63.609375 C 49.039062 62.789062 49.328125 62.152344 49.914062 61.703125 C 50.496094 61.257812 51.324219 61.03125 52.398438 61.03125 C 52.929688 61.03125 53.429688 61.074219 53.898438 61.15625 C 54.367188 61.230469 54.796875 61.34375 55.195312 61.5 Z M 63.53125 61.5 L 63.53125 62.859375 C 63.125 62.652344 62.703125 62.496094 62.265625 62.390625 C 61.828125 62.289062 61.375 62.234375 60.90625 62.234375 C 60.1875 62.234375 59.648438 62.34375 59.296875 62.5625 C 58.941406 62.78125 58.765625 63.109375 58.765625 63.546875 C 58.765625 63.882812 58.890625 64.148438 59.140625 64.34375 C 59.398438 64.53125 59.914062 64.710938 60.6875 64.875 L 61.171875 64.984375 C 62.191406 65.203125 62.914062 65.515625 63.34375 65.921875 C 63.78125 66.320312 64 66.871094 64 67.578125 C 64 68.390625 63.675781 69.039062 63.03125 69.515625 C 62.382812 69.996094 61.5 70.234375 60.375 70.234375 C 59.90625 70.234375 59.414062 70.1875 58.90625 70.09375 C 58.40625 70 57.875 69.859375 57.3125 69.671875 L 57.3125 68.1875 C 57.84375 68.46875 58.363281 68.679688 58.875 68.8125 C 59.394531 68.949219 59.90625 69.015625 60.40625 69.015625 C 61.082031 69.015625 61.601562 68.902344 61.96875 68.671875 C 62.332031 68.445312 62.515625 68.117188 62.515625 67.6875 C 62.515625 67.304688 62.382812 67.007812 62.125 66.796875 C 61.863281 66.589844 61.285156 66.386719 60.390625 66.1875 L 59.890625 66.078125 C 59.003906 65.890625 58.363281 65.605469 57.96875 65.21875 C 57.570312 64.824219 57.375 64.289062 57.375 63.609375 C 57.375 62.789062 57.664062 62.152344 58.25 61.703125 C 58.832031 61.257812 59.660156 61.03125 60.734375 61.03125 C 61.265625 61.03125 61.765625 61.074219 62.234375 61.15625 C 62.703125 61.230469 63.132812 61.34375 63.53125 61.5 Z M 66.289062 61.25 L 67.726562 61.25 L 67.726562 70 L 66.289062 70 Z M 66.289062 57.84375 L 67.726562 57.84375 L 67.726562 59.65625 L 66.289062 59.65625 Z M 77.015625 65.625 C 77.015625 64.574219 76.796875 63.746094 76.359375 63.140625 C 75.921875 62.539062 75.320312 62.234375 74.5625 62.234375 C 73.800781 62.234375 73.203125 62.539062 72.765625 63.140625 C 72.335938 63.746094 72.125 64.574219 72.125 65.625 C 72.125 66.6875 72.335938 67.523438 72.765625 68.125 C 73.203125 68.71875 73.800781 69.015625 74.5625 69.015625 C 75.320312 69.015625 75.921875 68.71875 76.359375 68.125 C 76.796875 67.523438 77.015625 66.6875 77.015625 65.625 Z M 72.125 62.578125 C 72.425781 62.058594 72.804688 61.671875 73.265625 61.421875 C 73.722656 61.164062 74.273438 61.03125 74.921875 61.03125 C 75.984375 61.03125 76.84375 61.453125 77.5 62.296875 C 78.164062 63.140625 78.5 64.25 78.5 65.625 C 78.5 67 78.164062 68.117188 77.5 68.96875 C 76.84375 69.8125 75.984375 70.234375 74.921875 70.234375 C 74.273438 70.234375 73.722656 70.109375 73.265625 69.859375 C 72.804688 69.601562 72.425781 69.210938 72.125 68.6875 L 72.125 70 L 70.671875 70 L 70.671875 57.84375 L 72.125 57.84375 Z M 80.890625 61.25 L 82.328125 61.25 L 82.328125 70 L 80.890625 70 Z M 80.890625 57.84375 L 82.328125 57.84375 L 82.328125 59.65625 L 80.890625 59.65625 Z M 85.335938 57.84375 L 86.773438 57.84375 L 86.773438 70 L 85.335938 70 Z M 89.78125 61.25 L 91.21875 61.25 L 91.21875 70 L 89.78125 70 Z M 89.78125 57.84375 L 91.21875 57.84375 L 91.21875 59.65625 L 89.78125 59.65625 Z M 95.648438 58.765625 L 95.648438 61.25 L 98.601562 61.25 L 98.601562 62.359375 L 95.648438 62.359375 L 95.648438 67.109375 C 95.648438 67.828125 95.742188 68.292969 95.929688 68.5 C 96.125 68.699219 96.527344 68.796875 97.132812 68.796875 L 98.601562 68.796875 L 98.601562 70 L 97.132812 70 C 96.015625 70 95.246094 69.792969 94.820312 69.375 C 94.402344 68.960938 94.195312 68.203125 94.195312 67.109375 L 94.195312 62.359375 L 93.148438 62.359375 L 93.148438 61.25 L 94.195312 61.25 L 94.195312 58.765625 Z M 104.140625 70.8125 C 103.734375 71.851562 103.335938 72.53125 102.953125 72.84375 C 102.566406 73.164062 102.050781 73.328125 101.40625 73.328125 L 100.25 73.328125 L 100.25 72.125 L 101.09375 72.125 C 101.488281 72.125 101.796875 72.03125 102.015625 71.84375 C 102.234375 71.65625 102.476562 71.210938 102.75 70.515625 L 103 69.859375 L 99.46875 61.25 L 100.984375 61.25 L 103.71875 68.09375 L 106.453125 61.25 L 107.984375 61.25 Z M 109.164062 68.015625 L 110.820312 68.015625 L 110.820312 70 L 109.164062 70 Z M 109.164062 61.71875 L 110.820312 61.71875 L 110.820312 63.703125 L 109.164062 63.703125 Z M 119.53125 69.75 L 119.53125 68.3125 C 119.925781 68.5 120.328125 68.648438 120.734375 68.75 C 121.140625 68.84375 121.535156 68.890625 121.921875 68.890625 C 122.960938 68.890625 123.757812 68.542969 124.3125 67.84375 C 124.863281 67.148438 125.175781 66.085938 125.25 64.65625 C 124.945312 65.105469 124.5625 65.449219 124.09375 65.6875 C 123.632812 65.929688 123.125 66.046875 122.5625 66.046875 C 121.394531 66.046875 120.472656 65.695312 119.796875 64.984375 C 119.117188 64.277344 118.78125 63.3125 118.78125 62.09375 C 118.78125 60.898438 119.132812 59.9375 119.84375 59.21875 C 120.550781 58.492188 121.492188 58.125 122.671875 58.125 C 124.015625 58.125 125.039062 58.640625 125.75 59.671875 C 126.46875 60.703125 126.828125 62.203125 126.828125 64.171875 C 126.828125 66.015625 126.390625 67.492188 125.515625 68.59375 C 124.640625 69.6875 123.46875 70.234375 122 70.234375 C 121.601562 70.234375 121.203125 70.191406 120.796875 70.109375 C 120.390625 70.023438 119.96875 69.90625 119.53125 69.75 Z M 122.671875 64.8125 C 123.378906 64.8125 123.9375 64.574219 124.34375 64.09375 C 124.757812 63.605469 124.96875 62.9375 124.96875 62.09375 C 124.96875 61.25 124.757812 60.589844 124.34375 60.109375 C 123.9375 59.621094 123.378906 59.375 122.671875 59.375 C 121.960938 59.375 121.398438 59.621094 120.984375 60.109375 C 120.566406 60.589844 120.359375 61.25 120.359375 62.09375 C 120.359375 62.9375 120.566406 63.605469 120.984375 64.09375 C 121.398438 64.574219 121.960938 64.8125 122.671875 64.8125 Z M 133.226562 63.53125 C 132.515625 63.53125 131.953125 63.777344 131.539062 64.265625 C 131.132812 64.746094 130.929688 65.40625 130.929688 66.25 C 130.929688 67.09375 131.132812 67.761719 131.539062 68.25 C 131.953125 68.730469 132.515625 68.96875 133.226562 68.96875 C 133.933594 68.96875 134.496094 68.730469 134.914062 68.25 C 135.328125 67.761719 135.539062 67.09375 135.539062 66.25 C 135.539062 65.40625 135.328125 64.746094 134.914062 64.265625 C 134.496094 63.777344 133.933594 63.53125 133.226562 63.53125 Z M 136.367188 58.59375 L 136.367188 60.03125 C 135.96875 59.84375 135.570312 59.703125 135.164062 59.609375 C 134.757812 59.507812 134.355469 59.453125 133.960938 59.453125 C 132.917969 59.453125 132.121094 59.808594 131.570312 60.515625 C 131.027344 61.214844 130.714844 62.273438 130.632812 63.6875 C 130.945312 63.242188 131.328125 62.898438 131.789062 62.65625 C 132.257812 62.40625 132.765625 62.28125 133.320312 62.28125 C 134.496094 62.28125 135.421875 62.640625 136.101562 63.359375 C 136.777344 64.070312 137.117188 65.03125 137.117188 66.25 C 137.117188 67.449219 136.761719 68.414062 136.054688 69.140625 C 135.34375 69.871094 134.402344 70.234375 133.226562 70.234375 C 131.882812 70.234375 130.851562 69.71875 130.132812 68.6875 C 129.421875 67.648438 129.070312 66.140625 129.070312 64.171875 C 129.070312 62.328125 129.507812 60.859375 130.382812 59.765625 C 131.257812 58.671875 132.429688 58.125 133.898438 58.125 C 134.292969 58.125 134.695312 58.167969 135.101562 58.25 C 135.507812 58.324219 135.929688 58.4375 136.367188 58.59375 Z M 10 55.148438 "/>
<path style=" stroke:none;fill-rule:nonzero;fill:rgb(0%,0%,0%);fill-opacity:1;" d="M 13.15625 84.421875 L 13.15625 88.703125 L 15.6875 88.703125 C 16.53125 88.703125 17.15625 88.527344 17.5625 88.171875 C 17.976562 87.820312 18.1875 87.28125 18.1875 86.5625 C 18.1875 85.835938 17.976562 85.296875 17.5625 84.953125 C 17.15625 84.601562 16.53125 84.421875 15.6875 84.421875 Z M 13.15625 79.625 L 13.15625 83.140625 L 15.484375 83.140625 C 16.253906 83.140625 16.828125 83 17.203125 82.71875 C 17.585938 82.429688 17.78125 81.984375 17.78125 81.390625 C 17.78125 80.796875 17.585938 80.355469 17.203125 80.0625 C 16.828125 79.773438 16.253906 79.625 15.484375 79.625 Z M 11.578125 78.328125 L 15.609375 78.328125 C 16.804688 78.328125 17.726562 78.578125 18.375 79.078125 C 19.03125 79.578125 19.359375 80.292969 19.359375 81.21875 C 19.359375 81.929688 19.191406 82.496094 18.859375 82.921875 C 18.523438 83.339844 18.035156 83.601562 17.390625 83.703125 C 18.171875 83.871094 18.773438 84.21875 19.203125 84.75 C 19.628906 85.28125 19.84375 85.945312 19.84375 86.734375 C 19.84375 87.777344 19.488281 88.585938 18.78125 89.15625 C 18.070312 89.71875 17.066406 90 15.765625 90 L 11.578125 90 Z M 29.976562 85.265625 L 29.976562 85.96875 L 23.367188 85.96875 C 23.429688 86.960938 23.726562 87.714844 24.257812 88.234375 C 24.789062 88.746094 25.53125 89 26.492188 89 C 27.042969 89 27.574219 88.933594 28.085938 88.796875 C 28.605469 88.664062 29.121094 88.460938 29.632812 88.1875 L 29.632812 89.546875 C 29.121094 89.765625 28.59375 89.933594 28.054688 90.046875 C 27.511719 90.171875 26.960938 90.234375 26.398438 90.234375 C 25 90.234375 23.898438 89.828125 23.085938 89.015625 C 22.273438 88.195312 21.867188 87.089844 21.867188 85.703125 C 21.867188 84.277344 22.25 83.140625 23.023438 82.296875 C 23.792969 81.453125 24.835938 81.03125 26.148438 81.03125 C 27.324219 81.03125 28.257812 81.414062 28.945312 82.171875 C 29.632812 82.933594 29.976562 83.964844 29.976562 85.265625 Z M 28.539062 84.84375 C 28.527344 84.054688 28.304688 83.421875 27.867188 82.953125 C 27.4375 82.484375 26.871094 82.25 26.164062 82.25 C 25.359375 82.25 24.71875 82.480469 24.242188 82.9375 C 23.761719 83.386719 23.484375 84.023438 23.414062 84.84375 Z M 37.914062 81.5 L 37.914062 82.859375 C 37.507812 82.652344 37.085938 82.496094 36.648438 82.390625 C 36.210938 82.289062 35.757812 82.234375 35.289062 82.234375 C 34.570312 82.234375 34.03125 82.34375 33.679688 82.5625 C 33.324219 82.78125 33.148438 83.109375 33.148438 83.546875 C 33.148438 83.882812 33.273438 84.148438 33.523438 84.34375 C 33.78125 84.53125 34.296875 84.710938 35.070312 84.875 L 35.554688 84.984375 C 36.574219 85.203125 37.296875 85.515625 37.726562 85.921875 C 38.164062 86.320312 38.382812 86.871094 38.382812 87.578125 C 38.382812 88.390625 38.058594 89.039062 37.414062 89.515625 C 36.765625 89.996094 35.882812 90.234375 34.757812 90.234375 C 34.289062 90.234375 33.796875 90.1875 33.289062 90.09375 C 32.789062 90 32.257812 89.859375 31.695312 89.671875 L 31.695312 88.1875 C 32.226562 88.46875 32.746094 88.679688 33.257812 88.8125 C 33.777344 88.949219 34.289062 89.015625 34.789062 89.015625 C 35.464844 89.015625 35.984375 88.902344 36.351562 88.671875 C 36.714844 88.445312 36.898438 88.117188 36.898438 87.6875 C 36.898438 87.304688 36.765625 87.007812 36.507812 86.796875 C 36.246094 86.589844 35.667969 86.386719 34.773438 86.1875 L 34.273438 86.078125 C 33.386719 85.890625 32.746094 85.605469 32.351562 85.21875 C 31.953125 84.824219 31.757812 84.289062 31.757812 83.609375 C 31.757812 82.789062 32.046875 82.152344 32.632812 81.703125 C 33.214844 81.257812 34.042969 81.03125 35.117188 81.03125 C 35.648438 81.03125 36.148438 81.074219 36.617188 81.15625 C 37.085938 81.230469 37.515625 81.34375 37.914062 81.5 Z M 42.09375 78.765625 L 42.09375 81.25 L 45.046875 81.25 L 45.046875 82.359375 L 42.09375 82.359375 L 42.09375 87.109375 C 42.09375 87.828125 42.1875 88.292969 42.375 88.5 C 42.570312 88.699219 42.972656 88.796875 43.578125 88.796875 L 45.046875 88.796875 L 45.046875 90 L 43.578125 90 C 42.460938 90 41.691406 89.792969 41.265625 89.375 C 40.847656 88.960938 40.640625 88.203125 40.640625 87.109375 L 40.640625 82.359375 L 39.59375 82.359375 L 39.59375 81.25 L 40.640625 81.25 L 40.640625 78.765625 Z M 53.671875 79.625 L 53.671875 84.015625 L 55.65625 84.015625 C 56.382812 84.015625 56.945312 83.828125 57.34375 83.453125 C 57.75 83.070312 57.953125 82.523438 57.953125 81.8125 C 57.953125 81.117188 57.75 80.578125 57.34375 80.203125 C 56.945312 79.820312 56.382812 79.625 55.65625 79.625 Z M 52.09375 78.328125 L 55.65625 78.328125 C 56.957031 78.328125 57.941406 78.625 58.609375 79.21875 C 59.285156 79.8125 59.625 80.679688 59.625 81.8125 C 59.625 82.96875 59.285156 83.84375 58.609375 84.4375 C 57.941406 85.023438 56.957031 85.3125 55.65625 85.3125 L 53.671875 85.3125 L 53.671875 90 L 52.09375 90 Z M 66.460938 82.59375 C 66.304688 82.5 66.125 82.433594 65.929688 82.390625 C 65.742188 82.339844 65.53125 82.3125 65.304688 82.3125 C 64.492188 82.3125 63.867188 82.578125 63.429688 83.109375 C 63 83.640625 62.789062 84.402344 62.789062 85.390625 L 62.789062 90 L 61.335938 90 L 61.335938 81.25 L 62.789062 81.25 L 62.789062 82.609375 C 63.089844 82.078125 63.480469 81.683594 63.960938 81.421875 C 64.449219 81.164062 65.039062 81.03125 65.726562 81.03125 C 65.828125 81.03125 65.9375 81.042969 66.054688 81.0625 C 66.179688 81.074219 66.3125 81.089844 66.460938 81.109375 Z M 71.945312 85.59375 C 70.789062 85.59375 69.984375 85.730469 69.539062 86 C 69.089844 86.261719 68.867188 86.714844 68.867188 87.359375 C 68.867188 87.871094 69.03125 88.277344 69.367188 88.578125 C 69.699219 88.871094 70.15625 89.015625 70.742188 89.015625 C 71.53125 89.015625 72.167969 88.734375 72.648438 88.171875 C 73.136719 87.609375 73.382812 86.859375 73.382812 85.921875 L 73.382812 85.59375 Z M 74.820312 85 L 74.820312 90 L 73.382812 90 L 73.382812 88.671875 C 73.046875 89.203125 72.636719 89.601562 72.148438 89.859375 C 71.65625 90.109375 71.058594 90.234375 70.351562 90.234375 C 69.453125 90.234375 68.742188 89.984375 68.210938 89.484375 C 67.6875 88.976562 67.429688 88.296875 67.429688 87.453125 C 67.429688 86.464844 67.757812 85.71875 68.414062 85.21875 C 69.070312 84.71875 70.054688 84.46875 71.367188 84.46875 L 73.382812 84.46875 L 73.382812 84.328125 C 73.382812 83.671875 73.164062 83.164062 72.726562 82.796875 C 72.289062 82.433594 71.679688 82.25 70.898438 82.25 C 70.398438 82.25 69.90625 82.3125 69.429688 82.4375 C 68.960938 82.554688 68.507812 82.730469 68.070312 82.96875 L 68.070312 81.640625 C 68.589844 81.445312 69.09375 81.292969 69.585938 81.1875 C 70.085938 81.085938 70.570312 81.03125 71.039062 81.03125 C 72.308594 81.03125 73.257812 81.359375 73.882812 82.015625 C 74.507812 82.671875 74.820312 83.667969 74.820312 85 Z M 84.078125 81.578125 L 84.078125 82.921875 C 83.671875 82.703125 83.257812 82.539062 82.84375 82.421875 C 82.4375 82.308594 82.023438 82.25 81.609375 82.25 C 80.679688 82.25 79.957031 82.546875 79.4375 83.140625 C 78.925781 83.734375 78.671875 84.5625 78.671875 85.625 C 78.671875 86.699219 78.925781 87.53125 79.4375 88.125 C 79.957031 88.710938 80.679688 89 81.609375 89 C 82.023438 89 82.4375 88.949219 82.84375 88.84375 C 83.257812 88.730469 83.671875 88.558594 84.078125 88.328125 L 84.078125 89.65625 C 83.671875 89.84375 83.253906 89.984375 82.828125 90.078125 C 82.398438 90.179688 81.941406 90.234375 81.453125 90.234375 C 80.140625 90.234375 79.09375 89.820312 78.3125 88.984375 C 77.539062 88.152344 77.15625 87.03125 77.15625 85.625 C 77.15625 84.199219 77.546875 83.078125 78.328125 82.265625 C 79.109375 81.445312 80.179688 81.03125 81.546875 81.03125 C 81.992188 81.03125 82.425781 81.078125 82.84375 81.171875 C 83.269531 81.265625 83.679688 81.402344 84.078125 81.578125 Z M 88 78.765625 L 88 81.25 L 90.953125 81.25 L 90.953125 82.359375 L 88 82.359375 L 88 87.109375 C 88 87.828125 88.09375 88.292969 88.28125 88.5 C 88.476562 88.699219 88.878906 88.796875 89.484375 88.796875 L 90.953125 88.796875 L 90.953125 90 L 89.484375 90 C 88.367188 90 87.597656 89.792969 87.171875 89.375 C 86.753906 88.960938 86.546875 88.203125 86.546875 87.109375 L 86.546875 82.359375 L 85.5 82.359375 L 85.5 81.25 L 86.546875 81.25 L 86.546875 78.765625 Z M 92.851562 81.25 L 94.289062 81.25 L 94.289062 90 L 92.851562 90 Z M 92.851562 77.84375 L 94.289062 77.84375 L 94.289062 79.65625 L 92.851562 79.65625 Z M 103.59375 81.578125 L 103.59375 82.921875 C 103.1875 82.703125 102.773438 82.539062 102.359375 82.421875 C 101.953125 82.308594 101.539062 82.25 101.125 82.25 C 100.195312 82.25 99.472656 82.546875 98.953125 83.140625 C 98.441406 83.734375 98.1875 84.5625 98.1875 85.625 C 98.1875 86.699219 98.441406 87.53125 98.953125 88.125 C 99.472656 88.710938 100.195312 89 101.125 89 C 101.539062 89 101.953125 88.949219 102.359375 88.84375 C 102.773438 88.730469 103.1875 88.558594 103.59375 88.328125 L 103.59375 89.65625 C 103.1875 89.84375 102.769531 89.984375 102.34375 90.078125 C 101.914062 90.179688 101.457031 90.234375 100.96875 90.234375 C 99.65625 90.234375 98.609375 89.820312 97.828125 88.984375 C 97.054688 88.152344 96.671875 87.03125 96.671875 85.625 C 96.671875 84.199219 97.0625 83.078125 97.84375 82.265625 C 98.625 81.445312 99.695312 81.03125 101.0625 81.03125 C 101.507812 81.03125 101.941406 81.078125 102.359375 81.171875 C 102.785156 81.265625 103.195312 81.402344 103.59375 81.578125 Z M 113.578125 85.265625 L 113.578125 85.96875 L 106.96875 85.96875 C 107.03125 86.960938 107.328125 87.714844 107.859375 88.234375 C 108.390625 88.746094 109.132812 89 110.09375 89 C 110.644531 89 111.175781 88.933594 111.6875 88.796875 C 112.207031 88.664062 112.722656 88.460938 113.234375 88.1875 L 113.234375 89.546875 C 112.722656 89.765625 112.195312 89.933594 111.65625 90.046875 C 111.113281 90.171875 110.5625 90.234375 110 90.234375 C 108.601562 90.234375 107.5 89.828125 106.6875 89.015625 C 105.875 88.195312 105.46875 87.089844 105.46875 85.703125 C 105.46875 84.277344 105.851562 83.140625 106.625 82.296875 C 107.394531 81.453125 108.4375 81.03125 109.75 81.03125 C 110.925781 81.03125 111.859375 81.414062 112.546875 82.171875 C 113.234375 82.933594 113.578125 83.964844 113.578125 85.265625 Z M 112.140625 84.84375 C 112.128906 84.054688 111.90625 83.421875 111.46875 82.953125 C 111.039062 82.484375 110.472656 82.25 109.765625 82.25 C 108.960938 82.25 108.320312 82.480469 107.84375 82.9375 C 107.363281 83.386719 107.085938 84.023438 107.015625 84.84375 Z M 121.515625 81.5 L 121.515625 82.859375 C 121.109375 82.652344 120.6875 82.496094 120.25 82.390625 C 119.8125 82.289062 119.359375 82.234375 118.890625 82.234375 C 118.171875 82.234375 117.632812 82.34375 117.28125 82.5625 C 116.925781 82.78125 116.75 83.109375 116.75 83.546875 C 116.75 83.882812 116.875 84.148438 117.125 84.34375 C 117.382812 84.53125 117.898438 84.710938 118.671875 84.875 L 119.15625 84.984375 C 120.175781 85.203125 120.898438 85.515625 121.328125 85.921875 C 121.765625 86.320312 121.984375 86.871094 121.984375 87.578125 C 121.984375 88.390625 121.660156 89.039062 121.015625 89.515625 C 120.367188 89.996094 119.484375 90.234375 118.359375 90.234375 C 117.890625 90.234375 117.398438 90.1875 116.890625 90.09375 C 116.390625 90 115.859375 89.859375 115.296875 89.671875 L 115.296875 88.1875 C 115.828125 88.46875 116.347656 88.679688 116.859375 88.8125 C 117.378906 88.949219 117.890625 89.015625 118.390625 89.015625 C 119.066406 89.015625 119.585938 88.902344 119.953125 88.671875 C 120.316406 88.445312 120.5 88.117188 120.5 87.6875 C 120.5 87.304688 120.367188 87.007812 120.109375 86.796875 C 119.847656 86.589844 119.269531 86.386719 118.375 86.1875 L 117.875 86.078125 C 116.988281 85.890625 116.347656 85.605469 115.953125 85.21875 C 115.554688 84.824219 115.359375 84.289062 115.359375 83.609375 C 115.359375 82.789062 115.648438 82.152344 116.234375 81.703125 C 116.816406 81.257812 117.644531 81.03125 118.71875 81.03125 C 119.25 81.03125 119.75 81.074219 120.21875 81.15625 C 120.6875 81.230469 121.117188 81.34375 121.515625 81.5 Z M 124.632812 88.015625 L 126.289062 88.015625 L 126.289062 90 L 124.632812 90 Z M 124.632812 81.71875 L 126.289062 81.71875 L 126.289062 83.703125 L 124.632812 83.703125 Z M 135.21875 88.671875 L 137.796875 88.671875 L 137.796875 79.765625 L 135 80.328125 L 135 78.890625 L 137.78125 78.328125 L 139.359375 78.328125 L 139.359375 88.671875 L 141.9375 88.671875 L 141.9375 90 L 135.21875 90 Z M 148.507812 79.375 C 147.695312 79.375 147.078125 79.777344 146.664062 80.578125 C 146.257812 81.371094 146.054688 82.570312 146.054688 84.171875 C 146.054688 85.777344 146.257812 86.980469 146.664062 87.78125 C 147.078125 88.574219 147.695312 88.96875 148.507812 88.96875 C 149.320312 88.96875 149.929688 88.574219 150.335938 87.78125 C 150.75 86.980469 150.960938 85.777344 150.960938 84.171875 C 150.960938 82.570312 150.75 81.371094 150.335938 80.578125 C 149.929688 79.777344 149.320312 79.375 148.507812 79.375 Z M 148.507812 78.125 C 149.808594 78.125 150.804688 78.640625 151.492188 79.671875 C 152.1875 80.703125 152.539062 82.203125 152.539062 84.171875 C 152.539062 86.140625 152.1875 87.648438 151.492188 88.6875 C 150.804688 89.71875 149.808594 90.234375 148.507812 90.234375 C 147.195312 90.234375 146.195312 89.71875 145.507812 88.6875 C 144.820312 87.648438 144.476562 86.140625 144.476562 84.171875 C 144.476562 82.203125 144.820312 80.703125 145.507812 79.671875 C 146.195312 78.640625 147.195312 78.125 148.507812 78.125 Z M 158.6875 79.375 C 157.875 79.375 157.257812 79.777344 156.84375 80.578125 C 156.4375 81.371094 156.234375 82.570312 156.234375 84.171875 C 156.234375 85.777344 156.4375 86.980469 156.84375 87.78125 C 157.257812 88.574219 157.875 88.96875 158.6875 88.96875 C 159.5 88.96875 160.109375 88.574219 160.515625 87.78125 C 160.929688 86.980469 161.140625 85.777344 161.140625 84.171875 C 161.140625 82.570312 160.929688 81.371094 160.515625 80.578125 C 160.109375 79.777344 159.5 79.375 158.6875 79.375 Z M 158.6875 78.125 C 159.988281 78.125 160.984375 78.640625 161.671875 79.671875 C 162.367188 80.703125 162.71875 82.203125 162.71875 84.171875 C 162.71875 86.140625 162.367188 87.648438 161.671875 88.6875 C 160.984375 89.71875 159.988281 90.234375 158.6875 90.234375 C 157.375 90.234375 156.375 89.71875 155.6875 88.6875 C 155 87.648438 154.65625 86.140625 154.65625 84.171875 C 154.65625 82.203125 155 80.703125 155.6875 79.671875 C 156.375 78.640625 157.375 78.125 158.6875 78.125 Z M 10 75.148438 "/>
<path style=" stroke:none;fill-rule:nonzero;fill:rgb(0%,0%,0%);fill-opacity:1;" d="M 18.5625 98.71875 L 18.5625 100.25 C 17.96875 99.96875 17.40625 99.761719 16.875 99.625 C 16.34375 99.480469 15.828125 99.40625 15.328125 99.40625 C 14.472656 99.40625 13.8125 99.574219 13.34375 99.90625 C 12.875 100.242188 12.640625 100.714844 12.640625 101.328125 C 12.640625 101.839844 12.796875 102.230469 13.109375 102.5 C 13.421875 102.761719 14.007812 102.96875 14.875 103.125 L 15.828125 103.328125 C 17.003906 103.546875 17.867188 103.945312 18.421875 104.515625 C 18.984375 105.078125 19.265625 105.835938 19.265625 106.78125 C 19.265625 107.90625 18.882812 108.765625 18.125 109.359375 C 17.375 109.945312 16.265625 110.234375 14.796875 110.234375 C 14.242188 110.234375 13.65625 110.164062 13.03125 110.03125 C 12.414062 109.90625 11.773438 109.726562 11.109375 109.484375 L 11.109375 107.859375 C 11.742188 108.214844 12.367188 108.484375 12.984375 108.671875 C 13.597656 108.851562 14.203125 108.9375 14.796875 108.9375 C 15.703125 108.9375 16.398438 108.761719 16.890625 108.40625 C 17.378906 108.054688 17.625 107.546875 17.625 106.890625 C 17.625 106.320312 17.445312 105.871094 17.09375 105.546875 C 16.738281 105.226562 16.160156 104.984375 15.359375 104.828125 L 14.40625 104.640625 C 13.226562 104.402344 12.375 104.03125 11.84375 103.53125 C 11.320312 103.03125 11.0625 102.339844 11.0625 101.453125 C 11.0625 100.421875 11.421875 99.609375 12.140625 99.015625 C 12.867188 98.421875 13.875 98.125 15.15625 98.125 C 15.695312 98.125 16.25 98.179688 16.8125 98.28125 C 17.382812 98.375 17.96875 98.523438 18.5625 98.71875 Z M 21.734375 98.328125 L 29.109375 98.328125 L 29.109375 99.65625 L 23.3125 99.65625 L 23.3125 103.109375 L 28.859375 103.109375 L 28.859375 104.4375 L 23.3125 104.4375 L 23.3125 108.671875 L 29.25 108.671875 L 29.25 110 L 21.734375 110 Z M 36.578125 99.40625 C 35.429688 99.40625 34.519531 99.835938 33.84375 100.6875 C 33.164062 101.542969 32.828125 102.703125 32.828125 104.171875 C 32.828125 105.640625 33.164062 106.804688 33.84375 107.65625 C 34.519531 108.511719 35.429688 108.9375 36.578125 108.9375 C 37.722656 108.9375 38.628906 108.511719 39.296875 107.65625 C 39.960938 106.804688 40.296875 105.640625 40.296875 104.171875 C 40.296875 102.703125 39.960938 101.542969 39.296875 100.6875 C 38.628906 99.835938 37.722656 99.40625 36.578125 99.40625 Z M 36.578125 98.125 C 38.210938 98.125 39.519531 98.671875 40.5 99.765625 C 41.476562 100.859375 41.96875 102.328125 41.96875 104.171875 C 41.96875 106.015625 41.476562 107.492188 40.5 108.59375 C 39.519531 109.6875 38.210938 110.234375 36.578125 110.234375 C 34.929688 110.234375 33.617188 109.6875 32.640625 108.59375 C 31.660156 107.492188 31.171875 106.015625 31.171875 104.171875 C 31.171875 102.328125 31.660156 100.859375 32.640625 99.765625 C 33.617188 98.671875 34.929688 98.125 36.578125 98.125 Z M 44.453125 108.015625 L 46.109375 108.015625 L 46.109375 110 L 44.453125 110 Z M 44.453125 101.71875 L 46.109375 101.71875 L 46.109375 103.703125 L 44.453125 103.703125 Z M 55.039062 108.671875 L 57.617188 108.671875 L 57.617188 99.765625 L 54.820312 100.328125 L 54.820312 98.890625 L 57.601562 98.328125 L 59.179688 98.328125 L 59.179688 108.671875 L 61.757812 108.671875 L 61.757812 110 L 55.039062 110 Z M 68.328125 99.375 C 67.515625 99.375 66.898438 99.777344 66.484375 100.578125 C 66.078125 101.371094 65.875 102.570312 65.875 104.171875 C 65.875 105.777344 66.078125 106.980469 66.484375 107.78125 C 66.898438 108.574219 67.515625 108.96875 68.328125 108.96875 C 69.140625 108.96875 69.75 108.574219 70.15625 107.78125 C 70.570312 106.980469 70.78125 105.777344 70.78125 104.171875 C 70.78125 102.570312 70.570312 101.371094 70.15625 100.578125 C 69.75 99.777344 69.140625 99.375 68.328125 99.375 Z M 68.328125 98.125 C 69.628906 98.125 70.625 98.640625 71.3125 99.671875 C 72.007812 100.703125 72.359375 102.203125 72.359375 104.171875 C 72.359375 106.140625 72.007812 107.648438 71.3125 108.6875 C 70.625 109.71875 69.628906 110.234375 68.328125 110.234375 C 67.015625 110.234375 66.015625 109.71875 65.328125 108.6875 C 64.640625 107.648438 64.296875 106.140625 64.296875 104.171875 C 64.296875 102.203125 64.640625 100.703125 65.328125 99.671875 C 66.015625 98.640625 67.015625 98.125 68.328125 98.125 Z M 78.507812 99.375 C 77.695312 99.375 77.078125 99.777344 76.664062 100.578125 C 76.257812 101.371094 76.054688 102.570312 76.054688 104.171875 C 76.054688 105.777344 76.257812 106.980469 76.664062 107.78125 C 77.078125 108.574219 77.695312 108.96875 78.507812 108.96875 C 79.320312 108.96875 79.929688 108.574219 80.335938 107.78125 C 80.75 106.980469 80.960938 105.777344 80.960938 104.171875 C 80.960938 102.570312 80.75 101.371094 80.335938 100.578125 C 79.929688 99.777344 79.320312 99.375 78.507812 99.375 Z M 78.507812 98.125 C 79.808594 98.125 80.804688 98.640625 81.492188 99.671875 C 82.1875 100.703125 82.539062 102.203125 82.539062 104.171875 C 82.539062 106.140625 82.1875 107.648438 81.492188 108.6875 C 80.804688 109.71875 79.808594 110.234375 78.507812 110.234375 C 77.195312 110.234375 76.195312 109.71875 75.507812 108.6875 C 74.820312 107.648438 74.476562 106.140625 74.476562 104.171875 C 74.476562 102.203125 74.820312 100.703125 75.507812 99.671875 C 76.195312 98.640625 77.195312 98.125 78.507812 98.125 Z M 10 95.148438 "/>
</g>
</svg>
