<?xml version="1.0" encoding="UTF-8"?>
<svg xmlns="http://www.w3.org/2000/svg" xmlns:xlink="http://www.w3.org/1999/xlink" width="500pt" height="120pt" viewBox="0 0 500 120" version="1.1">
<g id="surface1">
<path style=" stroke:none;fill-rule:nonzero;fill:rgb(100%,100%,100%);fill-opacity:1;" d="M 10.53125 13.328125 L 12.125 13.328125 L 14.578125 23.1875 L 17.03125 13.328125 L 18.796875 13.328125 L 21.25 23.1875 L 23.703125 13.328125 L 25.296875 13.328125 L 22.375 25 L 20.390625 25 L 17.921875 14.875 L 15.4375 25 L 13.453125 25 Z M 33.882812 20.265625 L 33.882812 20.96875 L 27.273438 20.96875 C 27.335938 21.960938 27.632812 22.714844 28.164062 23.234375 C 28.695312 23.746094 29.4375 24 30.398438 24 C 30.949219 24 31.480469 23.933594 31.992188 23.796875 C 32.511719 23.664062 33.027344 23.460938 33.539062 23.1875 L 33.539062 24.546875 C 33.027344 24.765625 32.5 24.933594 31.960938 25.046875 C 31.417969 25.171875 30.867188 25.234375 30.304688 25.234375 C 28.90625 25.234375 27.804688 24.828125 26.992188 24.015625 C 26.179688 23.195312 25.773438 22.089844 25.773438 20.703125 C 25.773438 19.277344 26.15625 18.140625 26.929688 17.296875 C 27.699219 16.453125 28.742188 16.03125 30.054688 16.03125 C 31.230469 16.03125 32.164062 16.414062 32.851562 17.171875 C 33.539062 17.933594 33.882812 18.964844 33.882812 20.265625 Z M 32.445312 19.84375 C 32.433594 19.054688 32.210938 18.421875 31.773438 17.953125 C 31.34375 17.484375 30.777344 17.25 30.070312 17.25 C 29.265625 17.25 28.625 17.480469 28.148438 17.9375 C 27.667969 18.386719 27.390625 19.023438 27.320312 19.84375 Z M 42.523438 20.625 C 42.523438 19.574219 42.304688 18.746094 41.867188 18.140625 C 41.429688 17.539062 40.828125 17.234375 40.070312 17.234375 C 39.308594 17.234375 38.710938 17.539062 38.273438 18.140625 C 37.84375 18.746094 37.632812 19.574219 37.632812 20.625 C 37.632812 21.6875 37.84375 22.523438 38.273438 23.125 C 38.710938 23.71875 39.308594 24.015625 40.070312 24.015625 C 40.828125 24.015625 41.429688 23.71875 41.867188 23.125 C 42.304688 22.523438 42.523438 21.6875 42.523438 20.625 Z M 37.632812 17.578125 C 37.933594 17.058594 38.3125 16.671875 38.773438 16.421875 C 39.230469 16.164062 39.78125 16.03125 40.429688 16.03125 C 41.492188 16.03125 42.351562 16.453125 43.007812 17.296875 C 43.671875 18.140625 44.007812 19.25 44.007812 20.625 C 44.007812 22 43.671875 23.117188 43.007812 23.96875 C 42.351562 24.8125 41.492188 25.234375 40.429688 25.234375 C 39.78125 25.234375 39.230469 25.109375 38.773438 24.859375 C 38.3125 24.601562 37.933594 24.210938 37.632812 23.6875 L 37.632812 25 L 36.179688 25 L 36.179688 12.84375 L 37.632812 12.84375 Z M 51.976562 16.5 L 51.976562 17.859375 C 51.570312 17.652344 51.148438 17.496094 50.710938 17.390625 C 50.273438 17.289062 49.820312 17.234375 49.351562 17.234375 C 48.632812 17.234375 48.09375 17.34375 47.742188 17.5625 C 47.386719 17.78125 47.210938 18.109375 47.210938 18.546875 C 47.210938 18.882812 47.335938 19.148438 47.585938 19.34375 C 47.84375 19.53125 48.359375 19.710938 49.132812 19.875 L 49.617188 19.984375 C 50.636719 20.203125 51.359375 20.515625 51.789062 20.921875 C 52.226562 21.320312 52.445312 21.871094 52.445312 22.578125 C 52.445312 23.390625 52.121094 24.039062 51.476562 24.515625 C 50.828125 24.996094 49.945312 25.234375 48.820312 25.234375 C 48.351562 25.234375 47.859375 25.1875 47.351562 25.09375 C 46.851562 25 46.320312 24.859375 45.757812 24.671875 L 45.757812 23.1875 C 46.289062 23.46875 46.808594 23.679688 47.320312 23.8125 C 47.839844 23.949219 48.351562 24.015625 48.851562 24.015625 C 49.527344 24.015625 50.046875 23.902344 50.414062 23.671875 C 50.777344 23.445312 50.960938 23.117188 50.960938 22.6875 C 50.960938 22.304688 50.828125 22.007812 50.570312 21.796875 C 50.308594 21.589844 49.730469 21.386719 48.835938 21.1875 L 48.335938 21.078125 C 47.449219 20.890625 46.808594 20.605469 46.414062 20.21875 C 46.015625 19.824219 45.820312 19.289062 45.820312 18.609375 C 45.820312 17.789062 46.109375 17.152344 46.695312 16.703125 C 47.277344 16.257812 48.105469 16.03125 49.179688 16.03125 C 49.710938 16.03125 50.210938 16.074219 50.679688 16.15625 C 51.148438 16.230469 51.578125 16.34375 51.976562 16.5 Z M 54.734375 16.25 L 56.171875 16.25 L 56.171875 25 L 54.734375 25 Z M 54.734375 12.84375 L 56.171875 12.84375 L 56.171875 14.65625 L 54.734375 14.65625 Z M 60.601562 13.765625 L 60.601562 16.25 L 63.554688 16.25 L 63.554688 17.359375 L 60.601562 17.359375 L 60.601562 22.109375 C 60.601562 22.828125 60.695312 23.292969 60.882812 23.5 C 61.078125 23.699219 61.480469 23.796875 62.085938 23.796875 L 63.554688 23.796875 L 63.554688 25 L 62.085938 25 C 60.96875 25 60.199219 24.792969 59.773438 24.375 C 59.355469 23.960938 59.148438 23.203125 59.148438 22.109375 L 59.148438 17.359375 L 58.101562 17.359375 L 58.101562 16.25 L 59.148438 16.25 L 59.148438 13.765625 Z M 72.9375 20.265625 L 72.9375 20.96875 L 66.328125 20.96875 C 66.390625 21.960938 66.6875 22.714844 67.21875 23.234375 C 67.75 23.746094 68.492188 24 69.453125 24 C 70.003906 24 70.535156 23.933594 71.046875 23.796875 C 71.566406 23.664062 72.082031 23.460938 72.59375 23.1875 L 72.59375 24.546875 C 72.082031 24.765625 71.554688 24.933594 71.015625 25.046875 C 70.472656 25.171875 69.921875 25.234375 69.359375 25.234375 C 67.960938 25.234375 66.859375 24.828125 66.046875 24.015625 C 65.234375 23.195312 64.828125 22.089844 64.828125 20.703125 C 64.828125 19.277344 65.210938 18.140625 65.984375 17.296875 C 66.753906 16.453125 67.796875 16.03125 69.109375 16.03125 C 70.285156 16.03125 71.21875 16.414062 71.90625 17.171875 C 72.59375 17.933594 72.9375 18.964844 72.9375 20.265625 Z M 71.5 19.84375 C 71.488281 19.054688 71.265625 18.421875 70.828125 17.953125 C 70.398438 17.484375 69.832031 17.25 69.125 17.25 C 68.320312 17.25 67.679688 17.480469 67.203125 17.9375 C 66.722656 18.386719 66.445312 19.023438 66.375 19.84375 Z M 82.023438 14.625 L 82.023438 19.015625 L 84.007812 19.015625 C 84.734375 19.015625 85.296875 18.828125 85.695312 18.453125 C 86.101562 18.070312 86.304688 17.523438 86.304688 16.8125 C 86.304688 16.117188 86.101562 15.578125 85.695312 15.203125 C 85.296875 14.820312 84.734375 14.625 84.007812 14.625 Z M 80.445312 13.328125 L 84.007812 13.328125 C 85.308594 13.328125 86.292969 13.625 86.960938 14.21875 C 87.636719 14.8125 87.976562 15.679688 87.976562 16.8125 C 87.976562 17.96875 87.636719 18.84375 86.960938 19.4375 C 86.292969 20.023438 85.308594 20.3125 84.007812 20.3125 L 82.023438 20.3125 L 82.023438 25 L 80.445312 25 Z M 96.945312 20.265625 L 96.945312 20.96875 L 90.335938 20.96875 C 90.398438 21.960938 90.695312 22.714844 91.226562 23.234375 C 91.757812 23.746094 92.5 24 93.460938 24 C 94.011719 24 94.542969 23.933594 95.054688 23.796875 C 95.574219 23.664062 96.089844 23.460938 96.601562 23.1875 L 96.601562 24.546875 C 96.089844 24.765625 95.5625 24.933594 95.023438 25.046875 C 94.480469 25.171875 93.929688 25.234375 93.367188 25.234375 C 91.96875 25.234375 90.867188 24.828125 90.054688 24.015625 C 89.242188 23.195312 88.835938 22.089844 88.835938 20.703125 C 88.835938 19.277344 89.21875 18.140625 89.992188 17.296875 C 90.761719 16.453125 91.804688 16.03125 93.117188 16.03125 C 94.292969 16.03125 95.226562 16.414062 95.914062 17.171875 C 96.601562 17.933594 96.945312 18.964844 96.945312 20.265625 Z M 95.507812 19.84375 C 95.496094 19.054688 95.273438 18.421875 94.835938 17.953125 C 94.40625 17.484375 93.839844 17.25 93.132812 17.25 C 92.328125 17.25 91.6875 17.480469 91.210938 17.9375 C 90.730469 18.386719 90.453125 19.023438 90.382812 19.84375 Z M 104.367188 17.59375 C 104.210938 17.5 104.03125 17.433594 103.835938 17.390625 C 103.648438 17.339844 103.4375 17.3125 103.210938 17.3125 C 102.398438 17.3125 101.773438 17.578125 101.335938 18.109375 C 100.90625 18.640625 100.695312 19.402344 100.695312 20.390625 L 100.695312 25 L 99.242188 25 L 99.242188 16.25 L 100.695312 16.25 L 100.695312 17.609375 C 100.996094 17.078125 101.386719 16.683594 101.867188 16.421875 C 102.355469 16.164062 102.945312 16.03125 103.632812 16.03125 C 103.734375 16.03125 103.84375 16.042969 103.960938 16.0625 C 104.085938 16.074219 104.21875 16.089844 104.367188 16.109375 Z M 110.304688 12.84375 L 110.304688 14.03125 L 108.929688 14.03125 C 108.417969 14.03125 108.058594 14.136719 107.851562 14.34375 C 107.652344 14.554688 107.554688 14.929688 107.554688 15.46875 L 107.554688 16.25 L 109.929688 16.25 L 109.929688 17.359375 L 107.554688 17.359375 L 107.554688 25 L 106.117188 25 L 106.117188 17.359375 L 104.742188 17.359375 L 104.742188 16.25 L 106.117188 16.25 L 106.117188 15.640625 C 106.117188 14.664062 106.339844 13.953125 106.789062 13.515625 C 107.246094 13.070312 107.964844 12.84375 108.945312 12.84375 Z M 114.90625 17.25 C 114.132812 17.25 113.523438 17.554688 113.078125 18.15625 C 112.628906 18.761719 112.40625 19.585938 112.40625 20.625 C 112.40625 21.679688 112.625 22.507812 113.0625 23.109375 C 113.507812 23.703125 114.125 24 114.90625 24 C 115.664062 24 116.269531 23.699219 116.71875 23.09375 C 117.164062 22.492188 117.390625 21.667969 117.390625 20.625 C 117.390625 19.59375 117.164062 18.777344 116.71875 18.171875 C 116.269531 17.558594 115.664062 17.25 114.90625 17.25 Z M 114.90625 16.03125 C 116.15625 16.03125 117.132812 16.4375 117.84375 17.25 C 118.5625 18.0625 118.921875 19.1875 118.921875 20.625 C 118.921875 22.0625 118.5625 23.195312 117.84375 24.015625 C 117.132812 24.828125 116.15625 25.234375 114.90625 25.234375 C 113.644531 25.234375 112.660156 24.828125 111.953125 24.015625 C 111.242188 23.195312 110.890625 22.0625 110.890625 20.625 C 110.890625 19.1875 111.242188 18.0625 111.953125 17.25 C 112.660156 16.4375 113.644531 16.03125 114.90625 16.03125 Z M 126.367188 17.59375 C 126.210938 17.5 126.03125 17.433594 125.835938 17.390625 C 125.648438 17.339844 125.4375 17.3125 125.210938 17.3125 C 124.398438 17.3125 123.773438 17.578125 123.335938 18.109375 C 122.90625 18.640625 122.695312 19.402344 122.695312 20.390625 L 122.695312 25 L 121.242188 25 L 121.242188 16.25 L 122.695312 16.25 L 122.695312 17.609375 C 122.996094 17.078125 123.386719 16.683594 123.867188 16.421875 C 124.355469 16.164062 124.945312 16.03125 125.632812 16.03125 C 125.734375 16.03125 125.84375 16.042969 125.960938 16.0625 C 126.085938 16.074219 126.21875 16.089844 126.367188 16.109375 Z M 134.414062 17.921875 C 134.765625 17.277344 135.195312 16.804688 135.695312 16.5 C 136.195312 16.1875 136.78125 16.03125 137.460938 16.03125 C 138.375 16.03125 139.078125 16.355469 139.570312 17 C 140.070312 17.636719 140.320312 18.542969 140.320312 19.71875 L 140.320312 25 L 138.867188 25 L 138.867188 19.765625 C 138.867188 18.921875 138.714844 18.296875 138.414062 17.890625 C 138.121094 17.484375 137.671875 17.28125 137.070312 17.28125 C 136.320312 17.28125 135.726562 17.53125 135.289062 18.03125 C 134.859375 18.523438 134.648438 19.195312 134.648438 20.046875 L 134.648438 25 L 133.210938 25 L 133.210938 19.765625 C 133.210938 18.921875 133.058594 18.296875 132.757812 17.890625 C 132.464844 17.484375 132.007812 17.28125 131.382812 17.28125 C 130.652344 17.28125 130.070312 17.53125 129.632812 18.03125 C 129.203125 18.53125 128.992188 19.203125 128.992188 20.046875 L 128.992188 25 L 127.539062 25 L 127.539062 16.25 L 128.992188 16.25 L 128.992188 17.609375 C 129.3125 17.070312 129.703125 16.671875 130.164062 16.421875 C 130.621094 16.164062 131.167969 16.03125 131.804688 16.03125 C 132.4375 16.03125 132.976562 16.195312 133.414062 16.515625 C 133.859375 16.839844 134.195312 17.308594 134.414062 17.921875 Z M 147.15625 20.59375 C 146 20.59375 145.195312 20.730469 144.75 21 C 144.300781 21.261719 144.078125 21.714844 144.078125 22.359375 C 144.078125 22.871094 144.242188 23.277344 144.578125 23.578125 C 144.910156 23.871094 145.367188 24.015625 145.953125 24.015625 C 146.742188 24.015625 147.378906 23.734375 147.859375 23.171875 C 148.347656 22.609375 148.59375 21.859375 148.59375 20.921875 L 148.59375 20.59375 Z M 150.03125 20 L 150.03125 25 L 148.59375 25 L 148.59375 23.671875 C 148.257812 24.203125 147.847656 24.601562 147.359375 24.859375 C 146.867188 25.109375 146.269531 25.234375 145.5625 25.234375 C 144.664062 25.234375 143.953125 24.984375 143.421875 24.484375 C 142.898438 23.976562 142.640625 23.296875 142.640625 22.453125 C 142.640625 21.464844 142.96875 20.71875 143.625 20.21875 C 144.28125 19.71875 145.265625 19.46875 146.578125 19.46875 L 148.59375 19.46875 L 148.59375 19.328125 C 148.59375 18.671875 148.375 18.164062 147.9375 17.796875 C 147.5 17.433594 146.890625 17.25 146.109375 17.25 C 145.609375 17.25 145.117188 17.3125 144.640625 17.4375 C 144.171875 17.554688 143.71875 17.730469 143.28125 17.96875 L 143.28125 16.640625 C 143.800781 16.445312 144.304688 16.292969 144.796875 16.1875 C 145.296875 16.085938 145.78125 16.03125 146.25 16.03125 C 147.519531 16.03125 148.46875 16.359375 149.09375 17.015625 C 149.71875 17.671875 150.03125 18.667969 150.03125 20 Z M 160.257812 19.71875 L 160.257812 25 L 158.820312 25 L 158.820312 19.765625 C 158.820312 18.933594 158.65625 18.3125 158.335938 17.90625 C 158.011719 17.492188 157.527344 17.28125 156.882812 17.28125 C 156.109375 17.28125 155.5 17.53125 155.054688 18.03125 C 154.605469 18.523438 154.382812 19.195312 154.382812 20.046875 L 154.382812 25 L 152.929688 25 L 152.929688 16.25 L 154.382812 16.25 L 154.382812 17.609375 C 154.726562 17.078125 155.125 16.683594 155.585938 16.421875 C 156.054688 16.164062 156.59375 16.03125 157.210938 16.03125 C 158.210938 16.03125 158.964844 16.34375 159.476562 16.96875 C 159.996094 17.59375 160.257812 18.511719 160.257812 19.71875 Z M 169.429688 16.578125 L 169.429688 17.921875 C 169.023438 17.703125 168.609375 17.539062 168.195312 17.421875 C 167.789062 17.308594 167.375 17.25 166.960938 17.25 C 166.03125 17.25 165.308594 17.546875 164.789062 18.140625 C 164.277344 18.734375 164.023438 19.5625 164.023438 20.625 C 164.023438 21.699219 164.277344 22.53125 164.789062 23.125 C 165.308594 23.710938 166.03125 24 166.960938 24 C 167.375 24 167.789062 23.949219 168.195312 23.84375 C 168.609375 23.730469 169.023438 23.558594 169.429688 23.328125 L 169.429688 24.65625 C 169.023438 24.84375 168.605469 24.984375 168.179688 25.078125 C 167.75 25.179688 167.292969 25.234375 166.804688 25.234375 C 165.492188 25.234375 164.445312 24.820312 163.664062 23.984375 C 162.890625 23.152344 162.507812 22.03125 162.507812 20.625 C 162.507812 19.199219 162.898438 18.078125 163.679688 17.265625 C 164.460938 16.445312 165.53125 16.03125 166.898438 16.03125 C 167.34375 16.03125 167.777344 16.078125 168.195312 16.171875 C 168.621094 16.265625 169.03125 16.402344 169.429688 16.578125 Z M 179.414062 20.265625 L 179.414062 20.96875 L 172.804688 20.96875 C 172.867188 21.960938 173.164062 22.714844 173.695312 23.234375 C 174.226562 23.746094 174.96875 24 175.929688 24 C 176.480469 24 177.011719 23.933594 177.523438 23.796875 C 178.042969 23.664062 178.558594 23.460938 179.070312 23.1875 L 179.070312 24.546875 C 178.558594 24.765625 178.03125 24.933594 177.492188 25.046875 C 176.949219 25.171875 176.398438 25.234375 175.835938 25.234375 C 174.4375 25.234375 173.335938 24.828125 172.523438 24.015625 C 171.710938 23.195312 171.304688 22.089844 171.304688 20.703125 C 171.304688 19.277344 171.6875 18.140625 172.460938 17.296875 C 173.230469 16.453125 174.273438 16.03125 175.585938 16.03125 C 176.761719 16.03125 177.695312 16.414062 178.382812 17.171875 C 179.070312 17.933594 179.414062 18.964844 179.414062 20.265625 Z M 177.976562 19.84375 C 177.964844 19.054688 177.742188 18.421875 177.304688 17.953125 C 176.875 17.484375 176.308594 17.25 175.601562 17.25 C 174.796875 17.25 174.15625 17.480469 173.679688 17.9375 C 173.199219 18.386719 172.921875 19.023438 172.851562 19.84375 Z M 186.921875 13.328125 L 189.265625 13.328125 L 192.25 21.265625 L 195.234375 13.328125 L 197.59375 13.328125 L 197.59375 25 L 196.046875 25 L 196.046875 14.75 L 193.046875 22.75 L 191.453125 22.75 L 188.453125 14.75 L 188.453125 25 L 186.921875 25 Z M 208.148438 20.265625 L 208.148438 20.96875 L 201.539062 20.96875 C 201.601562 21.960938 201.898438 22.714844 202.429688 23.234375 C 202.960938 23.746094 203.703125 24 204.664062 24 C 205.214844 24 205.746094 23.933594 206.257812 23.796875 C 206.777344 23.664062 207.292969 23.460938 207.804688 23.1875 L 207.804688 24.546875 C 207.292969 24.765625 206.765625 24.933594 206.226562 25.046875 C 205.683594 25.171875 205.132812 25.234375 204.570312 25.234375 C 203.171875 25.234375 202.070312 24.828125 201.257812 24.015625 C 200.445312 23.195312 200.039062 22.089844 200.039062 20.703125 C 200.039062 19.277344 200.421875 18.140625 201.195312 17.296875 C 201.964844 16.453125 203.007812 16.03125 204.320312 16.03125 C 205.496094 16.03125 206.429688 16.414062 207.117188 17.171875 C 207.804688 17.933594 208.148438 18.964844 208.148438 20.265625 Z M 206.710938 19.84375 C 206.699219 19.054688 206.476562 18.421875 206.039062 17.953125 C 205.609375 17.484375 205.042969 17.25 204.335938 17.25 C 203.53125 17.25 202.890625 17.480469 202.414062 17.9375 C 201.933594 18.386719 201.65625 19.023438 201.585938 19.84375 Z M 211.929688 13.765625 L 211.929688 16.25 L 214.882812 16.25 L 214.882812 17.359375 L 211.929688 17.359375 L 211.929688 22.109375 C 211.929688 22.828125 212.023438 23.292969 212.210938 23.5 C 212.40625 23.699219 212.808594 23.796875 213.414062 23.796875 L 214.882812 23.796875 L 214.882812 25 L 213.414062 25 C 212.296875 25 211.527344 24.792969 211.101562 24.375 C 210.683594 23.960938 210.476562 23.203125 210.476562 22.109375 L 210.476562 17.359375 L 209.429688 17.359375 L 209.429688 16.25 L 210.476562 16.25 L 210.476562 13.765625 Z M 221.84375 17.59375 C 221.6875 17.5 221.507812 17.433594 221.3125 17.390625 C 221.125 17.339844 220.914062 17.3125 220.6875 17.3125 C 219.875 17.3125 219.25 17.578125 218.8125 18.109375 C 218.382812 18.640625 218.171875 19.402344 218.171875 20.390625 L 218.171875 25 L 216.71875 25 L 216.71875 16.25 L 218.171875 16.25 L 218.171875 17.609375 C 218.472656 17.078125 218.863281 16.683594 219.34375 16.421875 C 219.832031 16.164062 220.421875 16.03125 221.109375 16.03125 C 221.210938 16.03125 221.320312 16.042969 221.4375 16.0625 C 221.5625 16.074219 221.695312 16.089844 221.84375 16.109375 Z M 223.359375 16.25 L 224.796875 16.25 L 224.796875 25 L 223.359375 25 Z M 223.359375 12.84375 L 224.796875 12.84375 L 224.796875 14.65625 L 223.359375 14.65625 Z M 234.101562 16.578125 L 234.101562 17.921875 C 233.695312 17.703125 233.28125 17.539062 232.867188 17.421875 C 232.460938 17.308594 232.046875 17.25 231.632812 17.25 C 230.703125 17.25 229.980469 17.546875 229.460938 18.140625 C 228.949219 18.734375 228.695312 19.5625 228.695312 20.625 C 228.695312 21.699219 228.949219 22.53125 229.460938 23.125 C 229.980469 23.710938 230.703125 24 231.632812 24 C 232.046875 24 232.460938 23.949219 232.867188 23.84375 C 233.28125 23.730469 233.695312 23.558594 234.101562 23.328125 L 234.101562 24.65625 C 233.695312 24.84375 233.277344 24.984375 232.851562 25.078125 C 232.421875 25.179688 231.964844 25.234375 231.476562 25.234375 C 230.164062 25.234375 229.117188 24.820312 228.335938 23.984375 C 227.5625 23.152344 227.179688 22.03125 227.179688 20.625 C 227.179688 19.199219 227.570312 18.078125 228.351562 17.265625 C 229.132812 16.445312 230.203125 16.03125 231.570312 16.03125 C 232.015625 16.03125 232.449219 16.078125 232.867188 16.171875 C 233.292969 16.265625 233.703125 16.402344 234.101562 16.578125 Z M 242.179688 16.5 L 242.179688 17.859375 C 241.773438 17.652344 241.351562 17.496094 240.914062 17.390625 C 240.476562 17.289062 240.023438 17.234375 239.554688 17.234375 C 238.835938 17.234375 238.296875 17.34375 237.945312 17.5625 C 237.589844 17.78125 237.414062 18.109375 237.414062 18.546875 C 237.414062 18.882812 237.539062 19.148438 237.789062 19.34375 C 238.046875 19.53125 238.5625 19.710938 239.335938 19.875 L 239.820312 19.984375 C 240.839844 20.203125 241.5625 20.515625 241.992188 20.921875 C 242.429688 21.320312 242.648438 21.871094 242.648438 22.578125 C 242.648438 23.390625 242.324219 24.039062 241.679688 24.515625 C 241.03125 24.996094 240.148438 25.234375 239.023438 25.234375 C 238.554688 25.234375 238.0625 25.1875 237.554688 25.09375 C 237.054688 25 236.523438 24.859375 235.960938 24.671875 L 235.960938 23.1875 C 236.492188 23.46875 237.011719 23.679688 237.523438 23.8125 C 238.042969 23.949219 238.554688 24.015625 239.054688 24.015625 C 239.730469 24.015625 240.25 23.902344 240.617188 23.671875 C 240.980469 23.445312 241.164062 23.117188 241.164062 22.6875 C 241.164062 22.304688 241.03125 22.007812 240.773438 21.796875 C 240.511719 21.589844 239.933594 21.386719 239.039062 21.1875 L 238.539062 21.078125 C 237.652344 20.890625 237.011719 20.605469 236.617188 20.21875 C 236.21875 19.824219 236.023438 19.289062 236.023438 18.609375 C 236.023438 17.789062 236.3125 17.152344 236.898438 16.703125 C 237.480469 16.257812 238.308594 16.03125 239.382812 16.03125 C 239.914062 16.03125 240.414062 16.074219 240.882812 16.15625 C 241.351562 16.230469 241.78125 16.34375 242.179688 16.5 Z M 10 10.148438 "/>
<path style="fill-rule:nonzero;fill:rgb(100%,71.372549%,0%);fill-opacity:1;stroke-width:2;stroke-linecap:butt;stroke-linejoin:miter;stroke:rgb(100%,100%,100%);stroke-opacity:1;stroke-miterlimit:10;" d="M 110 60 C 110 76.570312 96.570312 90 80 90 C 63.429688 90 50 76.570312 50 60 C 50 43.429688 63.429688 30 80 30 C 96.570312 30 110 43.429688 110 60 "/>
<path style=" stroke:none;fill-rule:nonzero;fill:rgb(100%,100%,100%);fill-opacity:1;" d="M 71.609375 64.734375 L 71.609375 62.578125 C 72.085938 62.808594 72.546875 62.980469 72.984375 63.09375 C 73.421875 63.199219 73.851562 63.25 74.28125 63.25 C 75.175781 63.25 75.875 63.007812 76.375 62.515625 C 76.875 62.015625 77.164062 61.277344 77.25 60.296875 C 76.894531 60.558594 76.515625 60.757812 76.109375 60.890625 C 75.710938 61.015625 75.28125 61.078125 74.8125 61.078125 C 73.625 61.078125 72.660156 60.730469 71.921875 60.03125 C 71.191406 59.335938 70.828125 58.417969 70.828125 57.28125 C 70.828125 56.03125 71.234375 55.03125 72.046875 54.28125 C 72.867188 53.523438 73.960938 53.140625 75.328125 53.140625 C 76.847656 53.140625 78.023438 53.65625 78.859375 54.6875 C 79.691406 55.710938 80.109375 57.15625 80.109375 59.03125 C 80.109375 60.960938 79.617188 62.476562 78.640625 63.578125 C 77.671875 64.683594 76.335938 65.234375 74.640625 65.234375 C 74.097656 65.234375 73.578125 65.191406 73.078125 65.109375 C 72.578125 65.023438 72.085938 64.902344 71.609375 64.734375 Z M 75.3125 59.125 C 75.84375 59.125 76.238281 58.953125 76.5 58.609375 C 76.769531 58.265625 76.90625 57.757812 76.90625 57.078125 C 76.90625 56.402344 76.769531 55.890625 76.5 55.546875 C 76.238281 55.203125 75.84375 55.03125 75.3125 55.03125 C 74.789062 55.03125 74.394531 55.203125 74.125 55.546875 C 73.863281 55.890625 73.734375 56.402344 73.734375 57.078125 C 73.734375 57.757812 73.863281 58.265625 74.125 58.609375 C 74.394531 58.953125 74.789062 59.125 75.3125 59.125 Z M 82.742188 64.734375 L 82.742188 62.578125 C 83.21875 62.808594 83.679688 62.980469 84.117188 63.09375 C 84.554688 63.199219 84.984375 63.25 85.414062 63.25 C 86.308594 63.25 87.007812 63.007812 87.507812 62.515625 C 88.007812 62.015625 88.296875 61.277344 88.382812 60.296875 C 88.027344 60.558594 87.648438 60.757812 87.242188 60.890625 C 86.84375 61.015625 86.414062 61.078125 85.945312 61.078125 C 84.757812 61.078125 83.792969 60.730469 83.054688 60.03125 C 82.324219 59.335938 81.960938 58.417969 81.960938 57.28125 C 81.960938 56.03125 82.367188 55.03125 83.179688 54.28125 C 84 53.523438 85.09375 53.140625 86.460938 53.140625 C 87.980469 53.140625 89.15625 53.65625 89.992188 54.6875 C 90.824219 55.710938 91.242188 57.15625 91.242188 59.03125 C 91.242188 60.960938 90.75 62.476562 89.773438 63.578125 C 88.804688 64.683594 87.46875 65.234375 85.773438 65.234375 C 85.230469 65.234375 84.710938 65.191406 84.210938 65.109375 C 83.710938 65.023438 83.21875 64.902344 82.742188 64.734375 Z M 86.445312 59.125 C 86.976562 59.125 87.371094 58.953125 87.632812 58.609375 C 87.902344 58.265625 88.039062 57.757812 88.039062 57.078125 C 88.039062 56.402344 87.902344 55.890625 87.632812 55.546875 C 87.371094 55.203125 86.976562 55.03125 86.445312 55.03125 C 85.921875 55.03125 85.527344 55.203125 85.257812 55.546875 C 84.996094 55.890625 84.867188 56.402344 84.867188 57.078125 C 84.867188 57.757812 84.996094 58.265625 85.257812 58.609375 C 85.527344 58.953125 85.921875 59.125 86.445312 59.125 Z M 70 50.148438 "/>
<path style=" stroke:none;fill-rule:nonzero;fill:rgb(100%,100%,100%);fill-opacity:1;" d="M 47.75 90.921875 L 47.75 94.765625 L 49.484375 94.765625 C 50.128906 94.765625 50.628906 94.601562 50.984375 94.265625 C 51.335938 93.933594 51.515625 93.460938 51.515625 92.84375 C 51.515625 92.230469 51.335938 91.757812 50.984375 91.421875 C 50.628906 91.089844 50.128906 90.921875 49.484375 90.921875 Z M 46.375 89.796875 L 49.484375 89.796875 C 50.628906 89.796875 51.492188 90.058594 52.078125 90.578125 C 52.671875 91.089844 52.96875 91.84375 52.96875 92.84375 C 52.96875 93.855469 52.671875 94.617188 52.078125 95.125 C 51.492188 95.636719 50.628906 95.890625 49.484375 95.890625 L 47.75 95.890625 L 47.75 100 L 46.375 100 Z M 60.820312 95.859375 L 60.820312 96.46875 L 55.023438 96.46875 C 55.085938 97.335938 55.34375 97.996094 55.804688 98.453125 C 56.273438 98.902344 56.921875 99.125 57.757812 99.125 C 58.246094 99.125 58.714844 99.070312 59.164062 98.953125 C 59.621094 98.839844 60.074219 98.664062 60.523438 98.421875 L 60.523438 99.609375 C 60.0625 99.796875 59.59375 99.945312 59.117188 100.046875 C 58.648438 100.148438 58.171875 100.203125 57.695312 100.203125 C 56.464844 100.203125 55.492188 99.851562 54.773438 99.140625 C 54.0625 98.421875 53.710938 97.460938 53.710938 96.25 C 53.710938 94.992188 54.046875 93.996094 54.726562 93.265625 C 55.402344 92.527344 56.320312 92.15625 57.476562 92.15625 C 58.507812 92.15625 59.320312 92.492188 59.914062 93.15625 C 60.515625 93.8125 60.820312 94.714844 60.820312 95.859375 Z M 59.554688 95.484375 C 59.542969 94.796875 59.351562 94.25 58.976562 93.84375 C 58.601562 93.429688 58.105469 93.21875 57.492188 93.21875 C 56.78125 93.21875 56.214844 93.421875 55.789062 93.828125 C 55.371094 94.226562 55.132812 94.78125 55.070312 95.5 Z M 67.304688 93.515625 C 67.167969 93.433594 67.015625 93.375 66.851562 93.34375 C 66.683594 93.304688 66.5 93.28125 66.304688 93.28125 C 65.585938 93.28125 65.03125 93.515625 64.648438 93.984375 C 64.273438 94.445312 64.085938 95.105469 64.085938 95.96875 L 64.085938 100 L 62.820312 100 L 62.820312 92.34375 L 64.085938 92.34375 L 64.085938 93.53125 C 64.355469 93.0625 64.699219 92.71875 65.117188 92.5 C 65.542969 92.273438 66.058594 92.15625 66.664062 92.15625 C 66.757812 92.15625 66.855469 92.164062 66.960938 92.171875 C 67.0625 92.183594 67.179688 92.203125 67.304688 92.234375 Z M 72.515625 89.359375 L 72.515625 90.40625 L 71.3125 90.40625 C 70.851562 90.40625 70.535156 90.5 70.359375 90.6875 C 70.191406 90.867188 70.109375 91.195312 70.109375 91.671875 L 70.109375 92.34375 L 72.171875 92.34375 L 72.171875 93.328125 L 70.109375 93.328125 L 70.109375 100 L 68.84375 100 L 68.84375 93.328125 L 67.640625 93.328125 L 67.640625 92.34375 L 68.84375 92.34375 L 68.84375 91.8125 C 68.84375 90.960938 69.039062 90.339844 69.4375 89.953125 C 69.832031 89.558594 70.457031 89.359375 71.3125 89.359375 Z M 76.523438 93.21875 C 75.855469 93.21875 75.324219 93.484375 74.929688 94.015625 C 74.53125 94.539062 74.335938 95.257812 74.335938 96.171875 C 74.335938 97.089844 74.527344 97.8125 74.914062 98.34375 C 75.308594 98.867188 75.84375 99.125 76.523438 99.125 C 77.199219 99.125 77.730469 98.867188 78.117188 98.34375 C 78.511719 97.8125 78.710938 97.089844 78.710938 96.171875 C 78.710938 95.265625 78.511719 94.546875 78.117188 94.015625 C 77.730469 93.484375 77.199219 93.21875 76.523438 93.21875 Z M 76.523438 92.15625 C 77.617188 92.15625 78.476562 92.515625 79.101562 93.234375 C 79.726562 93.945312 80.039062 94.921875 80.039062 96.171875 C 80.039062 97.433594 79.726562 98.421875 79.101562 99.140625 C 78.476562 99.851562 77.617188 100.203125 76.523438 100.203125 C 75.429688 100.203125 74.570312 99.851562 73.945312 99.140625 C 73.320312 98.421875 73.007812 97.433594 73.007812 96.171875 C 73.007812 94.921875 73.320312 93.945312 73.945312 93.234375 C 74.570312 92.515625 75.429688 92.15625 76.523438 92.15625 Z M 86.554688 93.515625 C 86.417969 93.433594 86.265625 93.375 86.101562 93.34375 C 85.933594 93.304688 85.75 93.28125 85.554688 93.28125 C 84.835938 93.28125 84.28125 93.515625 83.898438 93.984375 C 83.523438 94.445312 83.335938 95.105469 83.335938 95.96875 L 83.335938 100 L 82.070312 100 L 82.070312 92.34375 L 83.335938 92.34375 L 83.335938 93.53125 C 83.605469 93.0625 83.949219 92.71875 84.367188 92.5 C 84.792969 92.273438 85.308594 92.15625 85.914062 92.15625 C 86.007812 92.15625 86.105469 92.164062 86.210938 92.171875 C 86.3125 92.183594 86.429688 92.203125 86.554688 92.234375 Z M 93.597656 93.8125 C 93.910156 93.25 94.285156 92.835938 94.722656 92.5625 C 95.160156 92.292969 95.675781 92.15625 96.269531 92.15625 C 97.070312 92.15625 97.683594 92.4375 98.113281 93 C 98.550781 93.554688 98.769531 94.34375 98.769531 95.375 L 98.769531 100 L 97.503906 100 L 97.503906 95.421875 C 97.503906 94.683594 97.371094 94.136719 97.113281 93.78125 C 96.851562 93.429688 96.457031 93.25 95.925781 93.25 C 95.269531 93.25 94.753906 93.46875 94.378906 93.90625 C 94.003906 94.335938 93.816406 94.921875 93.816406 95.671875 L 93.816406 100 L 92.550781 100 L 92.550781 95.421875 C 92.550781 94.683594 92.417969 94.136719 92.160156 93.78125 C 91.898438 93.429688 91.496094 93.25 90.957031 93.25 C 90.308594 93.25 89.792969 93.46875 89.410156 93.90625 C 89.035156 94.34375 88.847656 94.933594 88.847656 95.671875 L 88.847656 100 L 87.582031 100 L 87.582031 92.34375 L 88.847656 92.34375 L 88.847656 93.53125 C 89.136719 93.0625 89.480469 92.71875 89.878906 92.5 C 90.285156 92.273438 90.761719 92.15625 91.316406 92.15625 C 91.867188 92.15625 92.335938 92.296875 92.722656 92.578125 C 93.117188 92.859375 93.410156 93.273438 93.597656 93.8125 Z M 104.75 96.15625 C 103.738281 96.15625 103.035156 96.273438 102.640625 96.5 C 102.242188 96.730469 102.046875 97.125 102.046875 97.6875 C 102.046875 98.136719 102.191406 98.492188 102.484375 98.75 C 102.785156 99.011719 103.1875 99.140625 103.6875 99.140625 C 104.382812 99.140625 104.941406 98.898438 105.359375 98.40625 C 105.785156 97.90625 106 97.25 106 96.4375 L 106 96.15625 Z M 107.265625 95.625 L 107.265625 100 L 106 100 L 106 98.84375 C 105.71875 99.304688 105.359375 99.648438 104.921875 99.875 C 104.492188 100.09375 103.972656 100.203125 103.359375 100.203125 C 102.578125 100.203125 101.953125 99.984375 101.484375 99.546875 C 101.023438 99.101562 100.796875 98.507812 100.796875 97.765625 C 100.796875 96.914062 101.082031 96.265625 101.65625 95.828125 C 102.238281 95.390625 103.097656 95.171875 104.234375 95.171875 L 106 95.171875 L 106 95.046875 C 106 94.464844 105.804688 94.015625 105.421875 93.703125 C 105.046875 93.382812 104.515625 93.21875 103.828125 93.21875 C 103.390625 93.21875 102.960938 93.277344 102.546875 93.390625 C 102.128906 93.496094 101.734375 93.652344 101.359375 93.859375 L 101.359375 92.6875 C 101.816406 92.511719 102.257812 92.382812 102.6875 92.296875 C 103.125 92.203125 103.546875 92.15625 103.953125 92.15625 C 105.066406 92.15625 105.894531 92.445312 106.4375 93.015625 C 106.988281 93.589844 107.265625 94.460938 107.265625 95.625 Z M 116.21875 95.375 L 116.21875 100 L 114.953125 100 L 114.953125 95.421875 C 114.953125 94.695312 114.8125 94.152344 114.53125 93.796875 C 114.25 93.433594 113.828125 93.25 113.265625 93.25 C 112.585938 93.25 112.050781 93.46875 111.65625 93.90625 C 111.257812 94.335938 111.0625 94.921875 111.0625 95.671875 L 111.0625 100 L 109.796875 100 L 109.796875 92.34375 L 111.0625 92.34375 L 111.0625 93.53125 C 111.363281 93.074219 111.71875 92.730469 112.125 92.5 C 112.539062 92.273438 113.015625 92.15625 113.546875 92.15625 C 114.421875 92.15625 115.082031 92.433594 115.53125 92.984375 C 115.988281 93.527344 116.21875 94.324219 116.21875 95.375 Z M 124.234375 92.640625 L 124.234375 93.8125 C 123.878906 93.617188 123.519531 93.46875 123.15625 93.375 C 122.800781 93.273438 122.441406 93.21875 122.078125 93.21875 C 121.265625 93.21875 120.628906 93.480469 120.171875 94 C 119.722656 94.523438 119.5 95.246094 119.5 96.171875 C 119.5 97.109375 119.722656 97.839844 120.171875 98.359375 C 120.628906 98.871094 121.265625 99.125 122.078125 99.125 C 122.441406 99.125 122.800781 99.078125 123.15625 98.984375 C 123.519531 98.890625 123.878906 98.746094 124.234375 98.546875 L 124.234375 99.703125 C 123.878906 99.871094 123.515625 99.996094 123.140625 100.078125 C 122.765625 100.160156 122.367188 100.203125 121.953125 100.203125 C 120.796875 100.203125 119.875 99.84375 119.1875 99.125 C 118.507812 98.398438 118.171875 97.414062 118.171875 96.171875 C 118.171875 94.933594 118.515625 93.953125 119.203125 93.234375 C 119.890625 92.515625 120.832031 92.15625 122.03125 92.15625 C 122.414062 92.15625 122.789062 92.199219 123.15625 92.28125 C 123.53125 92.355469 123.890625 92.476562 124.234375 92.640625 Z M 132.976562 95.859375 L 132.976562 96.46875 L 127.179688 96.46875 C 127.242188 97.335938 127.5 97.996094 127.960938 98.453125 C 128.429688 98.902344 129.078125 99.125 129.914062 99.125 C 130.402344 99.125 130.871094 99.070312 131.320312 98.953125 C 131.777344 98.839844 132.230469 98.664062 132.679688 98.421875 L 132.679688 99.609375 C 132.21875 99.796875 131.75 99.945312 131.273438 100.046875 C 130.804688 100.148438 130.328125 100.203125 129.851562 100.203125 C 128.621094 100.203125 127.648438 99.851562 126.929688 99.140625 C 126.21875 98.421875 125.867188 97.460938 125.867188 96.25 C 125.867188 94.992188 126.203125 93.996094 126.882812 93.265625 C 127.558594 92.527344 128.476562 92.15625 129.632812 92.15625 C 130.664062 92.15625 131.476562 92.492188 132.070312 93.15625 C 132.671875 93.8125 132.976562 94.714844 132.976562 95.859375 Z M 131.710938 95.484375 C 131.699219 94.796875 131.507812 94.25 131.132812 93.84375 C 130.757812 93.429688 130.261719 93.21875 129.648438 93.21875 C 128.9375 93.21875 128.371094 93.421875 127.945312 93.828125 C 127.527344 94.226562 127.289062 94.78125 127.226562 95.5 Z M 45 87.003906 "/>
<path style="fill-rule:nonzero;fill:rgb(100%,66.666667%,0%);fill-opacity:1;stroke-width:2;stroke-linecap:butt;stroke-linejoin:miter;stroke:rgb(100%,100%,100%);stroke-opacity:1;stroke-miterlimit:10;" d="M 230 60 C 230 76.570312 216.570312 90 200 90 C 183.429688 90 170 76.570312 170 60 C 170 43.429688 183.429688 30 200 30 C 216.570312 30 230 43.429688 230 60 "/>
<path style=" stroke:none;fill-rule:nonzero;fill:rgb(100%,100%,100%);fill-opacity:1;" d="M 191.609375 64.734375 L 191.609375 62.578125 C 192.085938 62.808594 192.546875 62.980469 192.984375 63.09375 C 193.421875 63.199219 193.851562 63.25 194.28125 63.25 C 195.175781 63.25 195.875 63.007812 196.375 62.515625 C 196.875 62.015625 197.164062 61.277344 197.25 60.296875 C 196.894531 60.558594 196.515625 60.757812 196.109375 60.890625 C 195.710938 61.015625 195.28125 61.078125 194.8125 61.078125 C 193.625 61.078125 192.660156 60.730469 191.921875 60.03125 C 191.191406 59.335938 190.828125 58.417969 190.828125 57.28125 C 190.828125 56.03125 191.234375 55.03125 192.046875 54.28125 C 192.867188 53.523438 193.960938 53.140625 195.328125 53.140625 C 196.847656 53.140625 198.023438 53.65625 198.859375 54.6875 C 199.691406 55.710938 200.109375 57.15625 200.109375 59.03125 C 200.109375 60.960938 199.617188 62.476562 198.640625 63.578125 C 197.671875 64.683594 196.335938 65.234375 194.640625 65.234375 C 194.097656 65.234375 193.578125 65.191406 193.078125 65.109375 C 192.578125 65.023438 192.085938 64.902344 191.609375 64.734375 Z M 195.3125 59.125 C 195.84375 59.125 196.238281 58.953125 196.5 58.609375 C 196.769531 58.265625 196.90625 57.757812 196.90625 57.078125 C 196.90625 56.402344 196.769531 55.890625 196.5 55.546875 C 196.238281 55.203125 195.84375 55.03125 195.3125 55.03125 C 194.789062 55.03125 194.394531 55.203125 194.125 55.546875 C 193.863281 55.890625 193.734375 56.402344 193.734375 57.078125 C 193.734375 57.757812 193.863281 58.265625 194.125 58.609375 C 194.394531 58.953125 194.789062 59.125 195.3125 59.125 Z M 206.929688 59.234375 C 206.398438 59.234375 206 59.40625 205.742188 59.75 C 205.480469 60.09375 205.351562 60.605469 205.351562 61.28125 C 205.351562 61.96875 205.480469 62.484375 205.742188 62.828125 C 206 63.164062 206.398438 63.328125 206.929688 63.328125 C 207.460938 63.328125 207.855469 63.164062 208.117188 62.828125 C 208.375 62.484375 208.507812 61.96875 208.507812 61.28125 C 208.507812 60.605469 208.375 60.09375 208.117188 59.75 C 207.855469 59.40625 207.460938 59.234375 206.929688 59.234375 Z M 210.648438 53.640625 L 210.648438 55.796875 C 210.148438 55.558594 209.679688 55.386719 209.242188 55.28125 C 208.804688 55.167969 208.375 55.109375 207.960938 55.109375 C 207.0625 55.109375 206.367188 55.359375 205.867188 55.859375 C 205.367188 56.351562 205.074219 57.085938 204.992188 58.0625 C 205.335938 57.8125 205.703125 57.625 206.101562 57.5 C 206.507812 57.367188 206.949219 57.296875 207.429688 57.296875 C 208.617188 57.296875 209.574219 57.648438 210.304688 58.34375 C 211.042969 59.042969 211.414062 59.960938 211.414062 61.09375 C 211.414062 62.34375 211 63.351562 210.179688 64.109375 C 209.367188 64.859375 208.273438 65.234375 206.898438 65.234375 C 205.375 65.234375 204.199219 64.726562 203.367188 63.703125 C 202.542969 62.671875 202.132812 61.214844 202.132812 59.328125 C 202.132812 57.402344 202.617188 55.890625 203.585938 54.796875 C 204.554688 53.695312 205.886719 53.140625 207.585938 53.140625 C 208.117188 53.140625 208.632812 53.183594 209.132812 53.265625 C 209.640625 53.351562 210.148438 53.476562 210.648438 53.640625 Z M 190 50.148438 "/>
<path style=" stroke:none;fill-rule:nonzero;fill:rgb(100%,100%,100%);fill-opacity:1;" d="M 169.78125 91.15625 L 167.90625 96.234375 L 171.671875 96.234375 Z M 169 89.796875 L 170.578125 89.796875 L 174.46875 100 L 173.03125 100 L 172.09375 97.375 L 167.5 97.375 L 166.5625 100 L 165.109375 100 Z M 181.160156 92.640625 L 181.160156 93.8125 C 180.804688 93.617188 180.445312 93.46875 180.082031 93.375 C 179.726562 93.273438 179.367188 93.21875 179.003906 93.21875 C 178.191406 93.21875 177.554688 93.480469 177.097656 94 C 176.648438 94.523438 176.425781 95.246094 176.425781 96.171875 C 176.425781 97.109375 176.648438 97.839844 177.097656 98.359375 C 177.554688 98.871094 178.191406 99.125 179.003906 99.125 C 179.367188 99.125 179.726562 99.078125 180.082031 98.984375 C 180.445312 98.890625 180.804688 98.746094 181.160156 98.546875 L 181.160156 99.703125 C 180.804688 99.871094 180.441406 99.996094 180.066406 100.078125 C 179.691406 100.160156 179.292969 100.203125 178.878906 100.203125 C 177.722656 100.203125 176.800781 99.84375 176.113281 99.125 C 175.433594 98.398438 175.097656 97.414062 175.097656 96.171875 C 175.097656 94.933594 175.441406 93.953125 176.128906 93.234375 C 176.816406 92.515625 177.757812 92.15625 178.957031 92.15625 C 179.339844 92.15625 179.714844 92.199219 180.082031 92.28125 C 180.457031 92.355469 180.816406 92.476562 181.160156 92.640625 Z M 188.855469 92.640625 L 188.855469 93.8125 C 188.5 93.617188 188.140625 93.46875 187.777344 93.375 C 187.421875 93.273438 187.0625 93.21875 186.699219 93.21875 C 185.886719 93.21875 185.25 93.480469 184.792969 94 C 184.34375 94.523438 184.121094 95.246094 184.121094 96.171875 C 184.121094 97.109375 184.34375 97.839844 184.792969 98.359375 C 185.25 98.871094 185.886719 99.125 186.699219 99.125 C 187.0625 99.125 187.421875 99.078125 187.777344 98.984375 C 188.140625 98.890625 188.5 98.746094 188.855469 98.546875 L 188.855469 99.703125 C 188.5 99.871094 188.136719 99.996094 187.761719 100.078125 C 187.386719 100.160156 186.988281 100.203125 186.574219 100.203125 C 185.417969 100.203125 184.496094 99.84375 183.808594 99.125 C 183.128906 98.398438 182.792969 97.414062 182.792969 96.171875 C 182.792969 94.933594 183.136719 93.953125 183.824219 93.234375 C 184.511719 92.515625 185.453125 92.15625 186.652344 92.15625 C 187.035156 92.15625 187.410156 92.199219 187.777344 92.28125 C 188.152344 92.355469 188.511719 92.476562 188.855469 92.640625 Z M 197.601562 95.859375 L 197.601562 96.46875 L 191.804688 96.46875 C 191.867188 97.335938 192.125 97.996094 192.585938 98.453125 C 193.054688 98.902344 193.703125 99.125 194.539062 99.125 C 195.027344 99.125 195.496094 99.070312 195.945312 98.953125 C 196.402344 98.839844 196.855469 98.664062 197.304688 98.421875 L 197.304688 99.609375 C 196.84375 99.796875 196.375 99.945312 195.898438 100.046875 C 195.429688 100.148438 194.953125 100.203125 194.476562 100.203125 C 193.246094 100.203125 192.273438 99.851562 191.554688 99.140625 C 190.84375 98.421875 190.492188 97.460938 190.492188 96.25 C 190.492188 94.992188 190.828125 93.996094 191.507812 93.265625 C 192.183594 92.527344 193.101562 92.15625 194.257812 92.15625 C 195.289062 92.15625 196.101562 92.492188 196.695312 93.15625 C 197.296875 93.8125 197.601562 94.714844 197.601562 95.859375 Z M 196.335938 95.484375 C 196.324219 94.796875 196.132812 94.25 195.757812 93.84375 C 195.382812 93.429688 194.886719 93.21875 194.273438 93.21875 C 193.5625 93.21875 192.996094 93.421875 192.570312 93.828125 C 192.152344 94.226562 191.914062 94.78125 191.851562 95.5 Z M 204.542969 92.5625 L 204.542969 93.765625 C 204.1875 93.578125 203.816406 93.445312 203.433594 93.359375 C 203.046875 93.265625 202.652344 93.21875 202.246094 93.21875 C 201.621094 93.21875 201.152344 93.3125 200.839844 93.5 C 200.527344 93.6875 200.371094 93.976562 200.371094 94.359375 C 200.371094 94.652344 200.480469 94.882812 200.699219 95.046875 C 200.925781 95.214844 201.378906 95.371094 202.058594 95.515625 L 202.480469 95.625 C 203.375 95.8125 204.011719 96.085938 204.386719 96.4375 C 204.761719 96.78125 204.949219 97.265625 204.949219 97.890625 C 204.949219 98.601562 204.667969 99.164062 204.105469 99.578125 C 203.542969 99.996094 202.769531 100.203125 201.792969 100.203125 C 201.375 100.203125 200.941406 100.160156 200.496094 100.078125 C 200.058594 99.996094 199.59375 99.875 199.105469 99.71875 L 199.105469 98.421875 C 199.5625 98.664062 200.015625 98.84375 200.464844 98.96875 C 200.921875 99.085938 201.371094 99.140625 201.808594 99.140625 C 202.402344 99.140625 202.855469 99.042969 203.167969 98.84375 C 203.488281 98.636719 203.652344 98.351562 203.652344 97.984375 C 203.652344 97.640625 203.535156 97.382812 203.308594 97.203125 C 203.078125 97.015625 202.574219 96.839844 201.792969 96.671875 L 201.355469 96.5625 C 200.582031 96.40625 200.019531 96.15625 199.667969 95.8125 C 199.324219 95.46875 199.152344 95.007812 199.152344 94.421875 C 199.152344 93.695312 199.40625 93.136719 199.917969 92.75 C 200.425781 92.355469 201.152344 92.15625 202.089844 92.15625 C 202.558594 92.15625 202.996094 92.195312 203.402344 92.265625 C 203.816406 92.328125 204.199219 92.429688 204.542969 92.5625 Z M 211.835938 92.5625 L 211.835938 93.765625 C 211.480469 93.578125 211.109375 93.445312 210.726562 93.359375 C 210.339844 93.265625 209.945312 93.21875 209.539062 93.21875 C 208.914062 93.21875 208.445312 93.3125 208.132812 93.5 C 207.820312 93.6875 207.664062 93.976562 207.664062 94.359375 C 207.664062 94.652344 207.773438 94.882812 207.992188 95.046875 C 208.21875 95.214844 208.671875 95.371094 209.351562 95.515625 L 209.773438 95.625 C 210.667969 95.8125 211.304688 96.085938 211.679688 96.4375 C 212.054688 96.78125 212.242188 97.265625 212.242188 97.890625 C 212.242188 98.601562 211.960938 99.164062 211.398438 99.578125 C 210.835938 99.996094 210.0625 100.203125 209.085938 100.203125 C 208.667969 100.203125 208.234375 100.160156 207.789062 100.078125 C 207.351562 99.996094 206.886719 99.875 206.398438 99.71875 L 206.398438 98.421875 C 206.855469 98.664062 207.308594 98.84375 207.757812 98.96875 C 208.214844 99.085938 208.664062 99.140625 209.101562 99.140625 C 209.695312 99.140625 210.148438 99.042969 210.460938 98.84375 C 210.78125 98.636719 210.945312 98.351562 210.945312 97.984375 C 210.945312 97.640625 210.828125 97.382812 210.601562 97.203125 C 210.371094 97.015625 209.867188 96.839844 209.085938 96.671875 L 208.648438 96.5625 C 207.875 96.40625 207.3125 96.15625 206.960938 95.8125 C 206.617188 95.46875 206.445312 95.007812 206.445312 94.421875 C 206.445312 93.695312 206.699219 93.136719 207.210938 92.75 C 207.71875 92.355469 208.445312 92.15625 209.382812 92.15625 C 209.851562 92.15625 210.289062 92.195312 210.695312 92.265625 C 211.109375 92.328125 211.492188 92.429688 211.835938 92.5625 Z M 214.238281 92.34375 L 215.503906 92.34375 L 215.503906 100 L 214.238281 100 Z M 214.238281 89.359375 L 215.503906 89.359375 L 215.503906 90.953125 L 214.238281 90.953125 Z M 223.628906 96.171875 C 223.628906 95.257812 223.433594 94.539062 223.050781 94.015625 C 222.675781 93.484375 222.152344 93.21875 221.488281 93.21875 C 220.820312 93.21875 220.292969 93.484375 219.910156 94.015625 C 219.535156 94.539062 219.347656 95.257812 219.347656 96.171875 C 219.347656 97.101562 219.535156 97.828125 219.910156 98.359375 C 220.292969 98.882812 220.820312 99.140625 221.488281 99.140625 C 222.152344 99.140625 222.675781 98.882812 223.050781 98.359375 C 223.433594 97.828125 223.628906 97.101562 223.628906 96.171875 Z M 219.347656 93.5 C 219.617188 93.054688 219.949219 92.71875 220.347656 92.5 C 220.753906 92.273438 221.238281 92.15625 221.800781 92.15625 C 222.726562 92.15625 223.480469 92.527344 224.066406 93.265625 C 224.648438 94.007812 224.941406 94.976562 224.941406 96.171875 C 224.941406 97.382812 224.648438 98.355469 224.066406 99.09375 C 223.480469 99.835938 222.726562 100.203125 221.800781 100.203125 C 221.238281 100.203125 220.753906 100.09375 220.347656 99.875 C 219.949219 99.648438 219.617188 99.304688 219.347656 98.84375 L 219.347656 100 L 218.082031 100 L 218.082031 89.359375 L 219.347656 89.359375 Z M 227.015625 92.34375 L 228.28125 92.34375 L 228.28125 100 L 227.015625 100 Z M 227.015625 89.359375 L 228.28125 89.359375 L 228.28125 90.953125 L 227.015625 90.953125 Z M 230.90625 89.359375 L 232.171875 89.359375 L 232.171875 100 L 230.90625 100 Z M 234.796875 92.34375 L 236.0625 92.34375 L 236.0625 100 L 234.796875 100 Z M 234.796875 89.359375 L 236.0625 89.359375 L 236.0625 90.953125 L 234.796875 90.953125 Z M 239.933594 90.171875 L 239.933594 92.34375 L 242.527344 92.34375 L 242.527344 93.328125 L 239.933594 93.328125 L 239.933594 97.484375 C 239.933594 98.101562 240.015625 98.5 240.183594 98.6875 C 240.359375 98.867188 240.707031 98.953125 241.230469 98.953125 L 242.527344 98.953125 L 242.527344 100 L 241.230469 100 C 240.261719 100 239.589844 99.820312 239.214844 99.453125 C 238.847656 99.089844 238.667969 98.433594 238.667969 97.484375 L 238.667969 93.328125 L 237.746094 93.328125 L 237.746094 92.34375 L 238.667969 92.34375 L 238.667969 90.171875 Z M 247.359375 100.71875 C 247.003906 101.625 246.65625 102.210938 246.3125 102.484375 C 245.976562 102.765625 245.53125 102.90625 244.96875 102.90625 L 243.96875 102.90625 L 243.96875 101.859375 L 244.703125 101.859375 C 245.046875 101.859375 245.3125 101.773438 245.5 101.609375 C 245.695312 101.453125 245.910156 101.066406 246.140625 100.453125 L 246.375 99.875 L 243.28125 92.34375 L 244.609375 92.34375 L 247 98.328125 L 249.390625 92.34375 L 250.734375 92.34375 Z M 165 87.003906 "/>
<path style="fill-rule:nonzero;fill:rgb(29.803922%,68.627451%,31.372549%);fill-opacity:1;stroke-width:2;stroke-linecap:butt;stroke-linejoin:miter;stroke:rgb(100%,100%,100%);stroke-opacity:1;stroke-miterlimit:10;" d="M 350 60 C 350 76.570312 336.570312 90 320 90 C 303.429688 90 290 76.570312 290 60 C 290 43.429688 303.429688 30 320 30 C 336.570312 30 350 43.429688 350 60 "/>
<path style=" stroke:none;fill-rule:nonzero;fill:rgb(100%,100%,100%);fill-opacity:1;" d="M 311.875 62.921875 L 314.53125 62.921875 L 314.53125 55.375 L 311.8125 55.9375 L 311.8125 53.890625 L 314.515625 53.328125 L 317.375 53.328125 L 317.375 62.921875 L 320.03125 62.921875 L 320.03125 65 L 311.875 65 Z M 328.492188 59.15625 C 328.492188 57.699219 328.355469 56.671875 328.085938 56.078125 C 327.8125 55.476562 327.355469 55.171875 326.710938 55.171875 C 326.0625 55.171875 325.601562 55.476562 325.320312 56.078125 C 325.046875 56.671875 324.914062 57.699219 324.914062 59.15625 C 324.914062 60.625 325.046875 61.664062 325.320312 62.265625 C 325.601562 62.871094 326.0625 63.171875 326.710938 63.171875 C 327.34375 63.171875 327.796875 62.871094 328.070312 62.265625 C 328.351562 61.664062 328.492188 60.625 328.492188 59.15625 Z M 331.507812 59.171875 C 331.507812 61.109375 331.089844 62.605469 330.257812 63.65625 C 329.421875 64.710938 328.242188 65.234375 326.710938 65.234375 C 325.167969 65.234375 323.980469 64.710938 323.148438 63.65625 C 322.3125 62.605469 321.898438 61.109375 321.898438 59.171875 C 321.898438 57.234375 322.3125 55.746094 323.148438 54.703125 C 323.980469 53.652344 325.167969 53.125 326.710938 53.125 C 328.242188 53.125 329.421875 53.652344 330.257812 54.703125 C 331.089844 55.746094 331.507812 57.234375 331.507812 59.171875 Z M 339.625 59.15625 C 339.625 57.699219 339.488281 56.671875 339.21875 56.078125 C 338.945312 55.476562 338.488281 55.171875 337.84375 55.171875 C 337.195312 55.171875 336.734375 55.476562 336.453125 56.078125 C 336.179688 56.671875 336.046875 57.699219 336.046875 59.15625 C 336.046875 60.625 336.179688 61.664062 336.453125 62.265625 C 336.734375 62.871094 337.195312 63.171875 337.84375 63.171875 C 338.476562 63.171875 338.929688 62.871094 339.203125 62.265625 C 339.484375 61.664062 339.625 60.625 339.625 59.15625 Z M 342.640625 59.171875 C 342.640625 61.109375 342.222656 62.605469 341.390625 63.65625 C 340.554688 64.710938 339.375 65.234375 337.84375 65.234375 C 336.300781 65.234375 335.113281 64.710938 334.28125 63.65625 C 333.445312 62.605469 333.03125 61.109375 333.03125 59.171875 C 333.03125 57.234375 333.445312 55.746094 334.28125 54.703125 C 335.113281 53.652344 336.300781 53.125 337.84375 53.125 C 339.375 53.125 340.554688 53.652344 341.390625 54.703125 C 342.222656 55.746094 342.640625 57.234375 342.640625 59.171875 Z M 310 50.148438 "/>
<path style=" stroke:none;fill-rule:nonzero;fill:rgb(100%,100%,100%);fill-opacity:1;" d="M 287.75 95.125 L 287.75 98.859375 L 289.96875 98.859375 C 290.707031 98.859375 291.253906 98.710938 291.609375 98.40625 C 291.972656 98.09375 292.15625 97.621094 292.15625 96.984375 C 292.15625 96.351562 291.972656 95.882812 291.609375 95.578125 C 291.253906 95.277344 290.707031 95.125 289.96875 95.125 Z M 287.75 90.921875 L 287.75 94 L 289.796875 94 C 290.472656 94 290.972656 93.875 291.296875 93.625 C 291.628906 93.375 291.796875 92.992188 291.796875 92.46875 C 291.796875 91.949219 291.628906 91.5625 291.296875 91.3125 C 290.972656 91.054688 290.472656 90.921875 289.796875 90.921875 Z M 286.375 89.796875 L 289.90625 89.796875 C 290.957031 89.796875 291.765625 90.015625 292.328125 90.453125 C 292.898438 90.890625 293.1875 91.511719 293.1875 92.3125 C 293.1875 92.9375 293.039062 93.4375 292.75 93.8125 C 292.457031 94.179688 292.03125 94.40625 291.46875 94.5 C 292.144531 94.648438 292.671875 94.953125 293.046875 95.421875 C 293.421875 95.882812 293.609375 96.453125 293.609375 97.140625 C 293.609375 98.058594 293.296875 98.765625 292.671875 99.265625 C 292.054688 99.757812 291.175781 100 290.03125 100 L 286.375 100 Z M 302.480469 95.859375 L 302.480469 96.46875 L 296.683594 96.46875 C 296.746094 97.335938 297.003906 97.996094 297.464844 98.453125 C 297.933594 98.902344 298.582031 99.125 299.417969 99.125 C 299.90625 99.125 300.375 99.070312 300.824219 98.953125 C 301.28125 98.839844 301.734375 98.664062 302.183594 98.421875 L 302.183594 99.609375 C 301.722656 99.796875 301.253906 99.945312 300.777344 100.046875 C 300.308594 100.148438 299.832031 100.203125 299.355469 100.203125 C 298.125 100.203125 297.152344 99.851562 296.433594 99.140625 C 295.722656 98.421875 295.371094 97.460938 295.371094 96.25 C 295.371094 94.992188 295.707031 93.996094 296.386719 93.265625 C 297.0625 92.527344 297.980469 92.15625 299.136719 92.15625 C 300.167969 92.15625 300.980469 92.492188 301.574219 93.15625 C 302.175781 93.8125 302.480469 94.714844 302.480469 95.859375 Z M 301.214844 95.484375 C 301.203125 94.796875 301.011719 94.25 300.636719 93.84375 C 300.261719 93.429688 299.765625 93.21875 299.152344 93.21875 C 298.441406 93.21875 297.875 93.421875 297.449219 93.828125 C 297.03125 94.226562 296.792969 94.78125 296.730469 95.5 Z M 309.421875 92.5625 L 309.421875 93.765625 C 309.066406 93.578125 308.695312 93.445312 308.3125 93.359375 C 307.925781 93.265625 307.53125 93.21875 307.125 93.21875 C 306.5 93.21875 306.03125 93.3125 305.71875 93.5 C 305.40625 93.6875 305.25 93.976562 305.25 94.359375 C 305.25 94.652344 305.359375 94.882812 305.578125 95.046875 C 305.804688 95.214844 306.257812 95.371094 306.9375 95.515625 L 307.359375 95.625 C 308.253906 95.8125 308.890625 96.085938 309.265625 96.4375 C 309.640625 96.78125 309.828125 97.265625 309.828125 97.890625 C 309.828125 98.601562 309.546875 99.164062 308.984375 99.578125 C 308.421875 99.996094 307.648438 100.203125 306.671875 100.203125 C 306.253906 100.203125 305.820312 100.160156 305.375 100.078125 C 304.9375 99.996094 304.472656 99.875 303.984375 99.71875 L 303.984375 98.421875 C 304.441406 98.664062 304.894531 98.84375 305.34375 98.96875 C 305.800781 99.085938 306.25 99.140625 306.6875 99.140625 C 307.28125 99.140625 307.734375 99.042969 308.046875 98.84375 C 308.367188 98.636719 308.53125 98.351562 308.53125 97.984375 C 308.53125 97.640625 308.414062 97.382812 308.1875 97.203125 C 307.957031 97.015625 307.453125 96.839844 306.671875 96.671875 L 306.234375 96.5625 C 305.460938 96.40625 304.898438 96.15625 304.546875 95.8125 C 304.203125 95.46875 304.03125 95.007812 304.03125 94.421875 C 304.03125 93.695312 304.285156 93.136719 304.796875 92.75 C 305.304688 92.355469 306.03125 92.15625 306.96875 92.15625 C 307.4375 92.15625 307.875 92.195312 308.28125 92.265625 C 308.695312 92.328125 309.078125 92.429688 309.421875 92.5625 Z M 313.074219 90.171875 L 313.074219 92.34375 L 315.667969 92.34375 L 315.667969 93.328125 L 313.074219 93.328125 L 313.074219 97.484375 C 313.074219 98.101562 313.15625 98.5 313.324219 98.6875 C 313.5 98.867188 313.847656 98.953125 314.371094 98.953125 L 315.667969 98.953125 L 315.667969 100 L 314.371094 100 C 313.402344 100 312.730469 99.820312 312.355469 99.453125 C 311.988281 99.089844 311.808594 98.433594 311.808594 97.484375 L 311.808594 93.328125 L 310.886719 93.328125 L 310.886719 92.34375 L 311.808594 92.34375 L 311.808594 90.171875 Z M 323.203125 90.921875 L 323.203125 94.765625 L 324.9375 94.765625 C 325.582031 94.765625 326.082031 94.601562 326.4375 94.265625 C 326.789062 93.933594 326.96875 93.460938 326.96875 92.84375 C 326.96875 92.230469 326.789062 91.757812 326.4375 91.421875 C 326.082031 91.089844 325.582031 90.921875 324.9375 90.921875 Z M 321.828125 89.796875 L 324.9375 89.796875 C 326.082031 89.796875 326.945312 90.058594 327.53125 90.578125 C 328.125 91.089844 328.421875 91.84375 328.421875 92.84375 C 328.421875 93.855469 328.125 94.617188 327.53125 95.125 C 326.945312 95.636719 326.082031 95.890625 324.9375 95.890625 L 323.203125 95.890625 L 323.203125 100 L 321.828125 100 Z M 334.398438 93.515625 C 334.261719 93.433594 334.109375 93.375 333.945312 93.34375 C 333.777344 93.304688 333.59375 93.28125 333.398438 93.28125 C 332.679688 93.28125 332.125 93.515625 331.742188 93.984375 C 331.367188 94.445312 331.179688 95.105469 331.179688 95.96875 L 331.179688 100 L 329.914062 100 L 329.914062 92.34375 L 331.179688 92.34375 L 331.179688 93.53125 C 331.449219 93.0625 331.792969 92.71875 332.210938 92.5 C 332.636719 92.273438 333.152344 92.15625 333.757812 92.15625 C 333.851562 92.15625 333.949219 92.164062 334.054688 92.171875 C 334.15625 92.183594 334.273438 92.203125 334.398438 92.234375 Z M 339.199219 96.15625 C 338.1875 96.15625 337.484375 96.273438 337.089844 96.5 C 336.691406 96.730469 336.496094 97.125 336.496094 97.6875 C 336.496094 98.136719 336.640625 98.492188 336.933594 98.75 C 337.234375 99.011719 337.636719 99.140625 338.136719 99.140625 C 338.832031 99.140625 339.390625 98.898438 339.808594 98.40625 C 340.234375 97.90625 340.449219 97.25 340.449219 96.4375 L 340.449219 96.15625 Z M 341.714844 95.625 L 341.714844 100 L 340.449219 100 L 340.449219 98.84375 C 340.167969 99.304688 339.808594 99.648438 339.371094 99.875 C 338.941406 100.09375 338.421875 100.203125 337.808594 100.203125 C 337.027344 100.203125 336.402344 99.984375 335.933594 99.546875 C 335.472656 99.101562 335.246094 98.507812 335.246094 97.765625 C 335.246094 96.914062 335.53125 96.265625 336.105469 95.828125 C 336.6875 95.390625 337.546875 95.171875 338.683594 95.171875 L 340.449219 95.171875 L 340.449219 95.046875 C 340.449219 94.464844 340.253906 94.015625 339.871094 93.703125 C 339.496094 93.382812 338.964844 93.21875 338.277344 93.21875 C 337.839844 93.21875 337.410156 93.277344 336.996094 93.390625 C 336.578125 93.496094 336.183594 93.652344 335.808594 93.859375 L 335.808594 92.6875 C 336.265625 92.511719 336.707031 92.382812 337.136719 92.296875 C 337.574219 92.203125 337.996094 92.15625 338.402344 92.15625 C 339.515625 92.15625 340.34375 92.445312 340.886719 93.015625 C 341.4375 93.589844 341.714844 94.460938 341.714844 95.625 Z M 349.8125 92.640625 L 349.8125 93.8125 C 349.457031 93.617188 349.097656 93.46875 348.734375 93.375 C 348.378906 93.273438 348.019531 93.21875 347.65625 93.21875 C 346.84375 93.21875 346.207031 93.480469 345.75 94 C 345.300781 94.523438 345.078125 95.246094 345.078125 96.171875 C 345.078125 97.109375 345.300781 97.839844 345.75 98.359375 C 346.207031 98.871094 346.84375 99.125 347.65625 99.125 C 348.019531 99.125 348.378906 99.078125 348.734375 98.984375 C 349.097656 98.890625 349.457031 98.746094 349.8125 98.546875 L 349.8125 99.703125 C 349.457031 99.871094 349.09375 99.996094 348.71875 100.078125 C 348.34375 100.160156 347.945312 100.203125 347.53125 100.203125 C 346.375 100.203125 345.453125 99.84375 344.765625 99.125 C 344.085938 98.398438 343.75 97.414062 343.75 96.171875 C 343.75 94.933594 344.09375 93.953125 344.78125 93.234375 C 345.46875 92.515625 346.410156 92.15625 347.609375 92.15625 C 347.992188 92.15625 348.367188 92.199219 348.734375 92.28125 C 349.109375 92.355469 349.46875 92.476562 349.8125 92.640625 Z M 353.242188 90.171875 L 353.242188 92.34375 L 355.835938 92.34375 L 355.835938 93.328125 L 353.242188 93.328125 L 353.242188 97.484375 C 353.242188 98.101562 353.324219 98.5 353.492188 98.6875 C 353.667969 98.867188 354.015625 98.953125 354.539062 98.953125 L 355.835938 98.953125 L 355.835938 100 L 354.539062 100 C 353.570312 100 352.898438 99.820312 352.523438 99.453125 C 352.15625 99.089844 351.976562 98.433594 351.976562 97.484375 L 351.976562 93.328125 L 351.054688 93.328125 L 351.054688 92.34375 L 351.976562 92.34375 L 351.976562 90.171875 Z M 357.480469 92.34375 L 358.746094 92.34375 L 358.746094 100 L 357.480469 100 Z M 357.480469 89.359375 L 358.746094 89.359375 L 358.746094 90.953125 L 357.480469 90.953125 Z M 366.886719 92.640625 L 366.886719 93.8125 C 366.53125 93.617188 366.171875 93.46875 365.808594 93.375 C 365.453125 93.273438 365.09375 93.21875 364.730469 93.21875 C 363.917969 93.21875 363.28125 93.480469 362.824219 94 C 362.375 94.523438 362.152344 95.246094 362.152344 96.171875 C 362.152344 97.109375 362.375 97.839844 362.824219 98.359375 C 363.28125 98.871094 363.917969 99.125 364.730469 99.125 C 365.09375 99.125 365.453125 99.078125 365.808594 98.984375 C 366.171875 98.890625 366.53125 98.746094 366.886719 98.546875 L 366.886719 99.703125 C 366.53125 99.871094 366.167969 99.996094 365.792969 100.078125 C 365.417969 100.160156 365.019531 100.203125 364.605469 100.203125 C 363.449219 100.203125 362.527344 99.84375 361.839844 99.125 C 361.160156 98.398438 360.824219 97.414062 360.824219 96.171875 C 360.824219 94.933594 361.167969 93.953125 361.855469 93.234375 C 362.542969 92.515625 363.484375 92.15625 364.683594 92.15625 C 365.066406 92.15625 365.441406 92.199219 365.808594 92.28125 C 366.183594 92.355469 366.542969 92.476562 366.886719 92.640625 Z M 375.632812 95.859375 L 375.632812 96.46875 L 369.835938 96.46875 C 369.898438 97.335938 370.15625 97.996094 370.617188 98.453125 C 371.085938 98.902344 371.734375 99.125 372.570312 99.125 C 373.058594 99.125 373.527344 99.070312 373.976562 98.953125 C 374.433594 98.839844 374.886719 98.664062 375.335938 98.421875 L 375.335938 99.609375 C 374.875 99.796875 374.40625 99.945312 373.929688 100.046875 C 373.460938 100.148438 372.984375 100.203125 372.507812 100.203125 C 371.277344 100.203125 370.304688 99.851562 369.585938 99.140625 C 368.875 98.421875 368.523438 97.460938 368.523438 96.25 C 368.523438 94.992188 368.859375 93.996094 369.539062 93.265625 C 370.214844 92.527344 371.132812 92.15625 372.289062 92.15625 C 373.320312 92.15625 374.132812 92.492188 374.726562 93.15625 C 375.328125 93.8125 375.632812 94.714844 375.632812 95.859375 Z M 374.367188 95.484375 C 374.355469 94.796875 374.164062 94.25 373.789062 93.84375 C 373.414062 93.429688 372.917969 93.21875 372.304688 93.21875 C 371.59375 93.21875 371.027344 93.421875 370.601562 93.828125 C 370.183594 94.226562 369.945312 94.78125 369.882812 95.5 Z M 382.570312 92.5625 L 382.570312 93.765625 C 382.214844 93.578125 381.84375 93.445312 381.460938 93.359375 C 381.074219 93.265625 380.679688 93.21875 380.273438 93.21875 C 379.648438 93.21875 379.179688 93.3125 378.867188 93.5 C 378.554688 93.6875 378.398438 93.976562 378.398438 94.359375 C 378.398438 94.652344 378.507812 94.882812 378.726562 95.046875 C 378.953125 95.214844 379.40625 95.371094 380.085938 95.515625 L 380.507812 95.625 C 381.402344 95.8125 382.039062 96.085938 382.414062 96.4375 C 382.789062 96.78125 382.976562 97.265625 382.976562 97.890625 C 382.976562 98.601562 382.695312 99.164062 382.132812 99.578125 C 381.570312 99.996094 380.796875 100.203125 379.820312 100.203125 C 379.402344 100.203125 378.96875 100.160156 378.523438 100.078125 C 378.085938 99.996094 377.621094 99.875 377.132812 99.71875 L 377.132812 98.421875 C 377.589844 98.664062 378.042969 98.84375 378.492188 98.96875 C 378.949219 99.085938 379.398438 99.140625 379.835938 99.140625 C 380.429688 99.140625 380.882812 99.042969 381.195312 98.84375 C 381.515625 98.636719 381.679688 98.351562 381.679688 97.984375 C 381.679688 97.640625 381.5625 97.382812 381.335938 97.203125 C 381.105469 97.015625 380.601562 96.839844 379.820312 96.671875 L 379.382812 96.5625 C 378.609375 96.40625 378.046875 96.15625 377.695312 95.8125 C 377.351562 95.46875 377.179688 95.007812 377.179688 94.421875 C 377.179688 93.695312 377.433594 93.136719 377.945312 92.75 C 378.453125 92.355469 379.179688 92.15625 380.117188 92.15625 C 380.585938 92.15625 381.023438 92.195312 381.429688 92.265625 C 381.84375 92.328125 382.226562 92.429688 382.570312 92.5625 Z M 285 87.003906 "/>
<path style="fill-rule:nonzero;fill:rgb(29.803922%,68.627451%,31.372549%);fill-opacity:1;stroke-width:2;stroke-linecap:butt;stroke-linejoin:miter;stroke:rgb(100%,100%,100%);stroke-opacity:1;stroke-miterlimit:10;" d="M 470 60 C 470 76.570312 456.570312 90 440 90 C 423.429688 90 410 76.570312 410 60 C 410 43.429688 423.429688 30 440 30 C 456.570312 30 470 43.429688 470 60 "/>
<path style=" stroke:none;fill-rule:nonzero;fill:rgb(100%,100%,100%);fill-opacity:1;" d="M 431.875 62.921875 L 434.53125 62.921875 L 434.53125 55.375 L 431.8125 55.9375 L 431.8125 53.890625 L 434.515625 53.328125 L 437.375 53.328125 L 437.375 62.921875 L 440.03125 62.921875 L 440.03125 65 L 431.875 65 Z M 448.492188 59.15625 C 448.492188 57.699219 448.355469 56.671875 448.085938 56.078125 C 447.8125 55.476562 447.355469 55.171875 446.710938 55.171875 C 446.0625 55.171875 445.601562 55.476562 445.320312 56.078125 C 445.046875 56.671875 444.914062 57.699219 444.914062 59.15625 C 444.914062 60.625 445.046875 61.664062 445.320312 62.265625 C 445.601562 62.871094 446.0625 63.171875 446.710938 63.171875 C 447.34375 63.171875 447.796875 62.871094 448.070312 62.265625 C 448.351562 61.664062 448.492188 60.625 448.492188 59.15625 Z M 451.507812 59.171875 C 451.507812 61.109375 451.089844 62.605469 450.257812 63.65625 C 449.421875 64.710938 448.242188 65.234375 446.710938 65.234375 C 445.167969 65.234375 443.980469 64.710938 443.148438 63.65625 C 442.3125 62.605469 441.898438 61.109375 441.898438 59.171875 C 441.898438 57.234375 442.3125 55.746094 443.148438 54.703125 C 443.980469 53.652344 445.167969 53.125 446.710938 53.125 C 448.242188 53.125 449.421875 53.652344 450.257812 54.703125 C 451.089844 55.746094 451.507812 57.234375 451.507812 59.171875 Z M 459.625 59.15625 C 459.625 57.699219 459.488281 56.671875 459.21875 56.078125 C 458.945312 55.476562 458.488281 55.171875 457.84375 55.171875 C 457.195312 55.171875 456.734375 55.476562 456.453125 56.078125 C 456.179688 56.671875 456.046875 57.699219 456.046875 59.15625 C 456.046875 60.625 456.179688 61.664062 456.453125 62.265625 C 456.734375 62.871094 457.195312 63.171875 457.84375 63.171875 C 458.476562 63.171875 458.929688 62.871094 459.203125 62.265625 C 459.484375 61.664062 459.625 60.625 459.625 59.15625 Z M 462.640625 59.171875 C 462.640625 61.109375 462.222656 62.605469 461.390625 63.65625 C 460.554688 64.710938 459.375 65.234375 457.84375 65.234375 C 456.300781 65.234375 455.113281 64.710938 454.28125 63.65625 C 453.445312 62.605469 453.03125 61.109375 453.03125 59.171875 C 453.03125 57.234375 453.445312 55.746094 454.28125 54.703125 C 455.113281 53.652344 456.300781 53.125 457.84375 53.125 C 459.375 53.125 460.554688 53.652344 461.390625 54.703125 C 462.222656 55.746094 462.640625 57.234375 462.640625 59.171875 Z M 430 50.148438 "/>
<path style=" stroke:none;fill-rule:nonzero;fill:rgb(100%,100%,100%);fill-opacity:1;" d="M 412.5 90.125 L 412.5 91.46875 C 411.96875 91.21875 411.46875 91.039062 411 90.921875 C 410.539062 90.796875 410.09375 90.734375 409.65625 90.734375 C 408.90625 90.734375 408.328125 90.882812 407.921875 91.171875 C 407.515625 91.464844 407.3125 91.875 407.3125 92.40625 C 407.3125 92.867188 407.445312 93.210938 407.71875 93.4375 C 407.988281 93.667969 408.503906 93.851562 409.265625 93.984375 L 410.09375 94.15625 C 411.125 94.355469 411.882812 94.703125 412.375 95.203125 C 412.863281 95.695312 413.109375 96.355469 413.109375 97.1875 C 413.109375 98.179688 412.773438 98.929688 412.109375 99.4375 C 411.453125 99.949219 410.484375 100.203125 409.203125 100.203125 C 408.710938 100.203125 408.195312 100.144531 407.65625 100.03125 C 407.113281 99.929688 406.550781 99.765625 405.96875 99.546875 L 405.96875 98.125 C 406.53125 98.4375 407.078125 98.679688 407.609375 98.84375 C 408.148438 99 408.679688 99.078125 409.203125 99.078125 C 409.984375 99.078125 410.585938 98.921875 411.015625 98.609375 C 411.453125 98.296875 411.671875 97.855469 411.671875 97.28125 C 411.671875 96.78125 411.515625 96.390625 411.203125 96.109375 C 410.898438 95.828125 410.394531 95.617188 409.6875 95.46875 L 408.84375 95.3125 C 407.8125 95.105469 407.066406 94.78125 406.609375 94.34375 C 406.148438 93.90625 405.921875 93.296875 405.921875 92.515625 C 405.921875 91.621094 406.238281 90.914062 406.875 90.390625 C 407.507812 89.871094 408.382812 89.609375 409.5 89.609375 C 409.976562 89.609375 410.46875 89.65625 410.96875 89.75 C 411.46875 89.835938 411.976562 89.960938 412.5 90.125 Z M 415.261719 89.796875 L 421.714844 89.796875 L 421.714844 90.953125 L 416.636719 90.953125 L 416.636719 93.984375 L 421.496094 93.984375 L 421.496094 95.140625 L 416.636719 95.140625 L 416.636719 98.84375 L 421.839844 98.84375 L 421.839844 100 L 415.261719 100 Z M 428.25 90.734375 C 427.25 90.734375 426.453125 91.109375 425.859375 91.859375 C 425.273438 92.601562 424.984375 93.617188 424.984375 94.90625 C 424.984375 96.1875 425.273438 97.203125 425.859375 97.953125 C 426.453125 98.703125 427.25 99.078125 428.25 99.078125 C 429.25 99.078125 430.039062 98.703125 430.625 97.953125 C 431.21875 97.203125 431.515625 96.1875 431.515625 94.90625 C 431.515625 93.617188 431.21875 92.601562 430.625 91.859375 C 430.039062 91.109375 429.25 90.734375 428.25 90.734375 Z M 428.25 89.609375 C 429.675781 89.609375 430.816406 90.089844 431.671875 91.046875 C 432.535156 92.007812 432.96875 93.292969 432.96875 94.90625 C 432.96875 96.511719 432.535156 97.796875 431.671875 98.765625 C 430.816406 99.726562 429.675781 100.203125 428.25 100.203125 C 426.8125 100.203125 425.660156 99.726562 424.796875 98.765625 C 423.941406 97.808594 423.515625 96.523438 423.515625 94.90625 C 423.515625 93.292969 423.941406 92.007812 424.796875 91.046875 C 425.660156 90.089844 426.8125 89.609375 428.25 89.609375 Z M 405 87.003906 "/>
</g>
</svg>
